<svg preserveAspectRatio="none" width="100%" height="100%" overflow="visible" style="display: block;" viewBox="0 0 80.871 150.455" fill="none" xmlns="http://www.w3.org/2000/svg">
<g id="a">
<path id="Vector" d="M78.325 141.727C64.1189 134.653 37.6826 130.004 16.2433 129.139V0H0.000845039V145.831C0.000845039 148.378 2.06141 150.442 4.60231 150.442H76.218C81.0475 150.442 82.6479 143.881 78.3229 141.727H78.325Z" fill="var(--fill-0, #FF9D00)"/>
<path id="Vector_2" d="M16.2431 129.137C16.2431 129.137 -0.122419 133.056 0.000691104 145.829C0.000691104 145.829 0.416424 150.44 4.60216 150.44H76.2178C76.2178 150.44 80.7587 150.962 80.8354 145.924C80.8354 145.924 81.3662 143.124 78.3248 141.727C75.2834 140.327 54.1186 129.673 16.2431 129.139V129.137Z" fill="var(--fill-0, #FF9D00)"/>
</g>
</svg>
