<svg xmlns="http://www.w3.org/2000/svg" width="52" height="47" viewBox="0 0 52 47" fill="none">
<g clip-path="url(#clip0_1043_2131)">
<path d="M10.8046 46.0399C12.3711 45.262 15.2862 44.7507 17.6503 44.6556V30.4531H19.4414V46.4913C19.4414 46.7715 19.2142 46.9984 18.934 46.9984H11.0369C10.5043 46.9984 10.3279 46.2768 10.8048 46.0399H10.8046Z" fill="#FF9D00"/>
<path d="M17.6503 44.6554C17.6503 44.6554 19.4549 45.0864 19.4413 46.4912C19.4413 46.4912 19.3955 46.9983 18.9339 46.9983H11.0368C11.0368 46.9983 10.5361 47.0557 10.5276 46.5016C10.5276 46.5016 10.4691 46.1937 10.8045 46.04C11.1399 45.8861 13.4737 44.7144 17.6503 44.6556V44.6554Z" fill="#FF9D00"/>
<path d="M38.6669 46.0399C37.1003 45.262 34.1852 44.7507 31.8211 44.6556V30.4531H30.03V45.1886V46.0375V46.4911C30.03 46.7713 30.2572 46.9982 30.5374 46.9982H38.4345C38.9671 46.9982 39.1436 46.2766 38.6666 46.0397L38.6669 46.0399Z" fill="#FF9D00"/>
<path d="M31.8207 44.6554C31.8207 44.6554 30.0161 45.0864 30.0297 46.4912C30.0297 46.4912 30.0755 46.9983 30.5371 46.9983C30.9986 46.9983 38.4342 46.9983 38.4342 46.9983C38.4342 46.9983 38.9349 47.0557 38.9433 46.5016C38.9433 46.5016 39.0019 46.1937 38.6665 46.04C38.3311 45.8861 35.9973 44.7144 31.8207 44.6556V44.6554Z" fill="#FF9D00"/>
<path d="M2.50945 26.6314L2.51012 26.6321C2.94653 25.7677 3.82916 24.9509 5.08121 24.2063L5.20517 24.1246C6.33705 23.3753 6.7018 22.8186 6.72962 22.2556C5.37876 20.1521 4.59561 17.6517 4.59561 14.969V13.5343C4.59561 6.05944 10.6747 0 18.1739 0H20.3066C27.8058 0 33.8851 6.05944 33.8851 13.5341V14.9688C33.8851 16.4677 33.6392 17.909 33.1876 19.2566C33.1996 19.2431 33.2072 19.2342 33.2072 19.2342C32.771 20.3703 33.8437 20.4125 33.8437 20.4125C33.8404 20.4143 33.8372 20.4158 33.8339 20.4176C37.6259 20.7838 41.0293 21.434 43.7976 22.2913C43.8652 22.2321 43.9329 22.1737 43.9999 22.1174C46.2812 20.2002 48.4424 19.5714 49.7565 19.9484C51.088 20.3302 52.118 21.9102 51.9891 24.5605C51.8146 28.146 49.3254 34.4404 45.8797 38.2707C44.5916 39.9444 41.6024 43.0283 35.9737 45.0189C35.7253 45.1123 35.4727 45.1975 35.2164 45.2738C32.2144 46.2416 28.5112 46.8946 23.9773 46.8946C19.7549 46.8946 16.3063 46.3856 13.5004 45.4723C11.7812 45.0884 10.2094 44.3169 8.88099 43.255C6.85825 41.874 5.39255 40.1569 4.3586 38.2044L4.35815 38.2064C4.35815 38.2064 2.41086 34.8316 2.08015 31.2406C1.74945 27.6496 2.50923 26.6316 2.50923 26.6316L2.50945 26.6314Z" fill="url(#paint0_linear_1043_2131)"/>
<path opacity="0.38" d="M6.72977 22.2554C6.72977 22.2554 10.418 26.4633 24.9902 25.0212C24.9902 25.0212 6.86975 30.1719 4.75288 24.409C4.75288 24.409 6.76694 23.2888 6.72977 22.2554Z" fill="url(#paint1_linear_1043_2131)"/>
<path opacity="0.38" d="M33.1881 19.2566C33.1881 19.2566 29.2279 25.4334 18.6862 24.4032C18.6862 24.4032 25.7828 26.7381 36.2715 20.6989C36.2715 20.6989 34.4219 20.4943 34.038 20.4376C33.6541 20.3808 32.8098 20.363 33.1883 19.2566H33.1881Z" fill="url(#paint2_linear_1043_2131)"/>
<path d="M26.2901 31.5165C26.2901 31.5165 27.5045 23.5297 38.0453 25.4307C43.8707 26.4812 42.6476 28.7198 40.3876 30.5124C44.2372 28.4674 48.8328 26.8801 45.907 32.9983C45.907 32.9983 44.1689 37.7151 38.0488 40.3452C31.9288 42.9753 25.3026 38.4914 26.2901 31.5165Z" fill="url(#paint3_linear_1043_2131)"/>
<path d="M1.29431 17.5245C1.29431 17.5245 0.666279 17.4391 0.599737 17.8672C0.533196 18.2953 1.09089 18.7363 2.33093 19.2613C4.73845 20.2806 13.3573 20.8429 15.6807 17.3514L1.29408 17.5245H1.29431Z" fill="#F49000"/>
<path d="M9.74963 12.5546C9.74963 12.5546 7.61362 16.1021 2.86223 16.1458C-1.88916 16.1895 0.0935167 18.2815 2.91987 18.9944C5.74644 19.7071 10.3234 19.9835 14.5444 18.1362C18.7655 16.2887 9.85423 17.3802 9.74941 12.5548L9.74963 12.5546Z" fill="#FF9D00"/>
<path d="M23.3389 16.6895C20.5829 16.6895 18.3487 14.4566 18.3487 11.7021C18.3487 8.94765 20.5829 6.71472 23.3389 6.71472C26.0949 6.71472 28.3291 8.94765 28.3291 11.7021C28.3291 14.4566 26.0949 16.6895 23.3389 16.6895Z" fill="white"/>
<path d="M23.3965 14.7224C21.744 14.7224 20.4044 13.3836 20.4044 11.732C20.4044 10.0805 21.744 8.7417 23.3965 8.7417C25.049 8.7417 26.3887 10.0805 26.3887 11.732C26.3887 13.3836 25.049 14.7224 23.3965 14.7224Z" fill="#1E1446"/>
<path d="M20.9886 11.0276C20.2488 11.0276 19.6491 10.4282 19.6491 9.6889C19.6491 8.94957 20.2488 8.35022 20.9886 8.35022C21.7284 8.35022 22.3281 8.94957 22.3281 9.6889C22.3281 10.4282 21.7284 11.0276 20.9886 11.0276Z" fill="white"/>
</g>
<defs>
<linearGradient id="paint0_linear_1043_2131" x1="26.5835" y1="2.51477" x2="27.6901" y2="67.882" gradientUnits="userSpaceOnUse">
<stop stop-color="#672AC3"/>
<stop offset="0.96" stop-color="#1E1446"/>
</linearGradient>
<linearGradient id="paint1_linear_1043_2131" x1="24.9902" y1="24.6972" x2="4.75288" y2="24.6972" gradientUnits="userSpaceOnUse">
<stop stop-color="#8232F0" stop-opacity="0"/>
<stop offset="0.96" stop-color="#1E1446"/>
</linearGradient>
<linearGradient id="paint2_linear_1043_2131" x1="22.9874" y1="25.2444" x2="35.2613" y2="17.8354" gradientUnits="userSpaceOnUse">
<stop stop-color="#8232F0" stop-opacity="0"/>
<stop offset="0.96" stop-color="#1E1446"/>
</linearGradient>
<linearGradient id="paint3_linear_1043_2131" x1="38.3388" y1="39.8567" x2="31.9547" y2="11.5832" gradientUnits="userSpaceOnUse">
<stop offset="0.14" stop-color="#8232F0"/>
<stop offset="0.24" stop-color="#7C30E6"/>
<stop offset="0.4" stop-color="#6C2BCB"/>
<stop offset="0.6" stop-color="#5323A0"/>
<stop offset="0.84" stop-color="#301965"/>
<stop offset="0.96" stop-color="#1E1446"/>
</linearGradient>
<clipPath id="clip0_1043_2131">
<rect width="52" height="47" fill="white" transform="matrix(-1 0 0 1 52 0)"/>
</clipPath>
</defs>
</svg>