<svg preserveAspectRatio="none" width="100%" height="100%" overflow="visible" style="display: block;" viewBox="0 0 32 32" fill="none" xmlns="http://www.w3.org/2000/svg">
<path id="Vector" d="M27.3138 4.68625C24.4186 1.79107 20.4185 0 16.0004 0C11.5823 0 7.58143 1.79107 4.68625 4.68625C1.79107 7.58143 0 11.5823 0 16.0004C0 20.4185 1.79107 24.4186 4.68625 27.3138C7.58143 30.2089 11.5823 32 16.0004 32C24.8365 32 32 24.8365 32 16.0004C32 11.5823 30.2089 7.58143 27.3138 4.68625ZM20.7406 14.7586L20.474 16.8992C20.4289 17.2575 20.1261 17.5257 19.767 17.5257H16.3008V26.4754C15.9344 26.5084 15.5639 26.5253 15.1894 26.5253C14.3527 26.5253 13.5345 26.4416 12.7444 26.2821V17.5257H10.078C9.83314 17.5257 9.63342 17.3252 9.63342 17.0796V14.4018C9.63342 14.1562 9.83314 13.9557 10.078 13.9557H12.7444V9.93864C12.7444 7.47351 14.7344 5.47467 17.1891 5.47467H20.3009C20.5449 5.47467 20.7446 5.676 20.7446 5.92083V8.59937C20.7446 8.845 20.5449 9.04553 20.3009 9.04553H18.0782C17.0965 9.04553 16.3008 9.84442 16.3008 10.831V13.9557H20.0335C20.4628 13.9557 20.7938 14.3326 20.7406 14.7586Z" fill="var(--fill-0, #003381)"/>
</svg>
