<svg preserveAspectRatio="none" width="100%" height="100%" overflow="visible" style="display: block;" viewBox="0 0 32 31.9992" fill="none" xmlns="http://www.w3.org/2000/svg">
<path id="Vector" d="M16.0081 13.1057C14.4135 13.1057 13.1146 14.4055 13.1146 16C13.1146 17.5945 14.4135 18.8935 16.0081 18.8935C17.6026 18.8935 18.9024 17.5945 18.9024 16C18.9024 14.4055 17.6026 13.1057 16.0081 13.1057ZM16.0081 13.1057C14.4135 13.1057 13.1146 14.4055 13.1146 16C13.1146 17.5945 14.4135 18.8935 16.0081 18.8935C17.6026 18.8935 18.9024 17.5945 18.9024 16C18.9024 14.4055 17.6026 13.1057 16.0081 13.1057ZM20.0515 9.05416H11.9485C10.3515 9.05416 9.05496 10.3507 9.05496 11.9485V20.0515C9.05496 21.6485 10.3515 22.945 11.9485 22.945H20.0515C21.6493 22.945 22.9458 21.6485 22.9458 20.0515V11.9485C22.9458 10.3507 21.6493 9.05416 20.0515 9.05416ZM16.0081 20.3406C13.6122 20.3406 11.6674 18.3958 11.6674 16C11.6674 13.6042 13.6122 11.6585 16.0081 11.6585C18.4039 11.6585 20.3495 13.6034 20.3495 16C20.3495 18.3966 18.4047 20.3406 16.0081 20.3406ZM20.6386 12.2376C20.1603 12.2376 19.7705 11.8478 19.7705 11.3694C19.7705 10.8911 20.1603 10.5013 20.6386 10.5013C21.117 10.5013 21.5067 10.8903 21.5067 11.3694C21.5067 11.8486 21.1178 12.2376 20.6386 12.2376ZM16.0081 13.1057C14.4135 13.1057 13.1146 14.4055 13.1146 16C13.1146 17.5945 14.4135 18.8935 16.0081 18.8935C17.6026 18.8935 18.9024 17.5945 18.9024 16C18.9024 14.4055 17.6026 13.1057 16.0081 13.1057ZM20.0515 9.05416H11.9485C10.3515 9.05416 9.05496 10.3507 9.05496 11.9485V20.0515C9.05496 21.6485 10.3515 22.945 11.9485 22.945H20.0515C21.6493 22.945 22.9458 21.6485 22.9458 20.0515V11.9485C22.9458 10.3507 21.6493 9.05416 20.0515 9.05416ZM16.0081 20.3406C13.6122 20.3406 11.6674 18.3958 11.6674 16C11.6674 13.6042 13.6122 11.6585 16.0081 11.6585C18.4039 11.6585 20.3495 13.6034 20.3495 16C20.3495 18.3966 18.4047 20.3406 16.0081 20.3406ZM20.6386 12.2376C20.1603 12.2376 19.7705 11.8478 19.7705 11.3694C19.7705 10.8911 20.1603 10.5013 20.6386 10.5013C21.117 10.5013 21.5067 10.8903 21.5067 11.3694C21.5067 11.8486 21.1178 12.2376 20.6386 12.2376ZM16.0081 13.1057C14.4135 13.1057 13.1146 14.4055 13.1146 16C13.1146 17.5945 14.4135 18.8935 16.0081 18.8935C17.6026 18.8935 18.9024 17.5945 18.9024 16C18.9024 14.4055 17.6026 13.1057 16.0081 13.1057ZM27.3139 4.68613C24.4188 1.79102 20.418 0 16 0C11.582 0 7.58204 1.79102 4.68693 4.68613C1.79102 7.58124 0 11.582 0 16C0 20.418 1.79102 24.418 4.68693 27.3131C7.58204 30.2082 11.582 31.9992 16 31.9992C24.8367 31.9992 32 24.8359 32 16C32 11.582 30.209 7.58124 27.3139 4.68613ZM24.393 20.3406C24.393 22.5778 22.5778 24.3922 20.3415 24.3922H11.6594C9.42219 24.3922 7.60781 22.5778 7.60781 20.3406V11.6585C7.60781 9.42138 9.42219 7.60701 11.6594 7.60701H20.3415C22.5778 7.60701 24.393 9.42138 24.393 11.6585V20.3406ZM20.0515 9.05416H11.9485C10.3515 9.05416 9.05496 10.3507 9.05496 11.9485V20.0515C9.05496 21.6485 10.3515 22.945 11.9485 22.945H20.0515C21.6493 22.945 22.9458 21.6485 22.9458 20.0515V11.9485C22.9458 10.3507 21.6493 9.05416 20.0515 9.05416ZM16.0081 20.3406C13.6122 20.3406 11.6674 18.3958 11.6674 16C11.6674 13.6042 13.6122 11.6585 16.0081 11.6585C18.4039 11.6585 20.3495 13.6034 20.3495 16C20.3495 18.3966 18.4047 20.3406 16.0081 20.3406ZM20.6386 12.2376C20.1603 12.2376 19.7705 11.8478 19.7705 11.3694C19.7705 10.8911 20.1603 10.5013 20.6386 10.5013C21.117 10.5013 21.5067 10.8903 21.5067 11.3694C21.5067 11.8486 21.1178 12.2376 20.6386 12.2376ZM16.0081 13.1057C14.4135 13.1057 13.1146 14.4055 13.1146 16C13.1146 17.5945 14.4135 18.8935 16.0081 18.8935C17.6026 18.8935 18.9024 17.5945 18.9024 16C18.9024 14.4055 17.6026 13.1057 16.0081 13.1057ZM16.0081 13.1057C14.4135 13.1057 13.1146 14.4055 13.1146 16C13.1146 17.5945 14.4135 18.8935 16.0081 18.8935C17.6026 18.8935 18.9024 17.5945 18.9024 16C18.9024 14.4055 17.6026 13.1057 16.0081 13.1057ZM16.0081 13.1057C14.4135 13.1057 13.1146 14.4055 13.1146 16C13.1146 17.5945 14.4135 18.8935 16.0081 18.8935C17.6026 18.8935 18.9024 17.5945 18.9024 16C18.9024 14.4055 17.6026 13.1057 16.0081 13.1057Z" fill="var(--fill-0, #003381)"/>
</svg>
