<svg preserveAspectRatio="none" width="100%" height="100%" overflow="visible" style="display: block;" viewBox="0 0 32 32.0008" fill="none" xmlns="http://www.w3.org/2000/svg">
<path id="Vector" d="M27.3138 4.68625C24.4186 1.79107 20.4185 0 16.0004 0C11.5823 0 7.58143 1.79107 4.68625 4.68625C1.79107 7.58223 0 11.5815 0 16.0004C0 20.4193 1.79107 24.4186 4.68625 27.3146C7.58143 30.2097 11.5823 32.0008 16.0004 32.0008C24.8365 32.0008 32 24.8373 32 16.0004C32 11.5815 30.2089 7.58223 27.3138 4.68625ZM23.6108 13.4668C23.6108 13.6392 23.4691 13.7809 23.2967 13.7761C20.0649 13.6843 19.171 12.1952 19.171 12.1952V19.8056C19.171 22.7837 16.7574 25.1973 13.7801 25.1973C10.5998 25.1973 8.06302 22.4431 8.423 19.1903C8.69682 16.7244 10.686 14.7296 13.1511 14.4509C13.4845 14.4131 13.8131 14.4058 14.1336 14.426C14.2931 14.4364 14.4147 14.5742 14.4147 14.7344V16.9805C14.4147 17.1673 14.2504 17.3059 14.0652 17.2849C13.855 17.2616 13.6375 17.2632 13.4161 17.2946C12.2983 17.45 11.3995 18.3673 11.2626 19.4867C11.0693 21.0724 12.3402 22.4141 13.9033 22.34C15.2708 22.2756 16.3169 21.0845 16.3169 19.7154V7.11192C16.3169 6.94199 16.4554 6.80428 16.6253 6.80428H19.1807C19.345 6.80428 19.4875 6.92749 19.498 7.09098C19.6147 8.85386 20.805 10.7762 23.3112 10.9179C23.4779 10.9276 23.6108 11.0597 23.6108 11.2264V13.4668Z" fill="var(--fill-0, #003381)"/>
</svg>
