<svg preserveAspectRatio="none" width="100%" height="100%" overflow="visible" style="display: block;" viewBox="0 0 32 32" fill="none" xmlns="http://www.w3.org/2000/svg">
<path id="Vector" d="M27.3139 4.68613C24.418 1.79102 20.4188 0 16 0C11.5812 0 7.58204 1.79102 4.68613 4.68613C1.79102 7.58204 0 11.5812 0 16C0 20.4188 1.79102 24.418 4.68613 27.3139C7.58204 30.209 11.5812 32 16 32C24.8367 32 32 24.8367 32 16C32 11.5812 30.209 7.58204 27.3139 4.68613ZM25.8635 15.7334C25.6726 20.6684 21.6549 24.7216 16.7216 24.9503C14.9539 25.0316 13.2869 24.6386 11.8349 23.8808H11.8317L7.02476 24.9543C6.80733 24.9994 6.61405 24.8069 6.65996 24.5895L7.73344 19.7818C6.9692 18.3193 6.5762 16.6354 6.66559 14.8548C6.91282 9.91343 10.9974 5.9086 15.942 5.74753C21.5237 5.56634 26.0801 10.1437 25.8635 15.7334ZM16.2617 7.73102C12.0604 7.73102 8.64103 11.1504 8.64103 15.3517C8.64103 16.8794 9.09201 18.3008 9.86672 19.4935L9.04852 22.5649L12.12 21.7467C12.2199 21.8128 12.3221 21.8756 12.4284 21.9352C13.5551 22.5947 14.8637 22.9724 16.2617 22.9724C20.4639 22.9724 23.8832 19.5531 23.8832 15.3517C23.8832 11.1504 20.4639 7.73102 16.2617 7.73102ZM20.782 18.7067C20.6491 18.9056 20.509 19.0916 20.2867 19.3147C19.7987 19.8027 19.1206 20.0483 18.4329 19.9791C17.2007 19.8526 15.45 19.1713 13.9448 17.6702C12.4397 16.1651 11.7592 14.4143 11.636 13.1814C11.5659 12.4945 11.8124 11.8164 12.3004 11.3284C12.5226 11.1053 12.7087 10.966 12.9084 10.8299C13.2772 10.5802 13.7789 10.7469 13.9183 11.1649L14.4232 12.6805C14.5625 13.0952 14.4997 13.3578 14.3201 13.5341L13.9183 13.9392C13.7185 14.1389 13.6855 14.4482 13.8385 14.6873C14.0608 15.036 14.4796 15.5941 15.2503 16.3648C16.0209 17.1355 16.579 17.5543 16.9277 17.7765C17.1669 17.9295 17.4761 17.8957 17.6751 17.6968L18.0809 17.2941C18.2565 17.1154 18.519 17.0517 18.9346 17.1919L20.4494 17.6968C20.8681 17.8361 21.034 18.3378 20.782 18.7067Z" fill="var(--fill-0, #003381)"/>
</svg>
