<svg preserveAspectRatio="none" width="100%" height="100%" overflow="visible" style="display: block;" viewBox="0 0 32 31.9992" fill="none" xmlns="http://www.w3.org/2000/svg">
<path id="Vector" d="M27.3139 4.68613C24.418 1.79102 20.4188 0 16 0C11.5812 0 7.58204 1.79102 4.68613 4.68613C1.79102 7.58124 0 11.582 0 16C0 20.418 1.79102 24.418 4.68613 27.3131C7.58204 30.2082 11.5812 31.9992 16 31.9992C24.8367 31.9992 32 24.8359 32 16C32 11.582 30.209 7.58124 27.3139 4.68613ZM18.6471 24.3922L14.5021 18.602L9.08879 24.3922H6.63016L13.4359 17.1129L6.63016 7.60701H13.3529L17.2434 13.0413L22.3233 7.60701H24.7812L18.3088 14.5303L25.369 24.3922H18.6471ZM10.0946 9.38756L19.5619 22.6116H21.9054L12.4381 9.38756H10.0946Z" fill="var(--fill-0, #003381)"/>
</svg>
