<svg preserveAspectRatio="none" width="100%" height="100%" overflow="visible" style="display: block;" viewBox="0 0 32 32" fill="none" xmlns="http://www.w3.org/2000/svg">
<g id="Vector">
<path d="M27.3138 4.68625C24.4178 1.79107 20.4185 0 15.9996 0C11.5807 0 7.58143 1.79107 4.68625 4.68625C1.79107 7.58143 0 11.5823 0 16.0004C0 20.4185 1.79107 24.4186 4.68625 27.3138C7.58143 30.2089 11.5815 32 15.9996 32C24.8365 32 32 24.8365 32 16.0004C32 11.5823 30.2089 7.58143 27.3138 4.68625ZM25.3624 20.313C25.3624 21.6756 24.2575 22.7797 22.8957 22.7797H9.10512C7.74249 22.7797 6.63757 21.6756 6.63757 20.313V11.687C6.63757 10.3252 7.74249 9.22028 9.10512 9.22028H22.8957C24.2575 9.22028 25.3624 10.3252 25.3624 11.687V20.313Z" fill="var(--fill-0, #003381)"/>
<path d="M18.2151 16.5955L14.3809 18.5114C13.9379 18.7329 13.4169 18.4116 13.4169 17.9171V14.0837C13.4169 13.5892 13.9379 13.2679 14.3809 13.4886L18.2151 15.4061C18.7055 15.6501 18.7055 16.3499 18.2151 16.5955Z" fill="var(--fill-0, #003381)"/>
</g>
</svg>
