<svg width="1440" height="205" viewBox="0 0 1440 205" fill="none" xmlns="http://www.w3.org/2000/svg">
<mask id="mask0_1063_1916" style="mask-type:luminance" maskUnits="userSpaceOnUse" x="-2" y="0" width="1447" height="491">
<path d="M1434.24 0.259008L1251.71 36.2611C1246.41 37.2971 1240.91 35.0367 1240.91 31.8109V15.3992C1240.91 8.54725 1227.66 4.63859 1218.41 8.35889L1048.31 52.814C1042.93 54.2268 1036.81 51.9428 1036.81 48.5286V20.8148C1036.81 12.9268 1020.22 9.183 1011.21 14.7399L834.593 84.5542C833.9 84.8603 833.248 85.2135 832.678 85.5903V12.0792C832.678 7.44059 822.324 5.60399 817.8 9.41846L723.232 89.4989C722.499 90.1347 721.887 90.794 721.439 91.5004C720.909 90.7469 720.257 90.0405 719.36 89.3812L624.997 17.4712C620.268 13.8687 610.363 15.7995 610.363 20.3203V85.6374C609.711 85.19 608.977 84.7897 608.162 84.4365L431.501 19.1666C422.248 13.9158 406.229 17.7538 406.229 25.5005V49.3527C406.229 52.7434 400.196 55.0274 394.815 53.6617L224.472 10.5722C215.097 7.01675 202.135 10.9725 202.135 17.7538V31.7873C202.135 35.0131 196.632 37.2971 191.333 36.2375L8.80185 0.259008C3.50283 -0.777023 -2 1.48341 -2 4.70923V485.922C-2 489.148 3.50283 491.432 8.80185 490.372L191.333 454.37C196.632 453.334 202.135 455.595 202.135 458.82V475.232C202.135 482.084 215.382 485.993 224.635 482.272L394.734 437.817C400.114 436.404 406.229 438.688 406.229 442.103V469.816C406.229 477.704 422.819 481.425 431.827 475.891L608.488 406.077C609.181 405.771 609.793 405.418 610.363 405.017V478.529C610.363 483.167 620.717 485.004 625.241 481.189L719.808 401.109C720.542 400.473 721.113 399.814 721.561 399.107C722.091 399.861 722.784 400.567 723.64 401.226L818.003 473.136C822.732 476.739 832.637 474.808 832.637 470.287V404.97C833.289 405.418 834.023 405.818 834.838 406.171L1011.5 471.441C1020.71 476.692 1036.77 472.854 1036.77 465.107V441.255C1036.77 437.864 1042.8 435.58 1048.18 436.946L1218.53 480.035C1227.9 483.591 1240.87 479.635 1240.87 472.854V458.797C1240.87 455.571 1246.37 453.287 1251.67 454.347L1434.2 490.349C1439.5 491.385 1445 489.124 1445 485.898V4.70923C1445 2.02497 1441.21 0 1436.85 0C1435.99 0 1435.09 0.0706385 1434.2 0.259008" fill="white"/>
</mask>
<g mask="url(#mask0_1063_1916)">
<mask id="mask1_1063_1916" style="mask-type:luminance" maskUnits="userSpaceOnUse" x="-2" y="-1" width="1447" height="493">
<path d="M1445 -0.776855H-2V491.432H1445V-0.776855Z" fill="white"/>
</mask>
<g mask="url(#mask1_1063_1916)">
<path d="M-2.77148 -1.05908H1445.08V491.715H-2.77148V-1.05908Z" fill="#12082D"/>
</g>
</g>
</svg>
