<svg preserveAspectRatio="none" width="100%" height="100%" overflow="visible" style="display: block;" viewBox="0 0 80 80" fill="none" xmlns="http://www.w3.org/2000/svg">
<g id="Frame 14498">
<circle id="Ellipse 14" cx="40" cy="40" r="39" stroke="var(--stroke-0, #77EDED)" stroke-width="2"/>
<g id="tablet_mac_24dp_E3E3E3_FILL1_wght400_GRAD0_opsz24 1" clip-path="url(#clip0_0_256)">
<g id="tablet_mac_24dp_E3E3E3_FILL0_wght400_GRAD0_opsz24 1">
<path id="Vector" d="M40.7 51.7C40.9556 51.4444 41.0833 51.1278 41.0833 50.75C41.0833 50.3722 40.9556 50.0556 40.7 49.8C40.4444 49.5444 40.1278 49.4167 39.75 49.4167C39.3722 49.4167 39.0556 49.5444 38.8 49.8C38.5444 50.0556 38.4167 50.3722 38.4167 50.75C38.4167 51.1278 38.5444 51.4444 38.8 51.7C39.0556 51.9556 39.3722 52.0833 39.75 52.0833C40.1278 52.0833 40.4444 51.9556 40.7 51.7ZM30.4167 55.4167C29.6833 55.4167 29.0556 55.1556 28.5333 54.6333C28.0111 54.1111 27.75 53.4833 27.75 52.75V28.75C27.75 28.0167 28.0111 27.3889 28.5333 26.8667C29.0556 26.3444 29.6833 26.0833 30.4167 26.0833H49.0833C49.8167 26.0833 50.4444 26.3444 50.9667 26.8667C51.4889 27.3889 51.75 28.0167 51.75 28.75V52.75C51.75 53.4833 51.4889 54.1111 50.9667 54.6333C50.4444 55.1556 49.8167 55.4167 49.0833 55.4167H30.4167ZM30.4167 48.75V52.75H49.0833V48.75H30.4167ZM30.4167 46.0833H49.0833V32.75H30.4167V46.0833ZM30.4167 30.0833H49.0833V28.75H30.4167V30.0833Z" fill="var(--fill-0, #77EDED)"/>
</g>
</g>
</g>
<defs>
<clipPath id="clip0_0_256">
<rect width="32" height="32" fill="white" transform="translate(23.875 24.75)"/>
</clipPath>
</defs>
</svg>
