<svg preserveAspectRatio="none" width="100%" height="100%" overflow="visible" style="display: block;" viewBox="0 0 30 30" fill="none" xmlns="http://www.w3.org/2000/svg">
<g id="schedule_24dp_E3E3E3_FILL1_wght300_GRAD200_opsz24 1">
<path id="Vector" d="M19.1537 21.0337L21.0338 19.1538L16.375 14.4325V8.625H13.6875V15.5672L19.1537 21.0337ZM15.0022 27.875C13.2214 27.875 11.5475 27.5371 9.98062 26.8612C8.41375 26.1854 7.05083 25.2682 5.89187 24.1097C4.73292 22.9511 3.81531 21.5887 3.13906 20.0225C2.46302 18.4562 2.125 16.7828 2.125 15.0022C2.125 13.2159 2.46354 11.5371 3.14062 9.96563C3.81771 8.39417 4.73656 7.02719 5.89719 5.86469C7.05781 4.70219 8.42021 3.78823 9.98437 3.12281C11.5483 2.4576 13.2195 2.125 14.9978 2.125C16.7839 2.125 18.4625 2.4575 20.0338 3.1225C21.6052 3.7875 22.9723 4.70115 24.135 5.86344C25.2977 7.02573 26.2118 8.3925 26.8772 9.96375C27.5424 11.535 27.875 13.214 27.875 15.0006C27.875 16.7871 27.5425 18.4602 26.8775 20.02C26.2125 21.5798 25.299 22.9402 24.1369 24.1012C22.9748 25.2623 21.6083 26.1816 20.0375 26.8591C18.4667 27.5364 16.7882 27.875 15.0022 27.875Z" fill="var(--fill-0, #77EDED)"/>
</g>
</svg>
