<svg preserveAspectRatio="none" width="100%" height="100%" overflow="visible" style="display: block;" viewBox="0 0 80 80" fill="none" xmlns="http://www.w3.org/2000/svg">
<g id="Frame 14500">
<circle id="Ellipse 14" cx="40" cy="40" r="39" stroke="var(--stroke-0, #77EDED)" stroke-width="2"/>
<path id="Vector" d="M32.0583 55.75C31.2517 55.75 30.5611 55.4652 29.9867 54.8955C29.4122 54.3258 29.125 53.6409 29.125 52.8409V26.6591C29.125 25.8591 29.4122 25.1742 29.9867 24.6045C30.5611 24.0348 31.2517 23.75 32.0583 23.75H46.725C47.5317 23.75 48.2222 24.0348 48.7967 24.6045C49.3711 25.1742 49.6583 25.8591 49.6583 26.6591V31.1682C50.0983 31.3379 50.4528 31.6045 50.7217 31.9682C50.9906 32.3318 51.125 32.7439 51.125 33.2045V36.1136C51.125 36.5742 50.9906 36.9864 50.7217 37.35C50.4528 37.7136 50.0983 37.9803 49.6583 38.15V52.8409C49.6583 53.6409 49.3711 54.3258 48.7967 54.8955C48.2222 55.4652 47.5317 55.75 46.725 55.75H32.0583ZM32.0583 52.8409H46.725V26.6591H32.0583V52.8409ZM36.4583 51.3864H42.325C42.7406 51.3864 43.0889 51.247 43.37 50.9682C43.6511 50.6894 43.7917 50.3439 43.7917 49.9318C43.7917 49.5197 43.6511 49.1742 43.37 48.8955C43.0889 48.6167 42.7406 48.4773 42.325 48.4773H36.4583C36.0428 48.4773 35.6944 48.6167 35.4133 48.8955C35.1322 49.1742 34.9917 49.5197 34.9917 49.9318C34.9917 50.3439 35.1322 50.6894 35.4133 50.9682C35.6944 51.247 36.0428 51.3864 36.4583 51.3864Z" fill="var(--fill-0, #77EDED)"/>
</g>
</svg>
