<svg preserveAspectRatio="none" width="100%" height="100%" overflow="visible" style="display: block;" viewBox="0 0 80 80" fill="none" xmlns="http://www.w3.org/2000/svg">
<g id="Frame 14499">
<circle id="Ellipse 14" cx="40" cy="40" r="39" stroke="var(--stroke-0, #77EDED)" stroke-width="2"/>
<g id="web_24dp_E3E3E3_FILL0_wght400_GRAD0_opsz24 1">
<path id="Vector" d="M29.7083 50.4167C28.975 50.4167 28.3472 50.1556 27.825 49.6333C27.3028 49.1111 27.0417 48.4833 27.0417 47.75V31.75C27.0417 31.0167 27.3028 30.3889 27.825 29.8667C28.3472 29.3444 28.975 29.0833 29.7083 29.0833H51.0417C51.775 29.0833 52.4028 29.3444 52.925 29.8667C53.4472 30.3889 53.7083 31.0167 53.7083 31.75V47.75C53.7083 48.4833 53.4472 49.1111 52.925 49.6333C52.4028 50.1556 51.775 50.4167 51.0417 50.4167H29.7083ZM29.7083 47.75H43.7083V43.0833H29.7083V47.75ZM46.375 47.75H51.0417V35.75H46.375V47.75ZM29.7083 40.4167H43.7083V35.75H29.7083V40.4167Z" fill="var(--fill-0, #77EDED)"/>
</g>
</g>
</svg>
