<svg preserveAspectRatio="none" width="100%" height="100%" overflow="visible" style="display: block;" viewBox="0 0 80 80" fill="none" xmlns="http://www.w3.org/2000/svg">
<g id="Frame 14497">
<circle id="Ellipse 14" cx="40" cy="40" r="39" stroke="var(--stroke-0, #77EDED)" stroke-width="2"/>
<g id="tv 2">
<path id="Vector" d="M28.425 31.75V43.75H50.825V31.75H28.425ZM25.225 31.75C25.225 29.985 26.66 28.55 28.425 28.55H50.825C52.59 28.55 54.025 29.985 54.025 31.75V43.75C54.025 45.515 52.59 46.95 50.825 46.95H28.425C26.66 46.95 25.225 45.515 25.225 43.75V31.75ZM33.225 49.35H46.025C46.91 49.35 47.625 50.065 47.625 50.95C47.625 51.835 46.91 52.55 46.025 52.55H33.225C32.34 52.55 31.625 51.835 31.625 50.95C31.625 50.065 32.34 49.35 33.225 49.35Z" fill="var(--fill-0, #77EDED)"/>
</g>
</g>
</svg>
