<svg preserveAspectRatio="none" width="100%" height="100%" overflow="visible" style="display: block;" viewBox="0 0 30 30" fill="none" xmlns="http://www.w3.org/2000/svg">
<g id="male_24dp_E3E3E3_FILL0_wght400_GRAD0_opsz24 1">
<path id="Vector" d="M25 5V12.5H22.5V9.28125L17.5312 14.2188C17.9271 14.8021 18.2292 15.4219 18.4375 16.0781C18.6458 16.7344 18.75 17.4167 18.75 18.125C18.75 20.0417 18.0833 21.6667 16.75 23C15.4167 24.3333 13.7917 25 11.875 25C9.95833 25 8.33333 24.3333 7 23C5.66667 21.6667 5 20.0417 5 18.125C5 16.2083 5.66667 14.5833 7 13.25C8.33333 11.9167 9.95833 11.25 11.875 11.25C12.5625 11.25 13.2396 11.349 13.9062 11.5469C14.5729 11.7448 15.1875 12.0521 15.75 12.4688L20.7188 7.5H17.5V5H25ZM8.78125 15.0312C7.92708 15.8854 7.5 16.9167 7.5 18.125C7.5 19.3333 7.92708 20.3646 8.78125 21.2188C9.63542 22.0729 10.6667 22.5 11.875 22.5C13.0833 22.5 14.1146 22.0729 14.9688 21.2188C15.8229 20.3646 16.25 19.3333 16.25 18.125C16.25 16.9167 15.8229 15.8854 14.9688 15.0312C14.1146 14.1771 13.0833 13.75 11.875 13.75C10.6667 13.75 9.63542 14.1771 8.78125 15.0312Z" fill="var(--fill-0, #77EDED)"/>
</g>
</svg>
