<svg preserveAspectRatio="none" width="100%" height="100%" overflow="visible" style="display: block;" viewBox="0 0 92 32" fill="none" xmlns="http://www.w3.org/2000/svg">
<g id="Vector">
<path d="M83.6204 27.1152H83.8279L84.4217 31.2972H92V6.11001H82.9085V19.3304C82.9085 22.3538 81.6157 23.9399 79.2534 23.9399C76.7571 23.9399 75.5983 22.3221 75.5983 19.3304V6.11001H66.5069V21.8251C66.5069 28.6759 69.9609 32 75.394 32C79.1513 32 82.5031 29.4325 83.6204 27.1152Z" fill="white"/>
<path d="M19.0959 6.46458C19.0959 7.92402 19.2491 8.57934 19.2491 8.57934H19.147C17.8254 6.81599 15.1344 5.4072 11.6293 5.4072C5.3821 5.4072 0 10.1907 0 18.7036C0 27.2165 5.3821 32 11.8336 32C15.3897 32 18.6394 30.1353 19.7567 27.7198H19.9642L20.5579 31.2972H28.1363V0H19.0959V6.46458ZM13.6117 24.5445C10.7163 24.5445 8.48175 22.2271 8.48175 18.7036C8.48175 15.1801 10.7163 12.8627 13.6117 12.8627C16.3027 12.8627 18.7416 14.9268 18.7416 18.7036C18.7416 22.4804 16.3027 24.5445 13.6117 24.5445Z" fill="white"/>
<path d="M40.8733 6.11001H31.7818V31.294H40.8733V6.11001Z" fill="white"/>
<path d="M63.7616 23.2624C63.7616 23.2624 62.6507 23.943 61.112 23.943C59.4552 23.943 57.6804 23.237 57.6804 20.9703V14.4298H63.8701V6.11318H43.5037V14.4298H48.7421V22.4298C48.7421 23.3858 48.8443 24.2944 48.9464 25.0985C49.8083 30.1353 53.722 32 57.9868 32C61.6036 32 63.8733 31.1041 63.8733 31.1041V23.2624H63.7616Z" fill="white"/>
</g>
</svg>
