<svg preserveAspectRatio="none" width="100%" height="100%" overflow="visible" style="display: block;" viewBox="0 0 176.78 61.7987" fill="none" xmlns="http://www.w3.org/2000/svg">
<g id="Vector">
<path d="M160.678 52.3651H161.077L162.218 60.4415H176.78V11.7997H159.31V37.3311C159.31 43.1699 156.826 46.2329 152.287 46.2329C147.49 46.2329 145.264 43.1087 145.264 37.3311V11.7997H127.794V42.1488C127.794 55.3792 134.431 61.7987 144.871 61.7987C152.091 61.7987 158.531 56.8404 160.678 52.3651Z" fill="var(--fill-0, white)"/>
<path d="M36.6931 12.4845C36.6931 15.303 36.9876 16.5685 36.9876 16.5685H36.7913C34.2518 13.1631 29.0809 10.4424 22.3459 10.4424C10.3418 10.4424 0 19.6805 0 36.1206C0 52.5607 10.3418 61.7987 22.7385 61.7987C29.5716 61.7987 35.816 58.1977 37.9629 53.5328H38.3616L39.5025 60.4415H54.0644V0H36.6931V12.4845ZM26.1551 47.4006C20.5916 47.4006 16.2978 42.9253 16.2978 36.1206C16.2978 29.3159 20.5916 24.8405 26.1551 24.8405C31.326 24.8405 36.0123 28.8268 36.0123 36.1206C36.0123 43.4144 31.326 47.4006 26.1551 47.4006Z" fill="var(--fill-0, white)"/>
<path d="M78.5388 11.7997H61.0693V60.4353H78.5388V11.7997Z" fill="var(--fill-0, white)"/>
<path d="M122.519 44.9245C122.519 44.9245 120.384 46.239 117.428 46.239C114.244 46.239 110.834 44.8756 110.834 40.4981V27.8669H122.728V11.8058H83.5931V27.8669H93.6589V43.3166C93.6589 45.163 93.8552 46.9176 94.0515 48.4706C95.7076 58.1977 103.228 61.7987 111.423 61.7987C118.372 61.7987 122.734 60.0685 122.734 60.0685V44.9245H122.519Z" fill="var(--fill-0, white)"/>
</g>
</svg>
