<svg preserveAspectRatio="none" width="100%" height="100%" overflow="visible" style="display: block;" viewBox="0 0 116.999 16.3846" fill="none" xmlns="http://www.w3.org/2000/svg">
<g id="Vector">
<path d="M0 4.16307H2.49651L2.54558 5.57537V10.7293L2.4413 11.5058L2.54558 13.0954V16.3846H0V4.16307ZM4.79673 13.1871C4.35509 13.1871 3.96865 13.1137 3.63742 12.9609C3.30618 12.808 3.04243 12.6063 2.84001 12.3495C2.63759 12.0927 2.50264 11.8115 2.43517 11.5058H1.43534L2.54558 10.1302C2.60078 10.3381 2.6928 10.5154 2.82161 10.6682C2.95042 10.821 3.11604 10.9311 3.31845 11.0106C3.52087 11.0901 3.76009 11.1267 4.02999 11.1267C4.57591 11.1267 4.99915 10.9189 5.29971 10.497C5.60027 10.0752 5.74749 9.4332 5.74749 8.55892C5.74749 7.73355 5.60027 7.11605 5.31198 6.70643C5.02369 6.2968 4.60045 6.08893 4.04839 6.08893C3.7785 6.08893 3.53928 6.12561 3.32459 6.19898C3.1099 6.27235 2.93202 6.36405 2.79707 6.4741C2.66213 6.58415 2.57625 6.70031 2.55171 6.81648V6.15618C2.62532 5.82604 2.7296 5.53257 2.85841 5.26356C2.98722 4.99455 3.1467 4.76834 3.34912 4.57881C3.54541 4.38928 3.7785 4.24255 4.04839 4.13861C4.31829 4.03468 4.63112 3.98577 4.98688 3.98577C5.68002 3.98577 6.27501 4.1753 6.76572 4.54824C7.25644 4.9273 7.63674 5.45309 7.9005 6.13784C8.16426 6.82259 8.2992 7.62962 8.2992 8.55281C8.2992 9.28647 8.21333 9.94066 8.04771 10.5154C7.87596 11.0901 7.63674 11.573 7.33004 11.9643C7.02335 12.3617 6.65531 12.6613 6.22593 12.8692C5.79656 13.0771 5.32425 13.181 4.809 13.181L4.79673 13.1871Z" fill="var(--fill-0, white)"/>
<path d="M13.7523 13.2054C12.8812 13.2054 12.1268 13.0281 11.4888 12.6735C10.8509 12.3189 10.3541 11.7993 9.9983 11.1084C9.64253 10.4175 9.47078 9.57382 9.47078 8.57115C9.47078 7.6235 9.6548 6.80425 10.029 6.1195C10.4031 5.43475 10.9123 4.90284 11.5624 4.53601C12.2126 4.16918 12.9548 3.98577 13.7829 3.98577C14.6785 3.98577 15.4452 4.16918 16.0831 4.53601C16.7211 4.90284 17.2118 5.42863 17.5492 6.1195C17.8927 6.80425 18.0644 7.6235 18.0644 8.57115C18.0644 9.57382 17.8743 10.4236 17.5001 11.1084C17.1198 11.7993 16.6107 12.3189 15.9605 12.6735C15.3103 13.0281 14.5742 13.2054 13.7523 13.2054ZM13.7829 11.1023C14.2798 11.1023 14.6969 10.9189 15.0281 10.552C15.3593 10.1852 15.5311 9.52491 15.5311 8.57115C15.5311 7.68464 15.3593 7.0488 15.0097 6.66363C14.6601 6.27846 14.243 6.08893 13.7584 6.08893C13.2738 6.08893 12.8444 6.27846 12.5132 6.66363C12.182 7.0488 12.0102 7.68464 12.0102 8.57115C12.0102 9.45766 12.1881 10.1363 12.5377 10.5276C12.8874 10.9128 13.3045 11.1084 13.7829 11.1084V11.1023Z" fill="var(--fill-0, white)"/>
<path d="M19.6715 13.0832V4.16307H21.9533L22.168 7.65407L22.0208 7.12217C22.0699 6.6514 22.1619 6.22955 22.2907 5.84438C22.4195 5.4592 22.5912 5.12906 22.7998 4.84782C23.0084 4.5727 23.2598 4.3526 23.5481 4.19975C23.8426 4.0469 24.1738 3.97354 24.5541 3.97354C24.6645 3.97354 24.7749 3.97354 24.8853 3.99188C24.9957 4.00411 25.1 4.02245 25.1859 4.0469V6.68808C25.0019 6.63917 24.8179 6.60249 24.6461 6.58415C24.4744 6.56581 24.3026 6.55358 24.1309 6.55358C23.8303 6.55358 23.5604 6.57804 23.315 6.63306C23.0697 6.68809 22.8611 6.77368 22.6771 6.88373C22.4992 6.99378 22.3459 7.14051 22.2232 7.3117V13.077H19.6654L19.6715 13.0832Z" fill="var(--fill-0, white)"/>
<path d="M34.3438 13.2544C33.1907 13.2544 32.2031 13.0098 31.3873 12.5146C30.5715 12.0194 29.9458 11.3102 29.5164 10.387C29.0871 9.46377 28.8662 8.35716 28.8662 7.07937C28.8662 5.80158 29.0748 4.74388 29.498 3.82681C29.9213 2.91584 30.5408 2.20664 31.3566 1.71142C32.1724 1.2162 33.1784 0.965527 34.3622 0.965527C35.221 0.965527 35.9939 1.1306 36.687 1.45464C37.3801 1.77867 37.926 2.26166 38.3309 2.89139C38.7357 3.52111 38.9382 4.29146 38.932 5.20242H36.2638C36.2638 4.77445 36.1595 4.42596 35.9755 4.16307C35.7914 3.90017 35.54 3.71064 35.2271 3.59448C34.9143 3.47832 34.5585 3.41718 34.166 3.41718C33.6323 3.41718 33.1661 3.54557 32.7736 3.80847C32.381 4.07136 32.0743 4.47487 31.8596 5.02512C31.6449 5.57536 31.5345 6.27234 31.5345 7.12828C31.5345 7.98422 31.6449 8.65063 31.8657 9.19476C32.0866 9.7389 32.3932 10.1424 32.792 10.3992C33.1907 10.6621 33.6507 10.7905 34.1721 10.7905C34.6199 10.7905 35.0002 10.7293 35.313 10.6071C35.6258 10.4848 35.865 10.3075 36.0307 10.0752C36.1963 9.84283 36.2822 9.56159 36.2822 9.23145H38.9565C38.9565 10.0507 38.7603 10.7599 38.3493 11.3591C37.9383 11.9643 37.3863 12.429 36.6809 12.753C35.9816 13.0771 35.1965 13.2421 34.3316 13.2421L34.3438 13.2544Z" fill="var(--fill-0, white)"/>
<path d="M42.7719 13.181C42.2627 13.181 41.8027 13.0832 41.3917 12.8936C40.9807 12.7041 40.6495 12.4229 40.4103 12.0499C40.1711 11.677 40.0484 11.2246 40.0484 10.6865C40.0484 10.1485 40.1588 9.70221 40.3796 9.35372C40.6004 9.00523 40.901 8.73011 41.2874 8.53447C41.6677 8.33271 42.1033 8.18598 42.5817 8.08816C42.9068 8.0209 43.238 7.96588 43.5815 7.92308C43.925 7.88029 44.244 7.84361 44.5507 7.81915C44.8512 7.79469 45.115 7.77024 45.3236 7.7519V7.50734C45.3236 6.93875 45.2316 6.54135 45.0414 6.31514C44.8512 6.08893 44.5262 5.97277 44.0538 5.97277C43.7533 5.97277 43.5018 6.01556 43.2932 6.09504C43.0847 6.17452 42.9375 6.32125 42.8332 6.53524C42.7289 6.74922 42.686 7.0488 42.6921 7.44009H40.2815C40.214 6.65752 40.3367 6.00945 40.6495 5.49589C40.9623 4.98844 41.4163 4.60938 42.0174 4.35871C42.6185 4.10804 43.3239 3.98577 44.1336 3.98577C44.6059 3.98577 45.0598 4.03468 45.5014 4.13861C45.9431 4.24255 46.3418 4.41374 46.6914 4.65218C47.0411 4.89673 47.3171 5.22688 47.5256 5.64873C47.7342 6.07059 47.8323 6.60249 47.8323 7.24445V13.0832H45.3052L45.3236 10.9983C45.2254 11.5975 44.9801 12.1111 44.5875 12.539C44.1949 12.967 43.5877 13.181 42.7719 13.181ZM43.6183 11.4936C43.8882 11.4936 44.1397 11.4447 44.3851 11.3407C44.6304 11.2368 44.8328 11.1023 45.0046 10.925C45.1763 10.7477 45.2806 10.552 45.3236 10.3319V8.92575C45.1027 8.95632 44.8819 8.99301 44.6611 9.02969C44.4341 9.06637 44.2379 9.10917 44.0722 9.15196C43.5263 9.27424 43.1521 9.43931 42.9497 9.64718C42.7473 9.85505 42.6492 10.1302 42.6492 10.4664C42.6492 10.6804 42.686 10.8638 42.7596 11.0167C42.8332 11.1695 42.9436 11.2857 43.0908 11.3713C43.238 11.4508 43.4159 11.4936 43.6245 11.4936H43.6183Z" fill="var(--fill-0, white)"/>
<path d="M49.8443 13.0832V4.16307H52.1261L52.3408 7.65407L52.1936 7.12217C52.2426 6.6514 52.3346 6.22955 52.4635 5.84438C52.5923 5.4592 52.764 5.12906 52.9726 4.84782C53.1811 4.5727 53.4326 4.3526 53.7209 4.19975C54.0153 4.0469 54.3466 3.97354 54.7269 3.97354C54.8373 3.97354 54.9477 3.97354 55.0581 3.99188C55.1685 4.00411 55.2728 4.02245 55.3587 4.0469V6.68808C55.1746 6.63917 54.9906 6.60249 54.8189 6.58415C54.6471 6.56581 54.4754 6.55358 54.3036 6.55358C54.0031 6.55358 53.7332 6.57804 53.4878 6.63306C53.2425 6.68809 53.0339 6.77368 52.8499 6.88373C52.672 6.99378 52.5187 7.14051 52.396 7.3117V13.077H49.8381L49.8443 13.0832Z" fill="var(--fill-0, white)"/>
<path d="M58.9654 13.181C58.4563 13.181 57.9962 13.0832 57.5853 12.8936C57.1743 12.7041 56.8431 12.4229 56.6039 12.0499C56.3646 11.677 56.242 11.2246 56.242 10.6865C56.242 10.1485 56.3524 9.70221 56.5732 9.35372C56.794 9.00523 57.0946 8.73011 57.481 8.53447C57.8613 8.33271 58.2968 8.18598 58.7753 8.08816C59.1004 8.0209 59.4316 7.96588 59.7751 7.92308C60.1186 7.88029 60.4376 7.84361 60.7442 7.81915C61.0448 7.79469 61.3086 7.77024 61.5171 7.7519V7.50734C61.5171 6.93875 61.4251 6.54135 61.235 6.31514C61.0448 6.08893 60.7197 5.97277 60.2474 5.97277C59.9468 5.97277 59.6953 6.01556 59.4868 6.09504C59.2782 6.17452 59.131 6.32125 59.0267 6.53524C58.9225 6.74922 58.8795 7.0488 58.8857 7.44009H56.475C56.4076 6.65752 56.5302 6.00945 56.8431 5.49589C57.1559 4.98844 57.6098 4.60938 58.2109 4.35871C58.8121 4.10804 59.5175 3.98577 60.3271 3.98577C60.7994 3.98577 61.2534 4.03468 61.695 4.13861C62.1367 4.24255 62.5353 4.41374 62.885 4.65218C63.2346 4.89673 63.5106 5.22688 63.7192 5.64873C63.9277 6.07059 64.0259 6.60249 64.0259 7.24445V13.0832H61.4987L61.5171 10.9983C61.419 11.5975 61.1736 12.1111 60.7811 12.539C60.3885 12.967 59.7812 13.181 58.9654 13.181ZM59.8119 11.4936C60.0818 11.4936 60.3333 11.4447 60.5786 11.3407C60.824 11.2368 61.0264 11.1023 61.1982 10.925C61.3699 10.7477 61.4742 10.552 61.5171 10.3319V8.92575C61.2963 8.95632 61.0755 8.99301 60.8547 9.02969C60.6277 9.06637 60.4314 9.10917 60.2658 9.15196C59.7199 9.27424 59.3457 9.43931 59.1433 9.64718C58.9409 9.85505 58.8427 10.1302 58.8427 10.4664C58.8427 10.6804 58.8795 10.8638 58.9531 11.0167C59.0268 11.1695 59.1372 11.2857 59.2844 11.3713C59.4316 11.4508 59.6095 11.4936 59.818 11.4936H59.8119Z" fill="var(--fill-0, white)"/>
<path d="M69.8225 13.236C68.884 13.236 68.0927 13.0404 67.4609 12.6491C66.8291 12.2578 66.3507 11.7137 66.0317 11.0167C65.7127 10.3136 65.5532 9.50045 65.5532 8.57726C65.5532 7.65407 65.7189 6.81036 66.0501 6.12561C66.3813 5.44086 66.8598 4.90896 67.4916 4.54213C68.1234 4.1753 68.884 3.99188 69.7795 3.99188C70.6751 3.99188 71.3805 4.14473 71.9509 4.44431C72.5275 4.74388 72.9508 5.15351 73.2206 5.67319C73.4967 6.19287 73.6132 6.78591 73.5825 7.4462H71.1106C71.0983 7.19554 71.0615 6.98155 71.0063 6.79813C70.945 6.61472 70.8591 6.46799 70.7487 6.34571C70.6383 6.22955 70.4972 6.14395 70.3377 6.08282C70.1782 6.02779 69.9881 5.99722 69.7734 5.99722C69.1968 5.99722 68.7735 6.20509 68.4914 6.62083C68.2092 7.03657 68.0743 7.67853 68.0743 8.54058C68.0743 9.476 68.2276 10.1485 68.5405 10.5581C68.8533 10.9617 69.2949 11.1818 69.8593 11.2062C70.0862 11.2184 70.2948 11.1818 70.4972 11.1023C70.6996 11.0228 70.8652 10.8822 70.9879 10.6865C71.1167 10.4909 71.1719 10.2402 71.1658 9.92231H73.6009C73.6193 10.5826 73.4783 11.1634 73.1838 11.6586C72.8894 12.16 72.4539 12.5452 71.8835 12.8264C71.313 13.1015 70.6199 13.2421 69.804 13.2421L69.8225 13.236Z" fill="var(--fill-0, white)"/>
<path d="M78.962 13.2054C78.091 13.2054 77.3365 13.0281 76.6986 12.6735C76.0607 12.3189 75.5638 11.7993 75.208 11.1084C74.8523 10.4175 74.6805 9.57382 74.6805 8.57115C74.6805 7.6235 74.8645 6.80425 75.2387 6.1195C75.6129 5.43475 76.122 4.90284 76.7722 4.53601C77.4224 4.16918 78.1646 3.98577 78.9927 3.98577C79.8882 3.98577 80.655 4.16918 81.2929 4.53601C81.9308 4.90284 82.4215 5.42863 82.7589 6.1195C83.0963 6.81036 83.2742 7.6235 83.2742 8.57115C83.2742 9.57382 83.084 10.4236 82.7098 11.1084C82.3295 11.7993 81.8204 12.3189 81.1702 12.6735C80.52 13.0281 79.784 13.2054 78.962 13.2054ZM78.9927 11.1023C79.4895 11.1023 79.9066 10.9189 80.2379 10.552C80.5691 10.1852 80.7408 9.52491 80.7408 8.57115C80.7408 7.68464 80.5691 7.0488 80.2195 6.66363C79.8698 6.27846 79.4527 6.08893 78.9681 6.08893C78.4835 6.08893 78.0542 6.27846 77.7229 6.66363C77.3917 7.0488 77.22 7.68464 77.22 8.57115C77.22 9.45766 77.3979 10.1363 77.7475 10.5276C78.0971 10.9128 78.5142 11.1084 78.9927 11.1084V11.1023Z" fill="var(--fill-0, white)"/>
<path d="M84.8935 13.0832V0.311346H87.4514V13.0832H84.8935Z" fill="var(--fill-0, white)"/>
<path d="M108.368 5.0618C107.736 3.33159 106.105 2.1027 104.191 2.1027C101.725 2.1027 99.7315 4.14473 99.7315 6.66363C99.7315 7.26279 99.848 7.83137 100.05 8.35105C97.7747 8.15541 95.4193 7.59905 96.0204 6.11339C96.9037 3.93686 104.344 0.421396 110.558 0.231867C102.492 -1.02147 91.5672 3.05035 91.4936 6.58415C91.4384 9.13362 96.6216 9.15197 100.277 8.85239C101.038 10.2647 102.504 11.2246 104.191 11.2246C106.651 11.2246 108.65 9.18253 108.65 6.66363C108.65 6.27234 108.601 5.88718 108.509 5.52646C110.668 5.67319 112.76 6.16841 112.239 7.59294C111.429 9.80003 104.074 12.7836 97.8667 13.1993C103.418 14.8684 117.078 12.0927 116.998 7.45232C116.956 4.86616 112.048 4.77446 108.362 5.06792L108.368 5.0618Z" fill="var(--fill-0, white)"/>
</g>
</svg>
