<svg width="107" height="121" viewBox="0 0 107 121" fill="none" xmlns="http://www.w3.org/2000/svg">
<g clip-path="url(#clip0_892_6337)">
<mask id="mask0_892_6337" style="mask-type:luminance" maskUnits="userSpaceOnUse" x="13" y="19" width="80" height="102">
<path d="M60.4262 20.6611L37.9535 43.1625L34.3263 53.3709C33.9803 54.3417 32.5306 53.8891 32.7931 52.8944L35.3047 43.4365C36.2771 39.8034 34.1235 36.069 30.4904 35.0923C26.8573 34.1215 23.1287 36.2775 22.1563 39.9106L14.7529 67.5817C12.0087 76.4321 14.1324 86.4678 21.1302 93.472C28.0087 100.363 37.8163 102.531 46.5441 99.9937V119.559C46.5441 120.351 47.1824 120.994 47.9758 120.994H70.2517C71.7551 120.994 72.2502 118.957 70.908 118.284C66.4874 116.087 60.5038 114.639 53.8341 114.371V96.5452C55.1406 95.6518 56.3875 94.6334 57.5448 93.472L59.6089 91.4053L63.2301 87.7781L90.4754 60.5061C92.5634 58.4156 92.5634 55.0207 90.4754 52.9302L90.2845 52.7396C88.1965 50.6491 84.808 50.6491 82.7141 52.7396L66.3681 69.1064C66.0101 69.4637 65.4255 69.4637 65.0675 69.1064C64.7096 68.749 64.7096 68.1654 65.0675 67.808L86.2875 46.5633C88.3755 44.4728 88.3755 41.0779 86.2875 38.9874L86.0966 38.7968C84.0086 36.7063 80.6141 36.7063 78.5261 38.7968L57.3062 60.0415C56.9482 60.3989 56.3636 60.3989 56.0057 60.0415C55.6477 59.6842 55.6477 59.1005 56.0057 58.7431L82.2249 32.4955C84.3129 30.405 84.3129 27.0101 82.2249 24.9196L82.034 24.729C79.946 22.6385 76.5575 22.6385 74.4635 24.729L48.2443 50.9766C47.8863 51.334 47.3017 51.334 46.9438 50.9766C46.5858 50.6193 46.5858 50.0356 46.9438 49.6783L68.1637 28.4336C70.2517 26.3431 70.2517 22.9482 68.1637 20.8577L67.9728 20.6671C66.9288 19.6188 65.5567 19.0947 64.1906 19.0947C62.8244 19.0947 61.4523 19.6188 60.4083 20.6671" fill="white"/>
</mask>
<g mask="url(#mask0_892_6337)">
<mask id="mask1_892_6337" style="mask-type:luminance" maskUnits="userSpaceOnUse" x="-5" y="6" width="115" height="129">
<mask id="mask2_892_6337" style="mask-type:luminance" maskUnits="userSpaceOnUse" x="-5" y="6" width="115" height="129">
<path d="M90.3956 6.05596L-4.54004 21.8486L14.1849 134.042L109.121 118.249L90.3956 6.05596Z" fill="white"/>
</mask>
<g mask="url(#mask2_892_6337)">
<path d="M106.056 -12.3445L-25.3291 9.51147L-1.47316 152.448L129.912 130.592L106.056 -12.3445Z" fill="url(#paint0_linear_892_6337)"/>
</g>
</mask>
<g mask="url(#mask1_892_6337)">
<path d="M90.3956 6.05596L-4.54004 21.8486L14.1849 134.042L109.121 118.249L90.3956 6.05596Z" fill="white"/>
</g>
</g>
<mask id="mask3_892_6337" style="mask-type:luminance" maskUnits="userSpaceOnUse" x="0" y="5" width="54" height="54">
<path d="M24.5069 27.2423L5.88196 8.59439L18.6366 29.2852L0.0117188 29.7914L19.1497 32.6026L13.0289 42.5668L23.6597 34.4668L27.0602 58.9158L27.8238 34.3894L42.3682 41.2863L27.794 29.6247L53.5956 28.0047L28.2951 26.9207L32.4174 5.01489L24.5069 27.2423Z" fill="white"/>
</mask>
<g mask="url(#mask3_892_6337)">
<mask id="mask4_892_6337" style="mask-type:luminance" maskUnits="userSpaceOnUse" x="0" y="5" width="54" height="54">
<path d="M53.5956 5.01489H0.0117188V58.9098H53.5956V5.01489Z" fill="url(#paint1_radial_892_6337)"/>
</mask>
<g mask="url(#mask4_892_6337)">
<path d="M53.5956 5.01489H0.0117188V58.9098H53.5956V5.01489Z" fill="url(#paint2_radial_892_6337)"/>
</g>
</g>
<path d="M80.471 52.3224L80.2801 52.1318C78.1921 50.0413 74.7976 50.0413 72.7096 52.1318L56.3636 68.4986C56.0057 68.856 55.421 68.856 55.0631 68.4986C54.7051 68.1413 54.7051 67.5576 55.0631 67.2003L76.2831 45.9556C78.3711 43.8651 78.3711 40.4702 76.2831 38.3797L76.0922 38.1891C74.0042 36.0986 70.6157 36.0986 68.5217 38.1891L47.3017 59.4338C46.9438 59.7911 46.3591 59.7911 46.0012 59.4338C45.6433 59.0764 45.6433 58.4927 46.0012 58.1354L72.2204 31.8878C74.3084 29.7972 74.3084 26.4024 72.2204 24.3119L72.0295 24.1213C69.9415 22.0307 66.553 22.0307 64.4591 24.1213L38.2398 50.3689C37.8819 50.7263 37.2972 50.7263 36.9393 50.3689C36.5814 50.0115 36.5814 49.4279 36.9393 49.0705L58.1593 27.8258C60.2473 25.7353 60.2473 22.3405 58.1593 20.2499L57.9684 20.0593C55.8804 17.9688 52.4919 17.9688 50.3979 20.0593L27.9251 42.5607L24.298 52.7691C23.952 53.7399 22.5023 53.2873 22.7648 52.2927L25.2764 42.8347C26.2488 39.2016 24.0952 35.4672 20.4621 34.4905C16.8349 33.5137 13.1004 35.6757 12.128 39.3088L4.72456 66.9799C1.98034 75.8304 4.10413 85.866 11.1019 92.8702C12.7544 94.5259 14.5799 95.9017 16.5187 97.0155V119.57C16.5187 120.363 17.1571 121.006 17.9505 121.006H40.2264C41.7298 121.006 42.2249 118.969 40.8826 118.296C36.4621 116.098 30.4785 114.657 23.8088 114.389V99.8207C32.0892 101.625 41.0795 99.3145 47.5165 92.8702L49.5806 90.8035L53.2018 87.1763L80.4471 59.9043C82.5351 57.8138 82.5351 54.4189 80.4471 52.3284" fill="#1E1446"/>
<path d="M41.2644 75.4492C41.2644 82.0662 35.9072 87.4265 29.2973 87.4265C22.6873 87.4265 17.3301 82.0603 17.3301 75.4492C17.3301 68.8382 22.6873 63.4719 29.2973 63.4719C35.9072 63.4719 41.2644 68.8382 41.2644 75.4492Z" fill="white"/>
<path d="M35.3766 75.4494C35.3766 78.8085 32.6563 81.5303 29.3035 81.5303C25.9508 81.5303 23.2305 78.8085 23.2305 75.4494C23.2305 72.0903 25.9508 69.3684 29.3035 69.3684C32.6563 69.3684 35.3766 72.0903 35.3766 75.4494Z" fill="#1E1446"/>
<path d="M36.9095 71.298C36.9095 72.7989 35.6925 74.0199 34.1891 74.0199C32.6858 74.0199 31.4688 72.7989 31.4688 71.298C31.4688 69.7971 32.6858 68.5762 34.1891 68.5762C35.6925 68.5762 36.9095 69.7971 36.9095 71.298Z" fill="white"/>
<mask id="mask5_892_6337" style="mask-type:luminance" maskUnits="userSpaceOnUse" x="63" y="0" width="44" height="44">
<path d="M84.8672 15.3781L76.8791 10.4586L83.3757 18.9993L63.7725 21.7331L83.4354 22.3465L77.9052 34.038L87.2594 22.3227L88.554 43.0552L89.4249 22.7217L106.988 26.0392L89.1684 19.6842L104.124 4.71707L87.5338 14.9672L87.1222 0L84.8672 15.3781Z" fill="white"/>
</mask>
<g mask="url(#mask5_892_6337)">
<mask id="mask6_892_6337" style="mask-type:luminance" maskUnits="userSpaceOnUse" x="63" y="0" width="44" height="44">
<path d="M106.988 0H63.7725V43.0552H106.988V0Z" fill="url(#paint3_radial_892_6337)"/>
</mask>
<g mask="url(#mask6_892_6337)">
<path d="M106.988 0H63.7725V43.0552H106.988V0Z" fill="url(#paint4_radial_892_6337)"/>
</g>
</g>
</g>
<defs>
<linearGradient id="paint0_linear_892_6337" x1="9.17639" y1="77.5799" x2="62.5623" y2="68.6698" gradientUnits="userSpaceOnUse">
<stop stop-color="white"/><stop offset="1"/>
</linearGradient>
<radialGradient id="paint1_radial_892_6337" cx="0" cy="0" r="1" gradientUnits="userSpaceOnUse" gradientTransform="translate(24.1039 32.6264) rotate(-90) scale(26.8849 26.8576)">
<stop stop-color="white"/><stop offset="0.02" stop-color="white"/><stop offset="1"/>
</radialGradient>
<radialGradient id="paint2_radial_892_6337" cx="0" cy="0" r="1" gradientUnits="userSpaceOnUse" gradientTransform="translate(24.1039 32.6264) rotate(-90) scale(26.8849 26.8576)">
<stop stop-color="#77EDED"/><stop offset="0.02" stop-color="#77EDED"/><stop offset="1" stop-color="#77EDED"/>
</radialGradient>
<radialGradient id="paint3_radial_892_6337" cx="0" cy="0" r="1" gradientUnits="userSpaceOnUse" gradientTransform="translate(82.0346 25.3259) scale(21.56 21.5782)">
<stop stop-color="white"/><stop offset="0.02" stop-color="white"/><stop offset="1"/>
</radialGradient>
<radialGradient id="paint4_radial_892_6337" cx="0" cy="0" r="1" gradientUnits="userSpaceOnUse" gradientTransform="translate(82.0406 25.3378) scale(21.56 21.5782)">
<stop stop-color="#77EDED"/><stop offset="0.02" stop-color="#77EDED"/><stop offset="1" stop-color="#77EDED"/>
</radialGradient>
<clipPath id="clip0_892_6337">
<rect width="107" height="121" fill="white"/>
</clipPath>
</defs>
</svg>
