<svg preserveAspectRatio="none" width="100%" height="100%" overflow="visible" style="display: block;" viewBox="0 0 453.459 426.4" fill="none" xmlns="http://www.w3.org/2000/svg">
<g id="c">
<path id="Vector" d="M448.81 242.152L448.804 242.158C444.846 234.298 436.842 226.872 425.488 220.101L424.364 219.359C414.099 212.545 410.791 207.483 410.539 202.364C422.79 183.237 429.892 160.502 429.892 136.109V123.064C429.892 55.0968 374.763 0 306.755 0H287.415C219.408 0 164.277 55.0968 164.277 123.062V136.107C164.277 149.736 166.507 162.842 170.602 175.095C170.493 174.972 170.424 174.891 170.424 174.891C174.38 185.222 164.652 185.605 164.652 185.605C164.683 185.621 164.711 185.635 164.741 185.651C130.353 188.981 99.4889 194.893 74.3845 202.689C73.771 202.15 73.1575 201.62 72.55 201.107C51.8615 183.675 32.2628 177.957 20.3454 181.386C8.2705 184.857 -1.0697 199.223 0.0988318 223.322C1.6811 255.924 24.2546 313.157 55.5023 347.985C67.1836 363.203 94.292 391.244 145.336 409.345C147.588 410.194 149.879 410.968 152.204 411.662C179.428 420.462 213.01 426.4 254.127 426.4C292.418 426.4 323.692 421.771 349.138 413.467C364.728 409.976 378.983 402.961 391.029 393.306C409.373 380.748 422.664 365.135 432.041 347.382L432.045 347.4C432.045 347.4 449.704 316.714 452.703 284.062C455.702 251.41 448.812 242.154 448.812 242.154L448.81 242.152Z" fill="url(#paint0_linear_0_17)"/>
<path id="Vector_2" opacity="0.38" d="M410.539 202.362C410.539 202.362 377.091 240.623 244.942 227.511C244.942 227.511 409.269 274.345 428.467 221.944C428.467 221.944 410.202 211.759 410.539 202.362Z" fill="url(#paint1_linear_0_17)"/>
<path id="Vector_3" opacity="0.38" d="M170.6 175.095C170.6 175.095 206.513 231.259 302.111 221.892C302.111 221.892 237.755 243.122 142.638 188.209C142.638 188.209 159.411 186.349 162.892 185.833C166.374 185.317 174.031 185.155 170.598 175.095H170.6Z" fill="url(#paint2_linear_0_17)"/>
</g>
<defs>
<linearGradient id="paint0_linear_0_17" x1="230.492" y1="22.8661" x2="220.403" y2="617.231" gradientUnits="userSpaceOnUse">
<stop stop-color="#672AC3"/>
<stop offset="0.96" stop-color="#1E1446"/>
</linearGradient>
<linearGradient id="paint1_linear_0_17" x1="244.942" y1="224.564" x2="428.467" y2="224.564" gradientUnits="userSpaceOnUse">
<stop stop-color="#8232F0" stop-opacity="0"/>
<stop offset="0.96" stop-color="#1E1446"/>
</linearGradient>
<linearGradient id="paint2_linear_0_17" x1="263.106" y1="229.54" x2="151.641" y2="162.434" gradientUnits="userSpaceOnUse">
<stop stop-color="#8232F0" stop-opacity="0"/>
<stop offset="0.96" stop-color="#1E1446"/>
</linearGradient>
</defs>
</svg>
