<svg preserveAspectRatio="none" width="100%" height="100%" overflow="visible" style="display: block;" viewBox="0 0 90.5079 90.6979" fill="none" xmlns="http://www.w3.org/2000/svg">
<g id="j">
<path id="Vector" d="M45.254 90.6979C70.247 90.6979 90.5079 70.3945 90.5079 45.3489C90.5079 20.3034 70.247 0 45.254 0C20.2609 0 0 20.3034 0 45.3489C0 70.3945 20.2609 90.6979 45.254 90.6979Z" fill="var(--fill-0, white)"/>
<path id="Vector_2" d="M44.7292 72.8116C59.7153 72.8116 71.8639 60.6381 71.8639 45.6212C71.8639 30.6044 59.7153 18.4308 44.7292 18.4308C29.7432 18.4308 17.5946 30.6044 17.5946 45.6212C17.5946 60.6381 29.7432 72.8116 44.7292 72.8116Z" fill="var(--fill-0, #1E1446)"/>
<path id="Vector_3" d="M66.5721 39.2154C73.281 39.2154 78.7197 33.7657 78.7197 27.0432C78.7197 20.3206 73.281 14.8709 66.5721 14.8709C59.8633 14.8709 54.4246 20.3206 54.4246 27.0432C54.4246 33.7657 59.8633 39.2154 66.5721 39.2154Z" fill="var(--fill-0, white)"/>
</g>
</svg>
