<svg preserveAspectRatio="none" width="100%" height="100%" overflow="visible" style="display: block;" viewBox="0 0 80.871 150.455" fill="none" xmlns="http://www.w3.org/2000/svg">
<g id="b">
<path id="Vector" d="M2.54618 141.727C16.7522 134.653 43.1886 130.004 64.6279 129.139V0H80.8703V133.986V141.704V145.829C80.8703 148.376 78.8097 150.44 76.2688 150.44H4.65317C-0.176367 150.44 -1.77681 143.879 2.54819 141.725L2.54618 141.727Z" fill="var(--fill-0, #FF9D00)"/>
<path id="Vector_2" d="M64.6278 129.137C64.6278 129.137 80.9934 133.056 80.8703 145.829C80.8703 145.829 80.4545 150.44 76.2688 150.44C72.0831 150.44 4.65316 150.44 4.65316 150.44C4.65316 150.44 0.112223 150.962 0.0355316 145.924C0.0355316 145.924 -0.495253 143.124 2.54617 141.727C5.58759 140.327 26.7524 129.673 64.6278 129.139V129.137Z" fill="var(--fill-0, #FF9D00)"/>
</g>
</svg>
