<svg preserveAspectRatio="none" width="100%" height="100%" overflow="visible" style="display: block;" viewBox="0 0 48 48" fill="none" xmlns="http://www.w3.org/2000/svg">
<path id="Vector" d="M40.9706 7.02937C36.6279 2.6866 30.6277 0 24.0006 0C17.3735 0 11.3721 2.6866 7.02937 7.02937C2.6866 11.3721 0 17.3735 0 24.0006C0 30.6277 2.6866 36.6279 7.02937 40.9706C11.3721 45.3134 17.3735 48 24.0006 48C37.2548 48 48 37.2548 48 24.0006C48 17.3735 45.3134 11.3721 40.9706 7.02937ZM31.1109 22.1379L30.7111 25.3487C30.6434 25.8863 30.1892 26.2886 29.6504 26.2886H24.4512V39.7131C23.9015 39.7626 23.3459 39.788 22.7841 39.788C21.529 39.788 20.3017 39.6624 19.1166 39.4232V26.2886H15.1169C14.7497 26.2886 14.4501 25.9878 14.4501 25.6193V21.6027C14.4501 21.2343 14.7497 20.9335 15.1169 20.9335H19.1166V14.908C19.1166 11.2103 22.1016 8.212 25.7836 8.212H30.4513C30.8174 8.212 31.1169 8.514 31.1169 8.88124V12.8991C31.1169 13.2675 30.8174 13.5683 30.4513 13.5683H27.1173C25.6447 13.5683 24.4512 14.7666 24.4512 16.2464V20.9335H30.0503C30.6941 20.9335 31.1906 21.4988 31.1109 22.1379Z" fill="var(--fill-0, #77EDED)"/>
</svg>
