<svg preserveAspectRatio="none" width="100%" height="100%" overflow="visible" style="display: block;" viewBox="0 0 48 48.0012" fill="none" xmlns="http://www.w3.org/2000/svg">
<path id="Vector" d="M40.9706 7.02937C36.6279 2.6866 30.6277 0 24.0006 0C17.3735 0 11.3721 2.6866 7.02937 7.02937C2.6866 11.3733 0 17.3723 0 24.0006C0 30.6289 2.6866 36.6279 7.02937 40.9718C11.3721 45.3146 17.3735 48.0012 24.0006 48.0012C37.2548 48.0012 48 37.256 48 24.0006C48 17.3723 45.3134 11.3733 40.9706 7.02937ZM35.4162 20.2002C35.4162 20.4587 35.2036 20.6713 34.9451 20.6641C30.0974 20.5264 28.7565 18.2928 28.7565 18.2928V29.7084C28.7565 34.1756 25.1361 37.796 20.6701 37.796C15.8997 37.796 12.0945 33.6646 12.6345 28.7855C13.0452 25.0866 16.029 22.0944 19.7267 21.6764C20.2268 21.6196 20.7197 21.6088 21.2005 21.639C21.4396 21.6547 21.622 21.8612 21.622 22.1016V25.4707C21.622 25.751 21.3756 25.9588 21.0978 25.9274C20.7825 25.8923 20.4563 25.8948 20.1241 25.9419C18.4474 26.175 17.0993 27.5509 16.8939 29.23C16.604 31.6086 18.5102 33.6211 20.855 33.51C22.9062 33.4134 24.4753 31.6267 24.4753 29.5731V10.6679C24.4753 10.413 24.6831 10.2064 24.938 10.2064H28.771C29.0174 10.2064 29.2313 10.3912 29.247 10.6365C29.4221 13.2808 31.2075 16.1643 34.9669 16.3769C35.2169 16.3914 35.4162 16.5895 35.4162 16.8396V20.2002Z" fill="var(--fill-0, #77EDED)"/>
</svg>
