<svg preserveAspectRatio="none" width="100%" height="100%" overflow="visible" style="display: block;" viewBox="0 0 48 48" fill="none" xmlns="http://www.w3.org/2000/svg">
<g id="Vector">
<path d="M40.9706 7.02937C36.6267 2.6866 30.6277 0 23.9994 0C17.3711 0 11.3721 2.6866 7.02937 7.02937C2.6866 11.3721 0 17.3735 0 24.0006C0 30.6277 2.6866 36.6279 7.02937 40.9706C11.3721 45.3134 17.3723 48 23.9994 48C37.2548 48 48 37.2548 48 24.0006C48 17.3735 45.3134 11.3721 40.9706 7.02937ZM38.0436 30.4695C38.0436 32.5134 36.3863 34.1696 34.3435 34.1696H13.6577C11.6137 34.1696 9.95636 32.5134 9.95636 30.4695V17.5305C9.95636 15.4878 11.6137 13.8304 13.6577 13.8304H34.3435C36.3863 13.8304 38.0436 15.4878 38.0436 17.5305V30.4695Z" fill="var(--fill-0, #77EDED)"/>
<path d="M27.3226 24.8933L21.5713 27.7672C20.9069 28.0994 20.1253 27.6174 20.1253 26.8757V21.1256C20.1253 20.3838 20.9069 19.9019 21.5713 20.2328L27.3226 23.1091C28.0583 23.4751 28.0583 24.5249 27.3226 24.8933Z" fill="var(--fill-0, #77EDED)"/>
</g>
</svg>
