<svg preserveAspectRatio="none" width="100%" height="100%" overflow="visible" style="display: block;" viewBox="0 0 24 24" fill="none" xmlns="http://www.w3.org/2000/svg">
<g id="tv 1">
<path id="Vector" d="M3.6 6V15H20.4V6H3.6ZM1.2 6C1.2 4.67625 2.27625 3.6 3.6 3.6H20.4C21.7238 3.6 22.8 4.67625 22.8 6V15C22.8 16.3238 21.7238 17.4 20.4 17.4H3.6C2.27625 17.4 1.2 16.3238 1.2 15V6ZM7.2 19.2H16.8C17.4638 19.2 18 19.7363 18 20.4C18 21.0638 17.4638 21.6 16.8 21.6H7.2C6.53625 21.6 6 21.0638 6 20.4C6 19.7363 6.53625 19.2 7.2 19.2Z" fill="var(--fill-0, #77EDED)"/>
</g>
</svg>
