<svg preserveAspectRatio="none" width="100%" height="100%" overflow="visible" style="display: block;" viewBox="0 0 40 40" fill="none" xmlns="http://www.w3.org/2000/svg">
<g id="Home Caracol Medios - 8">
<rect width="40" height="40" rx="20" fill="var(--fill-0, #003381)"/>
<path id="Vector" d="M11.1145 22.2214C10.9043 22.2221 10.6982 22.1632 10.5202 22.0514C10.3422 21.9397 10.1995 21.7797 10.1088 21.5901C10.0181 21.4005 9.98301 21.1891 10.0077 20.9804C10.0323 20.7716 10.1157 20.5742 10.2481 20.411L21.244 9.08191C21.3265 8.98671 21.4389 8.92237 21.5627 8.89946C21.6866 8.87656 21.8146 8.89644 21.9256 8.95586C22.0367 9.01527 22.1243 9.11068 22.174 9.22642C22.2237 9.34217 22.2326 9.47138 22.1992 9.59283L20.0666 16.2792C20.0038 16.4475 19.9826 16.6285 20.0051 16.8068C20.0276 16.985 20.0929 17.1552 20.1956 17.3026C20.2982 17.45 20.4351 17.5704 20.5945 17.6533C20.7539 17.7362 20.931 17.7792 21.1107 17.7786H28.8855C29.0957 17.7779 29.3018 17.8368 29.4798 17.9486C29.6578 18.0603 29.8005 18.2203 29.8912 18.4099C29.9819 18.5995 30.017 18.8109 29.9923 19.0196C29.9677 19.2284 29.8843 19.4258 29.7519 19.589L18.756 30.9181C18.6735 31.0133 18.5611 31.0776 18.4373 31.1005C18.3134 31.1234 18.1854 31.1036 18.0744 31.0441C17.9633 30.9847 17.8757 30.8893 17.826 30.7736C17.7763 30.6578 17.7674 30.5286 17.8008 30.4072L19.9334 23.7208C19.9962 23.5525 20.0174 23.3715 19.9949 23.1932C19.9724 23.015 19.9071 22.8448 19.8044 22.6974C19.7018 22.55 19.5649 22.4296 19.4055 22.3467C19.2461 22.2638 19.069 22.2208 18.8893 22.2214H11.1145Z" stroke="var(--stroke-0, white)" stroke-width="1.5" stroke-linecap="round" stroke-linejoin="round"/>
</g>
</svg>
