<svg preserveAspectRatio="none" width="100%" height="100%" overflow="visible" style="display: block;" viewBox="0 0 40 40" fill="none" xmlns="http://www.w3.org/2000/svg">
<g id="Home Caracol Medios - 8">
<rect width="40" height="40" rx="20" fill="var(--fill-0, #003381)"/>
<path id="Vector" d="M15.2455 22.7967H14.1964C13.0834 22.7967 12.0161 23.2388 11.2291 24.0258C10.4421 24.8127 10 25.8801 10 26.993V29.0912M23.6917 20.2956C23.761 20.083 23.8965 19.8981 24.0783 19.7679C24.2601 19.6377 24.4787 19.569 24.7023 19.5718C24.9259 19.5746 25.1428 19.6488 25.3213 19.7835C25.4997 19.9183 25.6305 20.1065 25.6944 20.3208L26.4676 21.8441C26.5428 21.9922 26.6522 22.1203 26.7866 22.2179C26.921 22.3154 27.0767 22.3797 27.2408 22.4054L28.955 22.6739C29.1757 22.6748 29.3906 22.7453 29.569 22.8753C29.7473 23.0053 29.8801 23.1883 29.9485 23.3982C30.0168 23.6081 30.0172 23.8342 29.9496 24.0444C29.882 24.2545 29.7498 24.4379 29.5719 24.5686L28.3423 25.7939C28.2246 25.9111 28.1364 26.0546 28.085 26.2125C28.0335 26.3705 28.0204 26.5384 28.0465 26.7024L28.3182 28.3946C28.393 28.6067 28.3976 28.8372 28.3314 29.0521C28.2652 29.2671 28.1317 29.455 27.9506 29.5883C27.7694 29.7216 27.5503 29.7932 27.3254 29.7924C27.1005 29.7917 26.8818 29.7187 26.7016 29.5843L25.1646 28.7975C25.0166 28.7216 24.8526 28.6821 24.6862 28.6821C24.5199 28.6821 24.3559 28.7216 24.2079 28.7975L22.6709 29.5843C22.4907 29.7176 22.2725 29.7897 22.0483 29.79C21.824 29.7902 21.6057 29.7186 21.4251 29.5857C21.2445 29.4528 21.1113 29.2655 21.045 29.0514C20.9786 28.8372 20.9826 28.6074 21.0564 28.3957L21.3271 26.7035C21.3532 26.5395 21.34 26.3715 21.2886 26.2136C21.2371 26.0557 21.1489 25.9122 21.0312 25.795L19.8185 24.5854C19.6345 24.4579 19.4961 24.275 19.4235 24.0633C19.3509 23.8516 19.3479 23.6223 19.415 23.4088C19.482 23.1953 19.6155 23.0088 19.7961 22.8766C19.9767 22.7444 20.1948 22.6734 20.4185 22.6739L22.1317 22.4054C22.2958 22.3797 22.4515 22.3154 22.5859 22.2179C22.7203 22.1203 22.8296 21.9922 22.9049 21.8441L23.6917 20.2956ZM21.54 14.4039C21.54 16.7215 19.6612 18.6003 17.3436 18.6003C15.0261 18.6003 13.1473 16.7215 13.1473 14.4039C13.1473 12.0863 15.0261 10.2076 17.3436 10.2076C19.6612 10.2076 21.54 12.0863 21.54 14.4039Z" stroke="var(--stroke-0, white)" stroke-width="1.5" stroke-linecap="round" stroke-linejoin="round"/>
</g>
</svg>
