<svg preserveAspectRatio="none" width="100%" height="100%" overflow="visible" style="display: block;" viewBox="0 0 40 40" fill="none" xmlns="http://www.w3.org/2000/svg">
<g id="Home Caracol Medios - 8">
<rect width="40" height="40" rx="20" fill="var(--fill-0, #561BDB)"/>
<path id="Vector" d="M10 20C10 21.9778 10.5865 23.9112 11.6853 25.5557C12.7841 27.2002 14.3459 28.4819 16.1732 29.2388C18.0004 29.9957 20.0111 30.1937 21.9509 29.8078C23.8907 29.422 25.6725 28.4696 27.0711 27.0711C28.4696 25.6725 29.422 23.8907 29.8078 21.9509C30.1937 20.0111 29.9957 18.0004 29.2388 16.1732C28.4819 14.3459 27.2002 12.7841 25.5557 11.6853C23.9112 10.5865 21.9778 10 20 10C17.2044 10.0105 14.5211 11.1014 12.5111 13.0444L10 15.5556M15.5556 15.5556L10 15.5556V10M20 14.4444V20L24.4444 22.2222" stroke="var(--stroke-0, white)" stroke-width="1.5" stroke-linecap="round" stroke-linejoin="round"/>
</g>
</svg>
