<svg width="241" height="32" viewBox="0 0 241 32" fill="none" xmlns="http://www.w3.org/2000/svg">
<path d="M20.5004 20.7138C22.2644 24.0142 25.6928 26.2619 29.6333 26.2619C35.3805 26.2619 40.0324 21.482 40.0324 15.5925C40.0324 14.6679 39.9186 13.7716 39.7052 12.9181C44.7411 13.2595 49.6205 14.426 48.3971 17.7549C46.5193 22.9188 29.3488 29.9037 14.8812 30.871C27.8266 34.7689 59.6924 28.2819 59.5075 17.4277C59.4079 11.3817 47.9703 11.1541 39.3638 11.8369C37.8843 7.78259 34.086 4.90898 29.6191 4.90898C23.8719 4.90898 19.22 9.68885 19.22 15.5783C19.22 16.9724 19.4903 18.3097 19.9598 19.5331C14.6536 19.0779 9.14819 17.7691 10.5708 14.298C12.6335 9.2194 29.9747 0.996894 44.4708 0.541669C25.6501 -2.38884 0.185945 7.14243 0.00100953 15.4076C-0.127023 21.3682 11.9507 21.4251 20.5004 20.7138Z" fill="white"/>
<path d="M83.1934 21.8661L84.9289 7.73992L86.6218 21.8661H83.1934ZM87.6318 30.1455H91.8L87.831 1.83621H82.2403L78.2997 30.1455H82.1976L82.7097 25.7071H87.077L87.6318 30.1455Z" fill="white"/>
<path d="M97.7606 5.71985H99.8091C100.876 5.71985 101.388 6.24621 101.388 7.32737V13.3022C101.388 14.4687 100.833 15.0377 99.6526 15.0377H97.7606V5.70563V5.71985ZM99.6526 18.8076C100.876 18.8076 101.417 19.3766 101.417 20.6285V30.1598H105.627V20.5431C105.627 18.4093 104.916 17.3139 103.181 16.8302C104.717 16.19 105.585 14.9666 105.585 12.4629V7.14243C105.585 3.62866 103.892 1.89312 100.463 1.89312H93.5355V30.1598H97.7464V18.8076H99.6526Z" fill="white"/>
<path d="M112.157 21.8661L113.893 7.73992L115.585 21.8661H112.157ZM111.204 1.83621L107.263 30.1455H111.161L111.673 25.7071H116.041L116.596 30.1455H120.764L116.795 1.83621H111.204Z" fill="white"/>
<path d="M130.309 24.9389C130.309 26.0627 129.797 26.5891 128.73 26.5891H127.948C126.838 26.5891 126.34 26.0627 126.34 24.9389V7.08553C126.34 5.96169 126.852 5.43534 127.948 5.43534H128.659C129.726 5.43534 130.238 5.96169 130.238 7.08553V12.6194H134.378V6.84369C134.378 3.32992 132.728 1.63705 129.299 1.63705H127.251C123.822 1.63705 122.129 3.3726 122.129 6.88637V25.138C122.129 28.6518 123.822 30.3874 127.251 30.3874H129.342C132.77 30.3874 134.463 28.6518 134.463 25.138V18.5515H130.338V24.9247L130.309 24.9389Z" fill="white"/>
<path d="M144.99 24.9389C144.99 26.0627 144.478 26.5891 143.411 26.5891H142.543C141.448 26.5891 140.936 26.0627 140.936 24.9389V7.08553C140.936 5.96169 141.448 5.43534 142.543 5.43534H143.411C144.478 5.43534 144.99 5.96169 144.99 7.08553V24.9389ZM144.08 1.63705H141.832C138.404 1.63705 136.711 3.3726 136.711 6.88637V25.138C136.711 28.6518 138.404 30.3874 141.832 30.3874H144.08C147.508 30.3874 149.201 28.6518 149.201 25.138V6.88637C149.201 3.3726 147.508 1.63705 144.08 1.63705Z" fill="white"/>
<path d="M151.491 1.87889V30.1455H160.34V26.2334H155.702V1.87889H151.491Z" fill="white"/>
<path d="M76.9767 12.6194V6.84369C76.9767 3.32992 75.3265 1.63705 71.8981 1.63705H69.8496C66.4212 1.63705 64.7283 3.3726 64.7283 6.88637V25.138C64.7283 28.6518 66.4212 30.3874 69.8496 30.3874H71.9408C75.3692 30.3874 77.0621 28.6518 77.0621 25.138V18.5515H72.9224V24.9389C72.9224 26.0627 72.4102 26.5891 71.3433 26.5891H70.5609C69.4513 26.5891 68.9392 26.0627 68.9392 24.9389V7.08553C68.9392 5.94747 69.4513 5.43534 70.5609 5.43534H71.2722C72.3391 5.43534 72.8512 5.96169 72.8512 7.08553V12.6194H76.9909H76.9767Z" fill="white"/>
<path d="M180.74 1.87889V30.1455H177.581V10.8127L173.029 30.1455H170.213L165.674 11.083V30.1455H162.63V1.87889H166.372L171.607 24.6117L176.998 1.87889H180.74Z" fill="#00ABFF"/>
<path d="M193.571 4.3115H187.468V14.7675H193.159V17.2001H187.468V27.7271H193.571V30.1455H184.367V1.87889H193.571V4.3115Z" fill="#00ABFF"/>
<path d="M200.713 27.6418C201.822 27.6418 202.533 27.2577 202.875 26.5037C203.216 25.7498 203.373 24.4125 203.373 22.5063V9.50391C203.373 7.59766 203.202 6.27466 202.846 5.50647C202.491 4.73827 201.78 4.3684 200.713 4.3684H198.678V27.6276H200.713V27.6418ZM200.713 1.87889C201.865 1.87889 202.832 2.07805 203.615 2.47638C204.397 2.8747 204.995 3.4295 205.393 4.16924C205.791 4.90898 206.076 5.6914 206.246 6.54495C206.417 7.3985 206.488 8.38007 206.488 9.50391V22.5205C206.488 23.6443 206.403 24.6401 206.246 25.4937C206.076 26.3472 205.805 27.1297 205.393 27.8836C204.995 28.6234 204.397 29.1924 203.615 29.5765C202.832 29.9606 201.865 30.1598 200.713 30.1598H195.591V1.87889H200.713Z" fill="#00ABFF"/>
<path d="M212.805 1.87889H209.703V30.1455H212.805V1.87889Z" fill="#00ABFF"/>
<path d="M219.647 26.9163C219.974 27.6845 220.657 28.0543 221.71 28.0543C222.763 28.0543 223.445 27.6702 223.744 26.9163C224.057 26.1623 224.199 24.8251 224.199 22.9046V9.11982C224.199 7.21356 224.043 5.89056 223.744 5.12237C223.431 4.3684 222.763 3.98431 221.71 3.98431C220.657 3.98431 219.974 4.3684 219.647 5.12237C219.32 5.87634 219.163 7.21356 219.163 9.11982V22.9188C219.163 24.8251 219.32 26.1623 219.647 26.9163ZM217.257 3.52908C218.097 2.16341 219.576 1.4948 221.696 1.4948C223.815 1.4948 225.295 2.16341 226.12 3.51486C226.945 4.86631 227.357 6.72988 227.357 9.11982V22.9188C227.357 25.2803 226.945 27.1439 226.106 28.5096C225.266 29.8752 223.801 30.5438 221.696 30.5438C219.59 30.5438 218.082 29.861 217.257 28.5096C216.418 27.1581 216.005 25.2945 216.005 22.9046V9.11982C216.005 6.75834 216.418 4.89476 217.257 3.52908Z" fill="#00ABFF"/>
<path d="M240.986 23.687C240.986 28.2677 239.094 30.5438 235.31 30.5438C233.133 30.5438 231.639 29.8041 230.843 28.3389C230.046 26.8736 229.776 24.6117 230.046 21.5532H233.162C232.977 23.9146 233.019 25.5933 233.304 26.5749C233.588 27.5564 234.257 28.0543 235.31 28.0543C236.234 28.0543 236.889 27.7129 237.273 27.0443C237.657 26.3615 237.856 25.3514 237.856 23.9858C237.856 23.4025 237.828 22.8619 237.785 22.4067C237.742 21.9515 237.629 21.4962 237.444 21.041C237.259 20.6 237.131 20.2586 237.045 20.0168C236.96 19.7749 236.732 19.4477 236.377 19.0352C236.007 18.6226 235.793 18.3523 235.694 18.2528C235.594 18.1532 235.295 17.8402 234.769 17.3281C234.243 16.816 233.93 16.503 233.83 16.4034C232.265 14.867 231.184 13.5014 230.573 12.3064C229.961 11.1114 229.662 9.67462 229.662 8.01021C229.662 3.67134 231.483 1.50902 235.139 1.50902C237.273 1.50902 238.71 2.23454 239.449 3.67134C240.189 5.10814 240.445 7.38427 240.232 10.4855H237.131C237.316 8.03866 237.287 6.36001 237.045 5.42111C236.803 4.48221 236.177 4.01276 235.182 4.01276C233.588 4.01276 232.806 5.22195 232.82 7.64033C232.82 9.14827 233.105 10.3859 233.688 11.3533C234.271 12.3206 235.324 13.5725 236.875 15.1089C238.411 16.5884 239.478 17.8971 240.09 19.021C240.701 20.1448 241 21.7096 241 23.7012" fill="#00ABFF"/>
</svg>
