<svg preserveAspectRatio="none" width="100%" height="100%" overflow="visible" style="display: block;" viewBox="0 0 140 92.2785" fill="none" xmlns="http://www.w3.org/2000/svg">
<g id="Vector">
<path d="M15.4196 23.3919V18.8217H15.4159V2.87626C15.4159 1.15273 15.1046 0.00741406 13.5923 0.00370754H13.5293C12.0319 0.0333597 11.7242 1.15644 11.7242 2.83178C11.7205 13.6993 11.7242 24.5705 11.7242 35.438C11.7242 35.8087 11.7316 36.209 11.7798 36.6019C11.8984 37.6064 12.5137 38.1623 13.5071 38.1623C13.5923 38.1623 13.6813 38.1586 13.7702 38.1512C15.4307 37.9993 15.4307 36.5537 15.427 35.8606C15.4196 31.7056 15.4196 27.4801 15.4196 23.3919Z" fill="var(--fill-0, white)"/>
<path d="M21.4019 6.21213C21.4019 4.68504 20.7199 3.8103 19.5302 3.8103H19.4968C18.8074 3.82142 17.6509 4.1513 17.6472 6.24549C17.6435 9.31078 17.6472 12.3798 17.6472 15.4451V22.6802C17.6472 25.7492 17.6472 28.922 17.6509 32.0429C17.6509 33.5663 18.2477 34.3224 19.4671 34.352C19.4931 34.352 19.5153 34.352 19.5376 34.352C20.7718 34.352 21.3982 33.5625 21.4019 32.0058C21.4094 23.44 21.4131 14.7594 21.4019 6.20472" fill="var(--fill-0, white)"/>
<path d="M7.68041 9.34414C7.64705 9.34414 7.6174 9.34414 7.58404 9.34414C6.38683 9.39232 5.8012 10.1522 5.79379 11.6755C5.78638 13.4139 5.78638 15.1782 5.79008 16.8869C5.79008 17.6208 5.79008 18.3547 5.79008 19.0923C5.79008 19.8299 5.79008 20.5378 5.79008 21.2606C5.79008 22.9804 5.78638 24.7559 5.79379 26.5053C5.7975 27.4764 5.99023 28.77 7.57662 28.8256C7.60998 28.8256 7.64334 28.8256 7.6767 28.8256C8.52179 28.8256 9.53367 28.4253 9.53737 26.5127C9.54849 21.42 9.54849 16.431 9.53737 11.6867C9.53367 10.1966 8.85537 9.34043 7.68041 9.34043" fill="var(--fill-0, white)"/>
<path d="M1.88711 16.0678C1.85005 16.0678 1.81669 16.0678 1.77963 16.0678C0.782571 16.1048 0.141344 16.7164 0.0264414 17.7357C-0.00691733 18.0396 0.000495994 18.3399 0.00790904 18.6327C0.00790904 18.7624 0.0153208 18.8921 0.0153208 19.0219C0.0153208 19.159 0.0116156 19.2999 0.00790904 19.437C0.000495994 19.7595 -0.0106246 20.0931 0.022734 20.4266C0.130223 21.4978 0.82705 22.1428 1.88711 22.1539H1.90935C2.91382 22.1539 3.61806 21.5089 3.6959 20.5119C3.77744 19.4926 3.77003 18.5104 3.67366 17.5874C3.57358 16.6349 2.90641 16.0641 1.88711 16.0641" fill="var(--fill-0, white)"/>
<path d="M50.9318 17.7579C52.9778 20.1857 54.0045 22.9137 54.0045 25.9308C53.9341 29.4001 52.748 32.306 50.4388 34.6486C48.1297 36.9911 45.3275 38.1623 42.0324 38.1623H28.3406C25.9091 38.1623 24.4895 37.5026 24.0706 36.1831C23.8631 35.5937 23.7593 34.6893 23.7593 33.4736V4.58126C23.7593 3.74729 23.7852 3.14313 23.8371 2.75765C23.889 2.37588 24.0521 1.92368 24.3301 1.40477C24.8157 0.467022 26.1685 0 28.3887 0H41.5061C44.6974 0 47.3698 1.11196 49.5233 3.33216C51.7806 5.58943 52.9074 8.29519 52.9074 11.4531C52.9074 13.7438 52.2476 15.8454 50.9281 17.7505M44.7864 25.4045C44.7864 24.5705 44.69 23.9108 44.501 23.4252C44.3082 22.9397 43.9895 22.5912 43.5373 22.3837C42.8442 22.1057 41.8731 21.9686 40.624 21.9686C39.3749 21.9686 38.4371 21.7276 37.8144 21.2421C37.188 20.7565 36.8767 19.7595 36.8767 18.2472C36.8767 16.7349 37.1991 15.7379 37.8404 15.2523C38.4816 14.7668 39.5491 14.5222 41.0428 14.5222C42.429 14.5222 43.263 14.1589 43.541 13.4287C43.6448 13.047 43.6967 12.4206 43.6967 11.5532C43.6967 10.6859 43.4113 10.078 42.8368 9.72962C42.266 9.38491 41.406 9.21071 40.2607 9.21071H32.9737V28.9405H41.5098C43.6967 28.9405 44.7901 27.7618 44.7901 25.4008" fill="var(--fill-0, white)"/>
<path d="M69.5682 38.1142C66.0618 38.1142 63.1559 36.7872 60.8504 34.1296C58.5413 31.4758 57.3886 28.24 57.3886 24.4223V15.3116C57.3886 14.4814 57.4145 13.8735 57.4664 13.488C57.5183 13.1063 57.6665 12.6541 57.9075 12.1351C58.393 11.1974 59.7459 10.7304 61.9698 10.7304C64.3976 10.7304 65.8209 11.3901 66.2397 12.7097C66.4473 13.2656 66.5511 14.1515 66.5511 15.3635V24.4742C66.5511 25.8975 66.9588 27.0094 67.7742 27.8063C68.5897 28.6032 69.6831 29.0035 71.0545 29.0035C72.4259 29.0035 73.5342 28.5884 74.3867 27.7544C75.2355 26.9205 75.6617 25.827 75.6617 24.4742V15.2597C75.6617 14.4628 75.6877 13.8624 75.7395 13.4621C75.7914 13.0618 75.9545 12.6022 76.2325 12.0833C76.681 11.1826 78.0191 10.7304 80.2393 10.7304C82.4595 10.7304 83.7605 11.1974 84.246 12.1351C84.4906 12.6541 84.6352 13.1174 84.6908 13.514C84.7427 13.9143 84.7686 14.511 84.7686 15.3116V33.7405C84.7686 34.504 84.7427 35.0859 84.6908 35.4862C84.6389 35.8865 84.4721 36.3276 84.1978 36.8132C83.6789 37.7138 82.3409 38.166 80.1874 38.166C78.0339 38.166 76.77 37.7509 76.2844 36.9169C75.936 36.3276 75.7655 35.616 75.7655 34.782C75.6246 35.0266 75.3133 35.3713 74.8277 35.8235C74.3422 36.2757 73.8715 36.6575 73.423 36.9688C72.2443 37.7324 70.9581 38.1142 69.5719 38.1142" fill="var(--fill-0, white)"/>
<path d="M97.886 14.4258C99.5169 11.9609 101.478 10.7304 103.768 10.7304C107.308 10.7304 109.943 12.2389 111.682 15.2597C112.063 14.7408 112.523 14.1923 113.061 13.6215C113.598 13.0507 114.458 12.4243 115.637 11.746C116.815 11.0677 118.031 10.7304 119.28 10.7304C122.056 10.7304 124.38 11.7979 126.256 13.9328C128.131 16.0678 129.065 19.6001 129.065 24.526V33.6367C129.065 34.4336 129.039 35.034 128.987 35.4343C128.936 35.8346 128.769 36.2943 128.494 36.8132C128.042 37.7509 126.708 38.2179 124.488 38.2179C122.267 38.2179 120.963 37.7324 120.477 36.7613C120.236 36.2424 120.088 35.779 120.036 35.3824C119.984 34.9821 119.958 34.3854 119.958 33.5848V24.4742C119.958 21.4533 118.883 19.9448 116.73 19.9448C115.514 19.9448 114.691 20.3451 114.258 21.142C113.824 21.9426 113.605 23.0694 113.605 24.526V33.6367C113.605 34.4706 113.579 35.0785 113.528 35.4603C113.476 35.8421 113.309 36.2943 113.035 36.8132C112.549 37.7509 111.196 38.2179 108.972 38.2179C106.748 38.2179 105.451 37.7324 104.965 36.7613C104.721 36.2424 104.576 35.779 104.524 35.3824C104.472 34.9821 104.447 34.3854 104.447 33.5848V24.4742C104.447 21.4533 103.372 19.9448 101.218 19.9448C99.0647 19.9448 98.0936 21.4533 98.0936 24.4742V33.6886C98.0936 34.4855 98.0676 35.0859 98.0157 35.4862C97.9638 35.8865 97.797 36.3461 97.5228 36.8651C97.0038 37.7694 95.6473 38.2179 93.4604 38.2179C91.2736 38.2179 89.9355 37.7509 89.45 36.8132C89.2053 36.2943 89.0608 35.8421 89.0089 35.4603C88.957 35.0785 88.9311 34.4706 88.9311 33.6367V15.3116C88.9311 14.5147 88.957 13.9143 89.0089 13.514C89.0608 13.1174 89.2239 12.6726 89.5019 12.187C90.0208 11.2493 91.255 10.7823 93.1973 10.7823C95.1395 10.7823 96.4071 11.0936 96.9964 11.72C97.5858 12.3427 97.8823 13.2471 97.8823 14.4258" fill="var(--fill-0, white)"/>
<path d="M124.573 61.3503V65.9242H124.577V81.8696C124.577 83.5932 124.888 84.7385 126.4 84.7422H126.463C127.961 84.7125 128.268 83.5895 128.268 81.9141C128.272 71.0466 128.268 60.1754 128.268 49.3078C128.268 48.9372 128.261 48.5369 128.213 48.144C128.094 47.1395 127.479 46.5836 126.486 46.5836C126.4 46.5836 126.311 46.5873 126.222 46.5947C124.562 46.7466 124.566 48.1922 124.566 48.8853C124.573 53.0403 124.573 57.2657 124.573 61.354" fill="var(--fill-0, white)"/>
<path d="M118.591 78.5338C118.591 80.0609 119.273 80.9356 120.462 80.9356H120.496C121.185 80.9245 122.342 80.5946 122.345 78.5004C122.349 75.4351 122.345 72.3661 122.345 69.3008V62.0657C122.345 58.9967 122.345 55.8239 122.342 52.703C122.342 51.1796 121.745 50.4235 120.525 50.3939C120.499 50.3939 120.477 50.3939 120.455 50.3939C119.221 50.3939 118.594 51.1833 118.591 52.7401C118.583 61.3059 118.583 69.9865 118.591 78.5412" fill="var(--fill-0, white)"/>
<path d="M132.316 75.398C132.349 75.398 132.379 75.398 132.412 75.398C133.609 75.3499 134.195 74.59 134.202 73.0666C134.21 71.3283 134.21 69.564 134.206 67.8553C134.206 67.1214 134.206 66.3875 134.206 65.6536C134.206 64.9308 134.206 64.2081 134.206 63.4816C134.206 61.7618 134.21 59.9863 134.202 58.2369C134.199 57.2657 134.006 55.9722 132.42 55.9166C132.386 55.9166 132.353 55.9166 132.32 55.9166C131.474 55.9166 130.463 56.3169 130.459 58.2294C130.448 63.3222 130.448 68.3112 130.459 73.0555C130.463 74.5455 131.141 75.4017 132.316 75.4017" fill="var(--fill-0, white)"/>
<path d="M138.109 68.6744C138.146 68.6744 138.18 68.6744 138.217 68.6744C139.214 68.6374 139.855 68.0258 139.974 67.0065C140.007 66.7025 140 66.4023 139.992 66.1095C139.988 65.9798 139.985 65.85 139.985 65.7203C139.985 65.5832 139.988 65.4423 139.992 65.3052C140 64.9827 140.011 64.6491 139.977 64.3155C139.87 63.2444 139.173 62.5994 138.113 62.5883H138.091C137.086 62.5883 136.382 63.2332 136.304 64.2303C136.223 65.2496 136.23 66.2318 136.326 67.1547C136.426 68.1073 137.094 68.6744 138.113 68.6744" fill="var(--fill-0, white)"/>
<path d="M51.321 58.9411C53.367 61.3726 54.3937 64.0969 54.3937 67.114C54.3233 70.5833 53.1372 73.4892 50.828 75.8317C48.5189 78.1742 45.7167 79.3455 42.4216 79.3455H28.7297C26.302 79.3455 24.8787 78.6857 24.4598 77.3662C24.2523 76.7769 24.1485 75.8725 24.1485 74.6567V45.7644C24.1485 44.9304 24.1744 44.3263 24.2263 43.9408C24.2782 43.559 24.4413 43.1068 24.7193 42.5879C25.2048 41.6502 26.5577 41.1832 28.7816 41.1832H41.899C45.0903 41.1832 47.7627 42.2951 49.9162 44.5153C52.1735 46.7726 53.3003 49.4783 53.3003 52.6363C53.3003 54.9269 52.6405 57.0285 51.321 58.9337M45.1793 66.5876C45.1793 65.7537 45.0829 65.0939 44.8939 64.6084C44.7011 64.1228 44.3824 63.7744 43.9302 63.5668C43.2371 63.2888 42.266 63.1517 41.0131 63.1517C39.7603 63.1517 38.8263 62.9108 38.2036 62.4252C37.5772 61.9397 37.2659 60.9426 37.2659 59.4304C37.2659 57.9181 37.5883 56.9247 38.2296 56.4355C38.8708 55.9499 39.9383 55.7053 41.432 55.7053C42.8182 55.7053 43.6522 55.3421 43.9302 54.6119C44.034 54.2301 44.0859 53.6037 44.0859 52.7364C44.0859 51.8691 43.8005 51.2612 43.2259 50.9128C42.6551 50.5681 41.7952 50.3939 40.6499 50.3939H33.3629V70.1237H41.899C44.0859 70.1237 45.1793 68.945 45.1793 66.5839" fill="var(--fill-0, white)"/>
<path d="M61.0691 55.4014C63.9862 52.6956 67.3146 51.3427 71.0656 51.3427C74.8166 51.3427 78.1265 52.6882 81.0102 55.3754C83.8902 58.0664 85.332 61.4912 85.332 65.6573C85.332 68.5373 84.5833 71.0985 83.0933 73.3372C81.5996 75.576 79.7871 77.2254 77.6521 78.2817C75.5172 79.3418 73.3044 79.8681 71.0137 79.8681C68.7231 79.8681 66.5029 79.3047 64.3494 78.1742C62.1959 77.0474 60.3834 75.3795 58.9082 73.1778C57.433 70.9762 56.6954 68.4854 56.6954 65.7055C56.6954 61.5394 58.1521 58.1071 61.0691 55.3977M67.5778 69.4268C68.6897 70.2793 69.8165 70.7019 70.9618 70.7019C72.1072 70.7019 73.2525 70.2682 74.3978 69.4009C75.5431 68.5336 76.1176 67.2511 76.1176 65.5498C76.1176 63.8485 75.5802 62.5809 74.5053 61.7506C73.4304 60.9167 72.2665 60.5015 71.0174 60.5015C69.7683 60.5015 68.6045 60.9352 67.5296 61.8025C66.4547 62.6699 65.9173 63.9449 65.9173 65.6277C65.9173 67.3104 66.4732 68.578 67.5815 69.4268" fill="var(--fill-0, white)"/>
<path d="M109.098 65.6573L114.877 71.4877C116.126 72.7368 116.752 73.8042 116.752 74.6901C116.752 75.576 116.129 76.636 114.877 77.8666C113.628 79.0972 112.568 79.7161 111.7 79.7161C110.833 79.7161 109.773 79.0897 108.524 77.8406L102.797 72.0622L97.0187 77.8406C95.7696 79.0897 94.7206 79.7161 93.8681 79.7161C93.0156 79.7161 91.9593 79.1009 90.6916 77.8666C89.424 76.636 88.7902 75.576 88.7902 74.6901C88.7902 73.8042 89.4129 72.7368 90.6657 71.4877L96.4442 65.6573L90.6657 59.8269C89.4166 58.5779 88.7902 57.5104 88.7902 56.6245C88.7902 55.7387 89.424 54.6712 90.6916 53.4221C91.9593 52.173 93.0156 51.5466 93.8681 51.5466C94.7206 51.5466 95.7696 52.173 97.0187 53.4221L102.797 59.2524L108.524 53.4221C109.773 52.173 110.833 51.5466 111.7 51.5466C112.568 51.5466 113.628 52.173 114.877 53.4221C116.126 54.6712 116.752 55.7387 116.752 56.6245C116.752 57.5104 116.129 58.5779 114.877 59.8269L109.098 65.6573Z" fill="var(--fill-0, white)"/>
<path d="M56.6954 92.0737V83.393H60.5132C64.6682 83.4041 64.6682 89.8535 60.5132 89.8535H58.9119V92.0737H56.6917H56.6954ZM60.502 85.376C59.9794 85.3649 59.4234 85.376 58.9156 85.376V87.8557H60.502C61.7178 87.8557 61.7919 85.3871 60.502 85.376Z" fill="var(--fill-0, white)"/>
<path d="M64.7682 87.7482C64.7682 81.7473 73.6713 81.7473 73.6713 87.7482C73.6713 93.749 64.7682 93.7639 64.7682 87.7482ZM71.4029 87.7482C71.4029 84.6236 67.0515 84.6236 67.0515 87.7482C67.0515 90.8728 71.4029 90.8987 71.4029 87.7482Z" fill="var(--fill-0, white)"/>
<path d="M78.6195 92.0737H75.3467V83.393H78.6195C84.2757 83.4189 84.2757 92.0477 78.6195 92.0737ZM77.5669 90.0536H78.6195C81.3846 90.0536 81.3846 85.4168 78.6195 85.4168H77.5669V90.0536Z" fill="var(--fill-0, white)"/>
<path d="M88.4789 83.2967C90.2765 83.2967 92.2224 84.2752 92.5597 86.5954H90.3766C90.0652 85.7133 89.4092 85.3167 88.4789 85.3167C87.1779 85.3167 86.3217 86.2952 86.3217 87.7333C86.3217 89.0084 87.163 90.1278 88.4789 90.1389C89.4203 90.1389 90.1764 89.6682 90.4137 88.7378H92.5968C92.2743 91.1915 90.3284 92.1589 88.4789 92.1589C86.2735 92.1701 84.0384 90.6837 84.0273 87.7333C84.0384 84.783 86.2735 83.2929 88.4789 83.2929" fill="var(--fill-0, white)"/>
<path d="M95.8845 90.984L95.3767 92.0737H93.2047V91.7512L97.1113 83.2818H98.0676L101.985 91.7512V92.0737H99.8171L99.3093 90.984H95.8845ZM97.5821 86.8067L96.6036 89.0899H98.5865L97.5821 86.8067Z" fill="var(--fill-0, white)"/>
<path d="M107.378 89.5199C107.378 88.912 106.659 88.7749 105.792 88.7267C103.909 88.5895 102.667 87.9446 102.641 86.0617C102.567 82.3181 109.313 82.3181 109.261 86.0617H107.152C107.152 84.909 104.821 85.009 104.747 86.0358C104.695 86.6918 105.344 86.8289 106.122 86.9179C107.845 87.1032 109.532 87.3627 109.532 89.5347C109.532 93.1819 102.464 93.2412 102.515 89.4235H104.662C104.662 90.5281 107.378 90.5392 107.378 89.5236" fill="var(--fill-0, white)"/>
<path d="M110.303 85.3797V83.393H116.752V85.3797H114.632V92.0737H112.438V85.3797H110.303Z" fill="var(--fill-0, white)"/>
</g>
</svg>
