<svg preserveAspectRatio="none" width="100%" height="100%" overflow="visible" style="display: block;" viewBox="0 0 173.443 93.3358" fill="none" xmlns="http://www.w3.org/2000/svg">
<path id="Vector" d="M59.7347 60.3734C64.8918 70.0044 74.866 76.5345 86.3363 76.5345C103.077 76.5345 116.656 62.6142 116.656 45.4346C116.656 42.7524 116.327 40.1494 115.703 37.6596C130.37 38.6555 144.595 42.0507 141.036 51.7609C135.539 66.8016 85.5316 87.1614 43.368 90.002C81.0999 101.387 173.962 82.4534 173.44 50.8103C173.157 33.1893 139.8 32.5329 114.74 34.5247C110.433 22.7321 99.3481 14.3234 86.3476 14.3234C69.6069 14.3234 56.0284 28.2436 56.0284 45.4233C56.0284 49.4975 56.7991 53.3793 58.1819 56.9443C42.7106 55.6088 26.6952 51.8289 30.7982 41.6886C36.8054 26.8629 87.3677 2.88161 129.611 1.58013C74.7527 -6.96442 0.524333 20.8082 0.00295488 44.914C-0.371077 62.286 34.8446 62.4331 59.7347 60.3847V60.3734Z" fill="var(--fill-0, white)"/>
</svg>
