<svg preserveAspectRatio="none" width="100%" height="100%" overflow="visible" style="display: block;" viewBox="0 0 151.559 80.0168" fill="none" xmlns="http://www.w3.org/2000/svg">
<path id="Vector" d="M99.6473 27.7843C95.1915 19.1596 86.1789 13.2544 75.7818 13.2544C60.961 13.2544 48.9458 25.234 48.9458 40.0107C48.9458 43.1918 49.5051 46.2404 50.5273 49.0696C37.0085 47.5705 23.65 44.0511 27.0882 35.1293C31.8466 22.775 70.377 3.43678 110.805 1.47142C111.209 1.45314 111.223 0.858964 110.819 0.817829C57.5412 -4.19611 0 14.6302 0 35.8103C0 53.0369 30.5218 54.0561 51.9118 52.2325C56.3677 60.8572 65.3802 66.7624 75.7773 66.7624C90.5981 66.7624 102.613 54.7829 102.613 40.0061C102.613 36.825 102.054 33.7764 101.032 30.9472C114.551 32.4464 127.909 35.9657 124.471 44.8875C119.712 57.2418 81.1867 76.58 40.7538 78.5454C40.3504 78.5637 40.3366 79.1624 40.74 79.199C94.0225 84.2129 151.559 65.3866 151.559 44.2065C151.559 26.9799 121.037 25.9607 99.6473 27.7843Z" fill="var(--fill-0, white)"/>
</svg>
