<svg preserveAspectRatio="none" width="100%" height="100%" overflow="visible" style="display: block;" viewBox="0 0 180.424 213.15" fill="none" xmlns="http://www.w3.org/2000/svg">
<g id="Vector">
<path d="M148.524 2.80226L142.614 13.4254C142.028 14.4444 140.958 15.1067 139.761 15.1067H107.229C106.108 15.1067 105.064 14.5208 104.452 13.5528L97.676 2.59846C96.6825 0.968054 94.8992 0 92.9886 0H70.3158C66.0869 0 63.412 4.58552 65.5519 8.25393L90.7468 51.9183C91.3327 52.9118 92.4027 53.5487 93.5745 53.5487H151.658C152.83 53.5487 153.9 52.9373 154.486 51.9183L179.68 8.25393C181.795 4.58552 179.145 0 174.917 0H153.365C151.352 0 149.518 1.06995 148.55 2.82774" fill="var(--fill-0, white)"/>
<path d="M110.515 133.158L104.274 122.714C103.663 121.695 103.663 120.446 104.274 119.427L120.553 91.2518C121.113 90.2838 122.132 89.6724 123.279 89.6214L136.169 89.2393C138.08 89.1883 139.812 88.1439 140.78 86.488L152.142 66.8467C154.256 63.1783 151.607 58.5927 147.378 58.5927H96.9627C95.7909 58.5673 94.7209 59.1787 94.135 60.1977L65.0679 110.486C64.482 111.479 64.482 112.727 65.0679 113.746L90.2373 157.411C92.3517 161.079 97.6505 161.079 99.7905 157.411L110.566 138.763C111.56 137.031 111.56 134.891 110.515 133.184" fill="var(--fill-0, white)"/>
<path d="M42.3441 79.839L48.5855 69.3942C49.1969 68.3752 49.1969 67.1269 48.5855 66.1079L32.3069 37.9324C31.7464 36.9644 30.7274 36.353 29.5811 36.302L16.6907 35.9199C14.78 35.8689 13.0477 34.8245 12.0797 33.1686L0.743244 13.5528C-1.37119 9.88434 1.27822 5.29882 5.50709 5.29882H55.9223C57.0942 5.27335 58.1641 5.88475 58.7501 6.90375L87.8172 57.1916C88.4031 58.1851 88.4031 59.4334 87.8172 60.4524L62.6478 104.117C60.5333 107.785 55.2345 107.785 53.0946 104.117L42.3186 85.469C41.3251 83.7367 41.3251 81.5968 42.3696 79.8899" fill="var(--fill-0, white)"/>
<path d="M10.3219 176.874H19.1872L27.059 203.037L34.9308 176.874H43.8217L32.256 212.437H21.8876L10.3219 176.874Z" fill="var(--fill-0, white)"/>
<path d="M82.824 194.655C82.824 188.312 78.264 184.083 72.4557 184.083C66.6473 184.083 62.0873 188.287 62.0873 194.655C62.0873 201.024 66.6473 205.227 72.4557 205.227C78.264 205.227 82.824 201.024 82.824 194.655ZM53.9862 194.655C53.9862 184.185 62.2656 176.186 72.4557 176.186C82.6457 176.186 90.9251 184.21 90.9251 194.655C90.9251 205.1 82.6457 213.15 72.4557 213.15C62.2656 213.15 53.9862 205.126 53.9862 194.655Z" fill="var(--fill-0, white)"/>
<path d="M126.488 204.616V212.437H105.65V176.874H113.776V204.616H126.488Z" fill="var(--fill-0, white)"/>
<path d="M159.682 212.437L148.321 195.98V212.437H140.194V176.899H148.321V192.312L159.173 176.899H168.42L156.422 194.197L168.93 212.437H159.682Z" fill="var(--fill-0, white)"/>
</g>
</svg>
