<svg preserveAspectRatio="none" width="100%" height="100%" overflow="visible" style="display: block;" viewBox="0 0 50.1412 26.0412" fill="none" xmlns="http://www.w3.org/2000/svg">
<path id="Vector" d="M17.2685 16.8453C18.7565 19.5318 21.6415 21.3552 24.9586 21.3552C29.7962 21.3552 33.724 17.4683 33.724 12.6761C33.724 11.9267 33.6266 11.1999 33.4479 10.5056C37.6909 10.7846 41.8007 11.7287 40.7741 14.4411C39.1854 18.6395 24.7247 24.3174 12.535 25.1123C23.4446 28.2854 50.29 23.0066 50.1405 14.1783C50.0593 9.26293 40.4134 9.07799 33.1685 9.63605C31.9242 6.34613 28.7175 4.00036 24.9586 4.00036C20.1178 4.00036 16.1932 7.88402 16.1932 12.6794C16.1932 13.815 16.4141 14.8986 16.817 15.8914C12.3433 15.5183 7.71364 14.4639 8.89948 11.6347C10.6376 7.49468 25.2575 0.804528 37.47 0.441144C21.6123 -1.94356 0.150287 5.80429 0.000839749 12.5301C-0.106373 17.3774 10.0756 17.4196 17.2685 16.8453Z" fill="var(--fill-0, white)"/>
</svg>
