<svg preserveAspectRatio="none" width="100%" height="100%" overflow="visible" style="display: block;" viewBox="0 0 42.193 22.984" fill="none" xmlns="http://www.w3.org/2000/svg">
<g id="Vector">
<path d="M9.32424 0V22.9808H6.8681L2.72904 8.34809L2.52112 6.93673V22.9808H0V0H2.42366L6.56271 14.6489L6.77063 16.1868V0H9.32424Z" fill="var(--fill-0, white)"/>
<path d="M19.7726 1.96941H14.7986V10.4797H19.4347V12.4524H14.7986V21.0114H19.7726V22.984H12.2775V0H19.7726V1.97265V1.96941Z" fill="var(--fill-0, white)"/>
<path d="M30.666 0L27.0533 11.3947L30.6335 22.9808H28.0344L25.7407 13.9254L23.3496 22.9808H20.783L24.3632 11.5861L20.7505 0H23.3821L25.7732 8.92561L28.1806 0H30.6693H30.666Z" fill="var(--fill-0, white)"/>
<path d="M42.1897 0V2.0343H38.1157V22.9808H35.5491V2.0343H31.4717V0H42.193H42.1897Z" fill="var(--fill-0, white)"/>
</g>
</svg>
