<svg preserveAspectRatio="none" width="100%" height="100%" overflow="visible" style="display: block;" viewBox="0 0 80.5588 23.3766" fill="none" xmlns="http://www.w3.org/2000/svg">
<g id="Vector">
<path d="M17.0143 4.95759L18.4406 16.4496H15.5588L17.0175 4.95759H17.0143ZM14.7596 0.165469L11.4457 23.1787H14.7303L15.1624 19.5676H18.8402L19.3047 23.1787H22.82L19.4704 0.165469H14.7596Z" fill="var(--fill-0, white)"/>
<path d="M27.8233 3.31587H29.5484C30.4451 3.31587 30.8772 3.74415 30.8772 4.62665V9.48691C30.8772 10.4408 30.4094 10.8983 29.4152 10.8983H27.8233V3.31587ZM27.8233 13.9546H29.4152C30.4451 13.9546 30.9064 14.4153 30.9064 15.4308V23.1819H34.4574V15.3659C34.4574 13.6269 33.8564 12.7411 32.4009 12.3453C33.694 11.8229 34.425 10.8366 34.425 8.79907V4.46767C34.425 1.61251 32.9987 0.201159 30.1137 0.201159H24.2755V23.1852H27.8265V13.9578L27.8233 13.9546Z" fill="var(--fill-0, white)"/>
<path d="M41.4198 4.95759L42.846 16.4496H39.961L41.4198 4.95759ZM39.1651 0.165469L35.8512 23.1787H39.1358L39.5679 19.5676H43.2489L43.7135 23.1787H47.2287L43.8791 0.165469H39.1651Z" fill="var(--fill-0, white)"/>
<path d="M55.2534 18.9446C55.2534 19.8628 54.8213 20.2911 53.9279 20.2911H53.2651C52.3327 20.2911 51.9038 19.8628 51.9038 18.9446V4.43198C51.9038 3.51054 52.3327 3.08552 53.2651 3.08552H53.8597C54.7563 3.08552 55.1852 3.51054 55.1852 4.43198V8.9321H58.668V4.23731C58.668 1.38216 57.2775 0 54.3892 0H52.6673C49.7823 0 48.3561 1.41136 48.3561 4.26651V19.1068C48.3561 21.962 49.7823 23.3733 52.6673 23.3733H54.425C57.3067 23.3733 58.7362 21.962 58.7362 19.1068V13.7567H55.2534V18.9446Z" fill="var(--fill-0, white)"/>
<path d="M67.6251 18.9479C67.6251 19.866 67.193 20.2911 66.2996 20.2911H65.5686C64.6394 20.2911 64.2105 19.866 64.2105 18.9479V4.43523C64.2105 3.51703 64.6394 3.08876 65.5686 3.08876H66.2996C67.193 3.08876 67.6251 3.51703 67.6251 4.43523V18.9479ZM66.8616 0.00324457H64.9708C62.0858 0.00324457 60.6595 1.41136 60.6595 4.26976V19.1101C60.6595 21.9652 62.0858 23.3766 64.9708 23.3766H66.8616C69.7466 23.3766 71.1728 21.9652 71.1728 19.1101V4.26976C71.1728 1.41136 69.7466 0.00324457 66.8616 0.00324457Z" fill="var(--fill-0, white)"/>
<path d="M73.0962 0.197914V23.1787H80.5588V19.9926H76.6439V0.197914H73.0962Z" fill="var(--fill-0, white)"/>
<path d="M10.3151 8.9321V4.23731C10.3151 1.38216 8.92463 0.00324457 6.03639 0.00324457H4.31124C1.4295 0.00324457 0 1.41136 0 4.26976V19.1101C0 21.9652 1.42625 23.3766 4.31124 23.3766H6.07213C8.95712 23.3766 10.3834 21.9652 10.3834 19.1101V13.7599H6.90059V18.9479C6.90059 19.866 6.47174 20.2943 5.57505 20.2943H4.91228C3.97986 20.2943 3.55101 19.866 3.55101 18.9479V4.43198C3.55101 3.51054 3.97986 3.08552 4.91228 3.08552H5.50682C6.40351 3.08552 6.83236 3.51054 6.83236 4.43198V8.9321H10.3151Z" fill="var(--fill-0, white)"/>
</g>
</svg>
