<svg width="52" height="40" viewBox="0 0 52 40" fill="none" xmlns="http://www.w3.org/2000/svg">
<g clip-path="url(#clip0_1074_1382)">
<path d="M32.8944 8.05343C31.6072 5.55352 29.0035 3.84186 26 3.84186C21.7184 3.84186 18.2473 7.31419 18.2473 11.5973C18.2473 12.5194 18.4089 13.403 18.7042 14.2231C14.7988 13.7885 10.9397 12.7684 11.9329 10.1824C13.3076 6.60144 24.4386 0.996168 36.1179 0.4265C36.2344 0.421201 36.2384 0.248975 36.1218 0.237052C20.7304 -1.21627 4.10742 4.24063 4.10742 10.3798C4.10742 15.373 12.9248 15.6684 19.1042 15.1398C20.3914 17.6398 22.995 19.3514 25.9986 19.3514C30.2802 19.3514 33.7513 15.8791 33.7513 11.596C33.7513 10.6739 33.5897 9.79026 33.2944 8.9702C37.1998 9.40474 41.0589 10.4248 40.0657 13.0109C38.691 16.5918 27.5613 22.1971 15.8807 22.7668C15.7642 22.7721 15.7602 22.9456 15.8768 22.9562C31.2695 24.4095 47.8912 18.9526 47.8912 12.8135C47.8912 7.82027 39.0738 7.52483 32.8944 8.05343Z" fill="white"/>
<path d="M45.4887 33.3587C45.8224 33.6661 46.2263 33.9032 46.7004 34.0701C47.1745 34.2371 47.6579 34.3205 48.1519 34.3205C48.4989 34.3205 48.7929 34.2437 49.0326 34.09C49.2736 33.9363 49.3928 33.7389 49.3928 33.4991C49.3928 33.2594 49.2762 33.062 49.0418 32.9083C48.8087 32.7546 48.5174 32.6142 48.1704 32.487C47.8234 32.3598 47.446 32.226 47.0394 32.0856C46.6315 31.9451 46.2554 31.765 45.9085 31.545C45.5615 31.3251 45.2701 31.0482 45.0371 30.7131C44.8026 30.3792 44.6861 29.9513 44.6861 29.4307C44.6861 28.963 44.7894 28.543 44.996 28.1681C45.2026 27.7945 45.4794 27.4766 45.8277 27.2169C46.1747 26.9572 46.572 26.7559 47.0196 26.6154C47.4672 26.475 47.9307 26.4048 48.4115 26.4048C48.7319 26.4048 49.0524 26.4326 49.3729 26.4843C49.6934 26.5373 49.9967 26.6115 50.2841 26.7042C50.5714 26.7983 50.8376 26.9042 51.0853 27.0248C51.3316 27.1454 51.5356 27.2659 51.6958 27.3851L50.4748 29.2677C50.2205 29.0809 49.9344 28.9246 49.6139 28.7974C49.2935 28.6702 48.9597 28.6066 48.6127 28.6066C48.2658 28.6066 47.9413 28.6742 47.6817 28.8067C47.4209 28.9405 47.2911 29.1339 47.2911 29.3883C47.2911 29.6016 47.4076 29.7725 47.642 29.8996C47.8751 30.0268 48.1664 30.15 48.5134 30.2706C48.8604 30.3911 49.2378 30.521 49.6444 30.6614C50.0523 30.8018 50.4284 30.9926 50.7754 31.2324C51.1224 31.4735 51.4124 31.7729 51.6468 32.1333C51.8799 32.4936 51.9977 32.9546 51.9977 33.515C51.9977 33.9827 51.8905 34.4 51.6773 34.767C51.464 35.1353 51.1793 35.4479 50.8257 35.7089C50.4721 35.9699 50.0616 36.17 49.5941 36.3104C49.1266 36.4508 48.6392 36.521 48.132 36.521C47.4513 36.521 46.7733 36.4111 46.0992 36.1898C45.4251 35.9699 44.8 35.6453 44.2266 35.2187L45.4887 33.3561V33.3587Z" fill="white"/>
<path d="M43.7762 36.3236C43.6027 36.3899 43.3524 36.4402 43.0253 36.4733C42.6982 36.5064 42.4082 36.5237 42.1539 36.5237C41.3659 36.5237 40.6919 36.4005 40.1317 36.1527C39.5715 35.9063 39.1239 35.5619 38.7901 35.1207C38.5359 34.7868 38.3531 34.3934 38.2392 33.939C38.1253 33.4846 38.0684 32.9109 38.0684 32.2154V24.4666L40.672 23.9009V26.6048H43.9736L43.4081 28.808H40.672V32.5148C40.672 32.8221 40.6985 33.0686 40.7528 33.2554C40.8058 33.4422 40.8865 33.6025 40.9925 33.7363C41.1262 33.8833 41.2997 33.9999 41.5129 34.0873C41.7262 34.1748 41.9937 34.2172 42.3142 34.2172C42.5009 34.2172 42.7009 34.2066 42.9154 34.1867C43.1286 34.1668 43.2823 34.143 43.3763 34.1165L43.7762 36.3196V36.3236Z" fill="white"/>
<path d="M33.7169 28.8104H37.037L37.3243 26.4867C37.1773 26.4602 37.0409 26.4403 36.9138 26.4271C36.7867 26.4138 36.6304 26.4072 36.4437 26.4072C35.8424 26.4072 35.2955 26.5145 34.8015 26.7278C34.3075 26.9411 33.9142 27.2286 33.6202 27.589V26.6073H31.1172V36.3234H33.7169V28.8104Z" fill="white"/>
<path d="M19.8184 31.4746C19.8184 30.7804 19.9481 30.122 20.209 29.502C20.4699 28.882 20.8301 28.3441 21.291 27.8897C21.7519 27.4353 22.2988 27.0749 22.9332 26.8086C23.5675 26.541 24.2509 26.4072 24.9859 26.4072C25.7209 26.4072 26.4043 26.541 27.0386 26.8086C27.673 27.0763 28.2199 27.4366 28.6808 27.8897C29.1417 28.3441 29.5019 28.882 29.7628 29.502C30.0237 30.1233 30.1534 30.7804 30.1534 31.4746C30.1534 32.1688 30.0237 32.8405 29.7628 33.4473C29.5019 34.0554 29.1417 34.5893 28.6808 35.0503C28.2199 35.5113 27.673 35.8717 27.0386 36.1327C26.4043 36.3936 25.7196 36.5235 24.9859 36.5235C24.2522 36.5235 23.5675 36.3936 22.9332 36.1327C22.2988 35.8717 21.7519 35.5113 21.291 35.0503C20.8301 34.5893 20.4699 34.0554 20.209 33.4473C19.9481 32.8392 19.8184 32.1821 19.8184 31.4746ZM22.422 31.4746C22.422 31.835 22.4856 32.1754 22.6127 32.4961C22.7398 32.8167 22.9133 33.0975 23.1332 33.3373C23.353 33.5771 23.6205 33.7679 23.9344 33.9083C24.2483 34.0487 24.5979 34.1189 24.9859 34.1189C25.3739 34.1189 25.7077 34.0487 26.0268 33.9083C26.3473 33.7679 26.6175 33.5771 26.8373 33.3373C27.0572 33.0975 27.2306 32.8167 27.3578 32.4961C27.4849 32.1754 27.5485 31.835 27.5485 31.4746C27.5485 31.1143 27.4849 30.7698 27.3578 30.4426C27.2306 30.1154 27.0572 29.8319 26.8373 29.5907C26.6175 29.3496 26.3473 29.1602 26.0268 29.0198C25.7063 28.8793 25.3594 28.8091 24.9859 28.8091C24.6124 28.8091 24.2483 28.8793 23.9344 29.0198C23.6205 29.1602 23.353 29.351 23.1332 29.5907C22.9133 29.8305 22.7385 30.1154 22.6127 30.4426C22.4856 30.7698 22.422 31.1143 22.422 31.4746Z" fill="white"/>
<path d="M18.5572 29.4719C18.3096 28.8571 17.9692 28.3232 17.5362 27.8688C17.1018 27.4144 16.5946 27.0581 16.0145 26.7971C15.4331 26.5374 14.816 26.4062 14.1618 26.4062C13.6002 26.4062 13.0838 26.4937 12.6096 26.6672C12.1355 26.8408 11.7051 27.0806 11.3184 27.3879V26.6063H8.81543V40.0001L11.4191 39.4344V35.6415C12.1806 36.2297 13.048 36.5225 14.0227 36.5225C14.7431 36.5225 15.4318 36.3754 16.086 36.0813C16.7402 35.7872 17.2806 35.3871 17.7083 34.8797C18.095 34.4386 18.3956 33.9285 18.6089 33.3469C18.8221 32.7653 18.9294 32.1414 18.9294 31.4736C18.9294 30.7516 18.8062 30.0839 18.5585 29.4705M16.135 32.5361C16.0079 32.8568 15.8278 33.1336 15.5947 33.3681C15.3616 33.6026 15.0875 33.7854 14.7736 33.9192C14.4597 34.0531 14.122 34.1193 13.7618 34.1193C13.2678 34.1193 12.8176 34.0093 12.4097 33.7881C12.0018 33.5682 11.672 33.2767 11.4177 32.9164V28.8095H13.8307C14.2002 28.8108 14.5405 28.885 14.8517 29.0294C15.1656 29.1764 15.4291 29.3738 15.6424 29.6202C15.8556 29.8667 16.0224 30.1515 16.143 30.4721C16.2635 30.7927 16.3231 31.1265 16.3231 31.4736C16.3231 31.8605 16.2595 32.2142 16.1324 32.5348" fill="white"/>
<path d="M1.26404 33.3587C1.59777 33.6661 2.00169 33.9032 2.47581 34.0701C2.94992 34.2371 3.4333 34.3205 3.92727 34.3205C4.27425 34.3205 4.56825 34.2437 4.80795 34.09C5.04898 33.9363 5.16817 33.7389 5.16817 33.4991C5.16817 33.2594 5.05163 33.062 4.81722 32.9083C4.58414 32.7546 4.29279 32.6142 3.94581 32.487C3.59884 32.3598 3.2214 32.226 2.81483 32.0856C2.40694 31.9451 2.03083 31.765 1.68386 31.545C1.33688 31.3251 1.04553 31.0482 0.812444 30.7131C0.578038 30.3792 0.461496 29.9513 0.461496 29.4307C0.461496 28.963 0.564794 28.543 0.77139 28.1681C0.977986 27.7945 1.25477 27.4766 1.60307 27.2169C1.95005 26.9572 2.34735 26.7559 2.79497 26.6154C3.24259 26.475 3.70611 26.4048 4.18684 26.4048C4.50733 26.4048 4.82782 26.4326 5.14831 26.4843C5.4688 26.5373 5.77207 26.6115 6.05945 26.7042C6.34683 26.7983 6.61302 26.9042 6.86067 27.0248C7.10832 27.1454 7.31094 27.2659 7.47119 27.3851L6.25015 29.2677C5.99588 29.0809 5.70983 28.9246 5.38934 28.7974C5.06885 28.6702 4.73512 28.6066 4.38814 28.6066C4.04117 28.6066 3.71671 28.6742 3.45714 28.8067C3.19624 28.9405 3.06646 29.1339 3.06646 29.3883C3.06646 29.6016 3.183 29.7725 3.41741 29.8996C3.65049 30.0268 3.94184 30.15 4.28882 30.2706C4.63579 30.3911 5.01323 30.521 5.4198 30.6614C5.82769 30.8018 6.2038 30.9926 6.55078 31.2324C6.89775 31.4735 7.18778 31.7729 7.42219 32.1333C7.65527 32.4936 7.77313 32.9546 7.77313 33.515C7.77313 33.9827 7.66586 34.4 7.45265 34.767C7.23943 35.1353 6.9547 35.4479 6.6011 35.7089C6.2475 35.9699 5.83696 36.17 5.36947 36.3104C4.90198 36.4508 4.41463 36.521 3.90741 36.521C3.2267 36.521 2.54864 36.4111 1.87456 36.1898C1.20047 35.9699 0.575389 35.6453 0.00195312 35.2187L1.26404 33.3561V33.3587Z" fill="white"/>
</g>
<defs>
<clipPath id="clip0_1074_1382">
<rect width="52" height="40" fill="white"/>
</clipPath>
</defs>
</svg>
