<svg preserveAspectRatio="none" width="100%" height="100%" overflow="visible" style="display: block;" viewBox="0 0 48 47.9988" fill="none" xmlns="http://www.w3.org/2000/svg">
<path id="Vector" d="M24.0121 19.6585C21.6203 19.6585 19.6718 21.6082 19.6718 24C19.6718 26.3918 21.6203 28.3402 24.0121 28.3402C26.4039 28.3402 28.3535 26.3918 28.3535 24C28.3535 21.6082 26.4039 19.6585 24.0121 19.6585ZM24.0121 19.6585C21.6203 19.6585 19.6718 21.6082 19.6718 24C19.6718 26.3918 21.6203 28.3402 24.0121 28.3402C26.4039 28.3402 28.3535 26.3918 28.3535 24C28.3535 21.6082 26.4039 19.6585 24.0121 19.6585ZM30.0773 13.5812H17.9227C15.5273 13.5812 13.5824 15.5261 13.5824 17.9227V30.0773C13.5824 32.4727 15.5273 34.4176 17.9227 34.4176H30.0773C32.4739 34.4176 34.4188 32.4727 34.4188 30.0773V17.9227C34.4188 15.5261 32.4739 13.5812 30.0773 13.5812ZM24.0121 30.511C20.4184 30.511 17.5011 27.5937 17.5011 24C17.5011 20.4063 20.4184 17.4878 24.0121 17.4878C27.6058 17.4878 30.5243 20.4051 30.5243 24C30.5243 27.5949 27.607 30.511 24.0121 30.511ZM30.9579 18.3564C30.2404 18.3564 29.6557 17.7717 29.6557 17.0542C29.6557 16.3366 30.2404 15.752 30.9579 15.752C31.6755 15.752 32.2601 16.3354 32.2601 17.0542C32.2601 17.7729 31.6767 18.3564 30.9579 18.3564ZM24.0121 19.6585C21.6203 19.6585 19.6718 21.6082 19.6718 24C19.6718 26.3918 21.6203 28.3402 24.0121 28.3402C26.4039 28.3402 28.3535 26.3918 28.3535 24C28.3535 21.6082 26.4039 19.6585 24.0121 19.6585ZM30.0773 13.5812H17.9227C15.5273 13.5812 13.5824 15.5261 13.5824 17.9227V30.0773C13.5824 32.4727 15.5273 34.4176 17.9227 34.4176H30.0773C32.4739 34.4176 34.4188 32.4727 34.4188 30.0773V17.9227C34.4188 15.5261 32.4739 13.5812 30.0773 13.5812ZM24.0121 30.511C20.4184 30.511 17.5011 27.5937 17.5011 24C17.5011 20.4063 20.4184 17.4878 24.0121 17.4878C27.6058 17.4878 30.5243 20.4051 30.5243 24C30.5243 27.5949 27.607 30.511 24.0121 30.511ZM30.9579 18.3564C30.2404 18.3564 29.6557 17.7717 29.6557 17.0542C29.6557 16.3366 30.2404 15.752 30.9579 15.752C31.6755 15.752 32.2601 16.3354 32.2601 17.0542C32.2601 17.7729 31.6767 18.3564 30.9579 18.3564ZM24.0121 19.6585C21.6203 19.6585 19.6718 21.6082 19.6718 24C19.6718 26.3918 21.6203 28.3402 24.0121 28.3402C26.4039 28.3402 28.3535 26.3918 28.3535 24C28.3535 21.6082 26.4039 19.6585 24.0121 19.6585ZM40.9708 7.02919C36.6281 2.68653 30.6269 0 24 0C17.3731 0 11.3731 2.68653 7.0304 7.02919C2.68653 11.3719 0 17.3731 0 24C0 30.6269 2.68653 36.6269 7.0304 40.9696C11.3731 45.3123 17.3731 47.9988 24 47.9988C37.2551 47.9988 48 37.2539 48 24C48 17.3731 45.3135 11.3719 40.9708 7.02919ZM36.5895 30.511C36.5895 33.8667 33.8667 36.5883 30.5122 36.5883H17.489C14.1333 36.5883 11.4117 33.8667 11.4117 30.511V17.4878C11.4117 14.1321 14.1333 11.4105 17.489 11.4105H30.5122C33.8667 11.4105 36.5895 14.1321 36.5895 17.4878V30.511ZM30.0773 13.5812H17.9227C15.5273 13.5812 13.5824 15.5261 13.5824 17.9227V30.0773C13.5824 32.4727 15.5273 34.4176 17.9227 34.4176H30.0773C32.4739 34.4176 34.4188 32.4727 34.4188 30.0773V17.9227C34.4188 15.5261 32.4739 13.5812 30.0773 13.5812ZM24.0121 30.511C20.4184 30.511 17.5011 27.5937 17.5011 24C17.5011 20.4063 20.4184 17.4878 24.0121 17.4878C27.6058 17.4878 30.5243 20.4051 30.5243 24C30.5243 27.5949 27.607 30.511 24.0121 30.511ZM30.9579 18.3564C30.2404 18.3564 29.6557 17.7717 29.6557 17.0542C29.6557 16.3366 30.2404 15.752 30.9579 15.752C31.6755 15.752 32.2601 16.3354 32.2601 17.0542C32.2601 17.7729 31.6767 18.3564 30.9579 18.3564ZM24.0121 19.6585C21.6203 19.6585 19.6718 21.6082 19.6718 24C19.6718 26.3918 21.6203 28.3402 24.0121 28.3402C26.4039 28.3402 28.3535 26.3918 28.3535 24C28.3535 21.6082 26.4039 19.6585 24.0121 19.6585ZM24.0121 19.6585C21.6203 19.6585 19.6718 21.6082 19.6718 24C19.6718 26.3918 21.6203 28.3402 24.0121 28.3402C26.4039 28.3402 28.3535 26.3918 28.3535 24C28.3535 21.6082 26.4039 19.6585 24.0121 19.6585ZM24.0121 19.6585C21.6203 19.6585 19.6718 21.6082 19.6718 24C19.6718 26.3918 21.6203 28.3402 24.0121 28.3402C26.4039 28.3402 28.3535 26.3918 28.3535 24C28.3535 21.6082 26.4039 19.6585 24.0121 19.6585Z" fill="var(--fill-0, #015BC4)"/>
</svg>
