<svg preserveAspectRatio="none" width="100%" height="100%" overflow="visible" style="display: block;" viewBox="0 0 48 48" fill="none" xmlns="http://www.w3.org/2000/svg">
<path id="Vector" d="M40.9708 7.02919C36.6269 2.68653 30.6281 0 24 0C17.3719 0 11.3731 2.68653 7.02919 7.02919C2.68653 11.3731 0 17.3719 0 24C0 30.6281 2.68653 36.6269 7.02919 40.9708C11.3731 45.3135 17.3719 48 24 48C37.2551 48 48 37.2551 48 24C48 17.3719 45.3135 11.3731 40.9708 7.02919ZM38.7953 23.6002C38.509 31.0026 32.4824 37.0823 25.0823 37.4254C22.4308 37.5474 19.9303 36.9579 17.7524 35.8212H17.7475L10.5371 37.4314C10.211 37.4991 9.92108 37.2104 9.98993 36.8842L11.6002 29.6726C10.4538 27.479 9.8643 24.9531 9.99839 22.2823C10.3692 14.8701 16.4961 8.8629 23.913 8.6213C32.2855 8.34951 39.1202 15.2156 38.7953 23.6002ZM24.3926 11.5965C18.0906 11.5965 12.9615 16.7256 12.9615 23.0276C12.9615 25.3191 13.638 27.4512 14.8001 29.2402L13.5728 33.8474L18.18 32.6201C18.3298 32.7191 18.4832 32.8134 18.6426 32.9028C20.3326 33.8921 22.2956 34.4586 24.3926 34.4586C30.6958 34.4586 35.8248 29.3296 35.8248 23.0276C35.8248 16.7256 30.6958 11.5965 24.3926 11.5965ZM31.1729 28.06C30.9736 28.3584 30.7634 28.6374 30.43 28.972C29.698 29.704 28.6809 30.0725 27.6493 29.9686C25.8011 29.7789 23.175 28.757 20.9173 26.5053C18.6596 24.2476 17.6388 21.6215 17.454 19.7721C17.3489 18.7417 17.7185 17.7246 18.4506 16.9926C18.784 16.6579 19.063 16.449 19.3626 16.2448C19.9158 15.8703 20.6684 16.1204 20.8774 16.7473L21.6348 19.0207C21.8438 19.6428 21.7495 20.0366 21.4802 20.3012L20.8774 20.9088C20.5778 21.2084 20.5283 21.6722 20.7578 22.031C21.0912 22.5541 21.7193 23.3912 22.8754 24.5472C24.0314 25.7032 24.8685 26.3314 25.3916 26.6648C25.7504 26.8943 26.2142 26.8436 26.5126 26.5452L27.1214 25.9412C27.3847 25.673 27.7785 25.5776 28.4019 25.7878L30.674 26.5452C31.3022 26.7542 31.551 27.5067 31.1729 28.06Z" fill="var(--fill-0, #015BC4)"/>
</svg>
