<svg preserveAspectRatio="none" width="100%" height="100%" overflow="visible" style="display: block;" viewBox="0 0 48 47.9988" fill="none" xmlns="http://www.w3.org/2000/svg">
<path id="Vector" d="M40.9708 7.02919C36.6269 2.68653 30.6281 0 24 0C17.3719 0 11.3731 2.68653 7.02919 7.02919C2.68653 11.3719 0 17.3731 0 24C0 30.6269 2.68653 36.6269 7.02919 40.9696C11.3731 45.3123 17.3719 47.9988 24 47.9988C37.2551 47.9988 48 37.2539 48 24C48 17.3731 45.3135 11.3719 40.9708 7.02919ZM27.9706 36.5883L21.7532 27.903L13.6332 36.5883H9.94524L20.1538 25.6694L9.94524 11.4105H20.0294L25.8651 19.5619L33.485 11.4105H37.1717L27.4633 21.7955L38.0536 36.5883H27.9706ZM15.1419 14.0813L29.3429 33.9175H32.8581L18.6571 14.0813H15.1419Z" fill="var(--fill-0, #015BC4)"/>
</svg>
