<svg width="173" height="197" viewBox="0 0 173 197" fill="none" xmlns="http://www.w3.org/2000/svg">
<path d="M70.2933 165.82C65.3199 163.354 58.5906 161.736 51.0874 161.437V137.85H42.8818V167.253C42.8818 168.137 43.6056 168.857 44.4943 168.857H69.5552C71.2465 168.857 71.8054 166.569 70.2933 165.82Z" fill="#1E1446"/>
<g opacity="0.42">
<mask id="mask0_1068_1393" style="mask-type:luminance" maskUnits="userSpaceOnUse" x="42" y="137" width="30" height="32">
<path d="M71.1676 137.85H42.8818V168.857H71.1676V137.85Z" fill="white"/>
</mask>
<g mask="url(#mask0_1068_1393)">
<mask id="mask1_1068_1393" style="mask-type:luminance" maskUnits="userSpaceOnUse" x="42" y="137" width="30" height="32">
<path d="M42.8887 137.85V167.253C42.8887 168.137 43.6125 168.857 44.5011 168.857H69.562C70.5653 168.857 71.1673 168.051 71.1816 167.246V167.203C71.1745 166.662 70.9021 166.127 70.3002 165.828C65.3267 163.361 58.5974 161.743 51.0942 161.444V137.857H42.8887V137.85Z" fill="white"/>
</mask>
<g mask="url(#mask1_1068_1393)">
<mask id="mask2_1068_1393" style="mask-type:luminance" maskUnits="userSpaceOnUse" x="27" y="123" width="61" height="61">
<mask id="mask3_1068_1393" style="mask-type:luminance" maskUnits="userSpaceOnUse" x="27" y="123" width="61" height="61">
<path d="M58.3802 123.512L27.3379 152.245L56.3027 183.205L87.345 154.472L58.3802 123.512Z" fill="white"/>
</mask>
<g mask="url(#mask3_1068_1393)">
<path d="M59.4975 93.7442L-2.59766 151.219L55.1855 212.982L117.281 155.508L59.4975 93.7442Z" fill="url(#paint0_linear_1068_1393)"/>
</g>
</mask>
<g mask="url(#mask2_1068_1393)">
<path d="M58.0415 123.824L27.335 152.246L56.0069 182.893L86.7134 154.471L58.0415 123.824Z" fill="url(#paint1_linear_1068_1393)"/>
</g>
</g>
</g>
</g>
<path d="M56.1468 165.82C51.1734 163.354 44.4441 161.736 36.9409 161.437V137.85H28.7354V167.253C28.7354 168.137 29.4592 168.857 30.3478 168.857H55.4087C57.1 168.857 57.659 166.569 56.1468 165.82Z" fill="#1E1446"/>
<g opacity="0.42">
<mask id="mask4_1068_1393" style="mask-type:luminance" maskUnits="userSpaceOnUse" x="28" y="137" width="30" height="32">
<path d="M57.028 137.85H28.7422V168.857H57.028V137.85Z" fill="white"/>
</mask>
<g mask="url(#mask4_1068_1393)">
<mask id="mask5_1068_1393" style="mask-type:luminance" maskUnits="userSpaceOnUse" x="28" y="137" width="30" height="32">
<path d="M28.7422 137.85V167.253C28.7422 168.137 29.466 168.857 30.3546 168.857H55.4155C57.1068 168.857 57.6658 166.569 56.1537 165.82C51.1802 163.354 44.4509 161.736 36.9477 161.437V137.85H28.7422Z" fill="white"/>
</mask>
<g mask="url(#mask5_1068_1393)">
<mask id="mask6_1068_1393" style="mask-type:luminance" maskUnits="userSpaceOnUse" x="28" y="137" width="30" height="32">
<path d="M57.6586 137.85H28.7422V168.857H57.6586V137.85Z" fill="url(#paint2_linear_1068_1393)"/>
</mask>
<g mask="url(#mask6_1068_1393)">
<path d="M57.6586 137.85H28.7422V168.857H57.6586V137.85Z" fill="url(#paint3_linear_1068_1393)"/>
</g>
</g>
</g>
</g>
<path d="M125.173 165.82C120.2 163.354 113.47 161.736 105.967 161.437V137.85H97.7617V167.253C97.7617 168.137 98.4855 168.857 99.3742 168.857H124.435C126.126 168.857 126.685 166.569 125.173 165.82Z" fill="#1E1446"/>
<g opacity="0.42">
<mask id="mask7_1068_1393" style="mask-type:luminance" maskUnits="userSpaceOnUse" x="97" y="137" width="30" height="32">
<path d="M126.048 137.85H97.7617V168.857H126.048V137.85Z" fill="white"/>
</mask>
<g mask="url(#mask7_1068_1393)">
<mask id="mask8_1068_1393" style="mask-type:luminance" maskUnits="userSpaceOnUse" x="97" y="137" width="30" height="32">
<path d="M97.7686 137.85V167.253C97.7686 168.137 98.4924 168.857 99.381 168.857H124.442C126.133 168.857 126.692 166.569 125.18 165.82C120.207 163.354 113.477 161.736 105.974 161.437V137.85H97.7686Z" fill="white"/>
</mask>
<g mask="url(#mask8_1068_1393)">
<mask id="mask9_1068_1393" style="mask-type:luminance" maskUnits="userSpaceOnUse" x="82" y="123" width="61" height="61">
<mask id="mask10_1068_1393" style="mask-type:luminance" maskUnits="userSpaceOnUse" x="82" y="123" width="61" height="61">
<path d="M113.256 123.518L82.2139 152.25L111.179 183.21L142.221 154.478L113.256 123.518Z" fill="white"/>
</mask>
<g mask="url(#mask10_1068_1393)">
<path d="M114.378 93.7452L52.2832 151.22L110.066 212.983L172.161 155.509L114.378 93.7452Z" fill="url(#paint4_linear_1068_1393)"/>
</g>
</mask>
<g mask="url(#mask9_1068_1393)">
<path d="M113.261 123.513L82.2139 152.25L111.179 183.21L142.226 154.473L113.261 123.513Z" fill="url(#paint5_linear_1068_1393)"/>
</g>
</g>
</g>
</g>
<path d="M111.027 165.82C106.053 163.354 99.324 161.736 91.8208 161.437V137.85H83.6152V167.253C83.6152 168.137 84.339 168.857 85.2277 168.857H110.289C111.98 168.857 112.539 166.569 111.027 165.82Z" fill="#1E1446"/>
<g opacity="0.42">
<mask id="mask11_1068_1393" style="mask-type:luminance" maskUnits="userSpaceOnUse" x="83" y="137" width="29" height="32">
<path d="M111.909 137.85H83.623V168.857H111.909V137.85Z" fill="white"/>
</mask>
<g mask="url(#mask11_1068_1393)">
<mask id="mask12_1068_1393" style="mask-type:luminance" maskUnits="userSpaceOnUse" x="83" y="137" width="29" height="32">
<path d="M83.623 137.85V167.253C83.623 168.137 84.3469 168.857 85.2355 168.857H110.296C111.988 168.857 112.547 166.569 111.035 165.82C106.061 163.354 99.3318 161.736 91.8286 161.437V137.85H83.623Z" fill="white"/>
</mask>
<g mask="url(#mask12_1068_1393)">
<mask id="mask13_1068_1393" style="mask-type:luminance" maskUnits="userSpaceOnUse" x="83" y="137" width="30" height="32">
<path d="M112.539 137.85H83.623V168.857H112.539V137.85Z" fill="url(#paint6_linear_1068_1393)"/>
</mask>
<g mask="url(#mask13_1068_1393)">
<path d="M112.539 137.85H83.623V168.857H112.539V137.85Z" fill="url(#paint7_linear_1068_1393)"/>
</g>
</g>
</g>
</g>
<path d="M113.399 138.249H27.4164C23.7185 138.249 20.7158 135.269 20.7158 131.584V81.4588C20.7158 79.8407 22.0344 78.522 23.6684 78.522H124.844V126.858C124.844 133.145 119.72 138.249 113.392 138.249" fill="white"/>
<mask id="mask14_1068_1393" style="mask-type:luminance" maskUnits="userSpaceOnUse" x="97" y="78" width="28" height="61">
<path d="M97.7695 78.5303V138.257H113.399C119.72 138.257 124.851 133.16 124.851 126.866V78.5303H97.7695Z" fill="white"/>
</mask>
<g mask="url(#mask14_1068_1393)">
<mask id="mask15_1068_1393" style="mask-type:luminance" maskUnits="userSpaceOnUse" x="97" y="78" width="28" height="61">
<path d="M124.851 78.5303H97.7695V138.257H124.851V78.5303Z" fill="url(#paint8_linear_1068_1393)"/>
</mask>
<g mask="url(#mask15_1068_1393)">
<path d="M124.851 78.5303H97.7695V138.257H124.851V78.5303Z" fill="url(#paint9_linear_1068_1393)"/>
</g>
</g>
<path d="M98.3211 138.25H29.6741C21.0816 138.25 14.123 131.321 14.123 122.782V81.4671C14.123 79.849 15.4417 78.5303 17.0756 78.5303H113.872V122.782C113.872 131.328 106.907 138.25 98.3211 138.25Z" fill="#1E1446"/>
<path d="M124.844 74.2088H23.6684C22.0344 74.2088 20.7158 72.8973 20.7158 71.272V56.0535C20.7158 54.4354 22.0344 53.1167 23.6684 53.1167H116.108C120.931 53.1167 124.844 57.0087 124.844 61.8059V74.2088Z" fill="white"/>
<mask id="mask16_1068_1393" style="mask-type:luminance" maskUnits="userSpaceOnUse" x="20" y="53" width="105" height="22">
<path d="M23.6684 53.1167C22.0344 53.1167 20.7158 54.4354 20.7158 56.0535V71.272C20.7158 72.8901 22.0344 74.2088 23.6684 74.2088H124.844V61.8059C124.844 57.0087 120.931 53.1167 116.108 53.1167H23.6684Z" fill="white"/>
</mask>
<g mask="url(#mask16_1068_1393)">
<mask id="mask17_1068_1393" style="mask-type:luminance" maskUnits="userSpaceOnUse" x="20" y="53" width="105" height="22">
<path d="M124.844 53.1167H20.7158V74.2088H124.844V53.1167Z" fill="url(#paint10_linear_1068_1393)"/>
</mask>
<g mask="url(#mask17_1068_1393)">
<path d="M124.844 53.1167H20.7158V74.2088H124.844V53.1167Z" fill="url(#paint11_linear_1068_1393)"/>
</g>
</g>
<path d="M113.872 74.2088H17.0756C15.4417 74.2088 14.123 72.8973 14.123 71.272V58.0779C14.123 55.3407 16.359 53.1167 19.1109 53.1167H103.395C109.185 53.1167 113.872 57.7856 113.872 63.538V74.2088Z" fill="#1E1446"/>
<path d="M64.9184 74.2519L44.7235 74.2234L36.4893 53.0742L56.6842 53.1027L64.9184 74.2519Z" fill="white"/>
<path d="M105.18 74.2599L84.992 74.2385L76.7578 53.0894L96.9527 53.1107L105.18 74.2599Z" fill="white"/>
<path d="M35.5503 77.2819C35.5503 87.0688 27.5955 95.0095 17.7776 95.0095C7.95959 95.0095 0.00488281 87.0759 0.00488281 77.2819C0.00488281 67.4878 7.95959 59.5542 17.7776 59.5542C27.5955 59.5542 35.5503 67.4878 35.5503 77.2819Z" fill="white"/>
<path d="M26.7999 77.2809C26.7999 82.2492 22.758 86.2766 17.7774 86.2766C12.7967 86.2766 8.75488 82.2492 8.75488 77.2809C8.75488 72.3126 12.7967 68.2852 17.7774 68.2852C22.758 68.2852 26.7999 72.3126 26.7999 77.2809Z" fill="#1E1446"/>
<path d="M28.7424 71.5302C28.7424 73.5474 27.1084 75.1726 25.0875 75.1726C23.0666 75.1726 21.4326 73.5403 21.4326 71.5302C21.4326 69.52 23.0666 67.8877 25.0875 67.8877C27.1084 67.8877 28.7424 69.52 28.7424 71.5302Z" fill="white"/>
<mask id="mask18_1068_1393" style="mask-type:luminance" maskUnits="userSpaceOnUse" x="137" y="72" width="36" height="9">
<path d="M141.219 72.2998C138.997 72.2998 137.191 73.8537 137.191 76.3129C137.191 78.5298 138.997 80.3261 141.219 80.3261H168.967C171.189 80.3261 172.995 78.5298 172.995 76.3129C172.995 74.0961 171.189 72.2998 168.967 72.2998H141.219Z" fill="white"/>
</mask>
<g mask="url(#mask18_1068_1393)">
<mask id="mask19_1068_1393" style="mask-type:luminance" maskUnits="userSpaceOnUse" x="137" y="72" width="36" height="9">
<path d="M172.995 72.2998H137.191V80.3332H172.995V72.2998Z" fill="url(#paint12_linear_1068_1393)"/>
</mask>
<g mask="url(#mask19_1068_1393)">
<path d="M172.995 72.2998H137.191V80.3332H172.995V72.2998Z" fill="url(#paint13_linear_1068_1393)"/>
</g>
</g>
<mask id="mask20_1068_1393" style="mask-type:luminance" maskUnits="userSpaceOnUse" x="135" y="30" width="28" height="28">
<path d="M155.868 31.4838L136.246 51.0576C134.677 52.6258 134.498 54.9923 136.246 56.7387C137.816 58.3069 140.367 58.3069 141.936 56.7387L161.558 37.1649C163.127 35.5967 163.127 33.0519 161.558 31.4838C160.77 30.6997 159.738 30.3076 158.713 30.3076C157.688 30.3076 156.649 30.6997 155.868 31.4838Z" fill="white"/>
</mask>
<g mask="url(#mask20_1068_1393)">
<mask id="mask21_1068_1393" style="mask-type:luminance" maskUnits="userSpaceOnUse" x="120" y="16" width="58" height="57">
<mask id="mask22_1068_1393" style="mask-type:luminance" maskUnits="userSpaceOnUse" x="120" y="16" width="58" height="57">
<path d="M148.81 16.0643L120.422 44.3003L148.81 72.5363L177.197 44.3003L148.81 16.0643Z" fill="white"/>
</mask>
<g mask="url(#mask22_1068_1393)">
<path d="M148.815 -12.1773L92.0342 44.2998L148.815 100.777L205.595 44.2998L148.815 -12.1773Z" fill="url(#paint14_linear_1068_1393)"/>
</g>
</mask>
<g mask="url(#mask21_1068_1393)">
<path d="M148.815 16.0592L120.422 44.3003L148.815 72.5414L177.207 44.3003L148.815 16.0592Z" fill="url(#paint15_linear_1068_1393)"/>
</g>
</g>
<mask id="mask23_1068_1393" style="mask-type:luminance" maskUnits="userSpaceOnUse" x="135" y="91" width="28" height="29">
<path d="M136.246 92.6068C134.498 94.3461 134.677 96.7197 136.246 98.2879L155.868 117.862C157.437 119.43 159.988 119.43 161.565 117.862C163.135 116.294 163.135 113.749 161.565 112.181L141.943 92.6068C141.155 91.8227 140.13 91.4307 139.098 91.4307C138.066 91.4307 137.034 91.8227 136.253 92.6068" fill="white"/>
</mask>
<g mask="url(#mask23_1068_1393)">
<mask id="mask24_1068_1393" style="mask-type:luminance" maskUnits="userSpaceOnUse" x="120" y="77" width="58" height="57">
<mask id="mask25_1068_1393" style="mask-type:luminance" maskUnits="userSpaceOnUse" x="120" y="77" width="58" height="57">
<path d="M148.812 77.1902L120.425 105.426L148.812 133.662L177.2 105.426L148.812 77.1902Z" fill="white"/>
</mask>
<g mask="url(#mask25_1068_1393)">
<path d="M148.817 48.9487L92.0371 105.426L148.817 161.903L205.598 105.426L148.817 48.9487Z" fill="url(#paint16_linear_1068_1393)"/>
</g>
</mask>
<g mask="url(#mask24_1068_1393)">
<path d="M148.818 77.1852L120.425 105.426L148.818 133.667L177.21 105.426L148.818 77.1852Z" fill="url(#paint17_linear_1068_1393)"/>
</g>
</g>
<g opacity="0.42">
<mask id="mask26_1068_1393" style="mask-type:luminance" maskUnits="userSpaceOnUse" x="14" y="78" width="100" height="51">
<path d="M113.872 78.5303H14.123V128.862H113.872V78.5303Z" fill="white"/>
</mask>
<g mask="url(#mask26_1068_1393)">
<mask id="mask27_1068_1393" style="mask-type:luminance" maskUnits="userSpaceOnUse" x="14" y="78" width="100" height="51">
<path d="M106.77 78.5303L61.7868 87.7113L61.321 98.4748L14.123 108.112C14.123 108.112 14.1302 122.853 14.1302 124.92C14.1302 126.987 14.8397 128.862 14.8397 128.862L66.2085 118.783V107.941L113.872 98.3821V78.5303H106.763H106.77Z" fill="white"/>
</mask>
<g mask="url(#mask27_1068_1393)">
<mask id="mask28_1068_1393" style="mask-type:luminance" maskUnits="userSpaceOnUse" x="-8" y="36" width="144" height="136">
<mask id="mask29_1068_1393" style="mask-type:luminance" maskUnits="userSpaceOnUse" x="-8" y="36" width="144" height="136">
<path d="M90.0115 36.2083L-7.46387 90.5723L37.9846 171.194L135.46 116.83L90.0115 36.2083Z" fill="white"/>
</mask>
<g mask="url(#mask29_1068_1393)">
<path d="M101.279 -24.4457L-65.3555 68.4897L26.7261 231.834L193.361 138.899L101.279 -24.4457Z" fill="url(#paint18_linear_1068_1393)"/>
</g>
</mask>
<g mask="url(#mask28_1068_1393)">
<path d="M90.0115 36.2083L-7.46387 90.5723L37.9846 171.194L135.46 116.83L90.0115 36.2083Z" fill="url(#paint19_linear_1068_1393)"/>
</g>
</g>
</g>
</g>
<path d="M104.062 78.4148H92.0149V106.992C92.0149 107.747 91.4702 108.446 90.7106 108.517C89.8435 108.602 89.1053 107.925 89.1053 107.07V78.4077H77.0586V106.535C77.0586 113.97 83.0999 120 90.5601 120C98.0203 120 104.062 113.97 104.062 106.535V78.4077V78.4148Z" fill="#77EDED"/>
<defs>
<linearGradient id="paint0_linear_1068_1393" x1="42.8065" y1="165.333" x2="51.8531" y2="156.869" gradientUnits="userSpaceOnUse">
<stop stop-color="white"/>
<stop offset="1"/>
</linearGradient>
<linearGradient id="paint1_linear_1068_1393" x1="42.6394" y1="165.148" x2="51.686" y2="156.685" gradientUnits="userSpaceOnUse">
<stop stop-color="#8E83FF"/>
<stop offset="1" stop-color="#8E83FF"/>
</linearGradient>
<linearGradient id="paint2_linear_1068_1393" x1="47.7063" y1="133.054" x2="47.7063" y2="148.914" gradientUnits="userSpaceOnUse">
<stop stop-color="white"/>
<stop offset="1"/>
</linearGradient>
<linearGradient id="paint3_linear_1068_1393" x1="47.7135" y1="133.054" x2="47.7135" y2="148.914" gradientUnits="userSpaceOnUse">
<stop stop-color="#8E83FF"/>
<stop offset="1" stop-color="#8E83FF"/>
</linearGradient>
<linearGradient id="paint4_linear_1068_1393" x1="97.6922" y1="165.339" x2="106.739" y2="156.876" gradientUnits="userSpaceOnUse">
<stop stop-color="white"/>
<stop offset="1"/>
</linearGradient>
<linearGradient id="paint5_linear_1068_1393" x1="97.6886" y1="165.304" x2="106.735" y2="156.84" gradientUnits="userSpaceOnUse">
<stop stop-color="#8E83FF"/>
<stop offset="1" stop-color="#8E83FF"/>
</linearGradient>
<linearGradient id="paint6_linear_1068_1393" x1="102.587" y1="133.054" x2="102.587" y2="148.914" gradientUnits="userSpaceOnUse">
<stop stop-color="white"/>
<stop offset="1"/>
</linearGradient>
<linearGradient id="paint7_linear_1068_1393" x1="102.594" y1="133.054" x2="102.594" y2="148.914" gradientUnits="userSpaceOnUse">
<stop stop-color="#8E83FF"/>
<stop offset="1" stop-color="#8E83FF"/>
</linearGradient>
<linearGradient id="paint8_linear_1068_1393" x1="93.1504" y1="106.555" x2="119.903" y2="106.555" gradientUnits="userSpaceOnUse">
<stop stop-color="white"/>
<stop offset="0.99"/>
<stop offset="1"/>
</linearGradient>
<linearGradient id="paint9_linear_1068_1393" x1="93.1504" y1="106.555" x2="119.903" y2="106.555" gradientUnits="userSpaceOnUse">
<stop stop-color="#8232F0"/>
<stop offset="0.99" stop-color="#8232F0"/>
<stop offset="1" stop-color="#8232F0"/>
</linearGradient>
<linearGradient id="paint10_linear_1068_1393" x1="101.802" y1="60.6391" x2="117.977" y2="60.6391" gradientUnits="userSpaceOnUse">
<stop stop-color="white"/>
<stop offset="0.05" stop-color="white"/>
<stop offset="0.93"/>
<stop offset="1"/>
</linearGradient>
<linearGradient id="paint11_linear_1068_1393" x1="101.802" y1="60.6391" x2="117.977" y2="60.6391" gradientUnits="userSpaceOnUse">
<stop stop-color="#8232F0"/>
<stop offset="0.05" stop-color="#8232F0"/>
<stop offset="0.93" stop-color="#8232F0"/>
<stop offset="1" stop-color="#8232F0"/>
</linearGradient>
<linearGradient id="paint12_linear_1068_1393" x1="127.201" y1="70.1776" x2="161.141" y2="70.1776" gradientUnits="userSpaceOnUse">
<stop stop-color="white"/>
<stop offset="0.99" stop-color="#1A1A1A"/>
<stop offset="1" stop-color="#1A1A1A"/>
</linearGradient>
<linearGradient id="paint13_linear_1068_1393" x1="127.201" y1="70.1776" x2="161.141" y2="70.1776" gradientUnits="userSpaceOnUse">
<stop stop-color="#77EDED"/>
<stop offset="0.99" stop-color="#77EDED"/>
<stop offset="1" stop-color="#77EDED"/>
</linearGradient>
<linearGradient id="paint14_linear_1068_1393" x1="132.655" y1="59.4657" x2="156.556" y2="35.4364" gradientUnits="userSpaceOnUse">
<stop stop-color="white"/>
<stop offset="0.99" stop-color="#1A1A1A"/>
<stop offset="1" stop-color="#1A1A1A"/>
</linearGradient>
<linearGradient id="paint15_linear_1068_1393" x1="132.655" y1="59.4259" x2="156.556" y2="35.3965" gradientUnits="userSpaceOnUse">
<stop stop-color="#77EDED"/>
<stop offset="0.99" stop-color="#77EDED"/>
<stop offset="1" stop-color="#77EDED"/>
</linearGradient>
<linearGradient id="paint16_linear_1068_1393" x1="132.412" y1="90.1874" x2="156.313" y2="114.217" gradientUnits="userSpaceOnUse">
<stop stop-color="white"/>
<stop offset="0.99" stop-color="#1A1A1A"/>
<stop offset="1" stop-color="#1A1A1A"/>
</linearGradient>
<linearGradient id="paint17_linear_1068_1393" x1="132.412" y1="90.1879" x2="156.313" y2="114.217" gradientUnits="userSpaceOnUse">
<stop stop-color="#77EDED"/>
<stop offset="0.99" stop-color="#77EDED"/>
<stop offset="1" stop-color="#77EDED"/>
</linearGradient>
<linearGradient id="paint18_linear_1068_1393" x1="52.3032" y1="78.7089" x2="70.1861" y2="110.773" gradientUnits="userSpaceOnUse">
<stop stop-color="white"/>
<stop offset="1"/>
</linearGradient>
<linearGradient id="paint19_linear_1068_1393" x1="52.297" y1="78.7125" x2="70.1798" y2="110.777" gradientUnits="userSpaceOnUse">
<stop stop-color="#8E83FF"/>
<stop offset="1" stop-color="#8E83FF"/>
</linearGradient>
</defs>
</svg>
