<svg width="181" height="204" viewBox="0 0 181 204" fill="none" xmlns="http://www.w3.org/2000/svg">
<g clip-path="url(#clip0_892_6427)">
<path d="M118.771 51.5835L129.106 51.918L128.584 68.0783L118.248 67.7438L118.771 51.5835Z" fill="#77EDED"/>
<g opacity="0.42">
<mask id="mask0_892_6427" style="mask-type:luminance" maskUnits="userSpaceOnUse" x="118" y="51" width="12" height="18">
<path d="M118.763 51.5833L129.106 51.918L128.584 68.0783L118.24 67.7436L118.763 51.5833Z" fill="white"/>
</mask>
<g mask="url(#mask0_892_6427)">
<mask id="mask1_892_6427" style="mask-type:luminance" maskUnits="userSpaceOnUse" x="118" y="51" width="12" height="18">
<path d="M118.771 51.5835L129.106 51.918L128.584 68.0783L118.248 67.7438L118.771 51.5835Z" fill="white"/>
</mask>
<g mask="url(#mask1_892_6427)">
<mask id="mask2_892_6427" style="mask-type:luminance" maskUnits="userSpaceOnUse" x="118" y="51" width="12" height="18">
<path d="M118.771 51.5835L129.106 51.918L128.584 68.0783L118.248 67.7438L118.771 51.5835Z" fill="url(#paint0_linear_892_6427)"/>
</mask>
<g mask="url(#mask2_892_6427)">
<path d="M118.771 51.5835L129.106 51.918L128.584 68.0783L118.248 67.7438L118.771 51.5835Z" fill="url(#paint1_linear_892_6427)"/>
</g>
</g>
</g>
</g>
<path d="M91.5304 38.8074C92.3125 31.0297 101.135 26.8551 107.903 30.7699L122.373 39.1419C123.521 39.809 124.925 39.8545 126.115 39.263L141.332 31.8012C148.33 28.3655 156.822 33.1088 157.108 40.9043C157.116 41.1733 157.116 41.4505 157.107 41.7274C156.897 48.2049 151.48 53.2792 145.005 53.0697L102.814 51.7045C96.3392 51.4949 91.2617 46.0726 91.471 39.6035C91.4797 39.335 91.4968 39.0667 91.5223 38.7988M145.154 48.1861C148.653 48.2993 151.578 45.555 151.692 42.0561C151.805 38.5572 149.063 35.6295 145.564 35.5163C142.066 35.4031 139.14 38.1474 139.027 41.6463C138.914 45.1452 141.656 48.0729 145.154 48.1861ZM102.277 46.4626C105.582 46.5696 108.351 43.9714 108.458 40.6655C108.565 37.3596 105.97 34.5878 102.665 34.4809C99.3598 34.3739 96.5903 36.9721 96.4833 40.278C96.3763 43.5839 98.972 46.3557 102.277 46.4626Z" fill="#77EDED"/>
<mask id="mask3_892_6427" style="mask-type:luminance" maskUnits="userSpaceOnUse" x="91" y="29" width="67" height="25">
<path d="M152.852 42.1035C152.986 37.9669 149.747 34.5107 145.61 34.3769C141.472 34.243 138.017 37.4825 137.883 41.6191C137.749 45.7556 140.988 49.2118 145.125 49.3457C149.263 49.4796 152.718 46.2316 152.852 42.1035ZM109.964 40.7156C110.098 36.5791 106.859 33.1229 102.722 32.989C98.5841 32.8552 95.1288 36.0947 94.995 40.2313C94.8611 44.3678 98.1082 47.8242 102.237 47.9579C106.366 48.0915 109.83 44.8438 109.964 40.7156ZM157.108 40.9057C157.116 41.1747 157.116 41.4519 157.107 41.7288C156.897 48.2063 151.48 53.2806 145.005 53.0711L102.815 51.7059C96.3394 51.4963 91.2618 46.074 91.4712 39.6049C91.4798 39.3364 91.4969 39.0681 91.5224 38.8002C92.3045 31.0225 101.127 26.8479 107.895 30.7626L122.365 39.1347C123.513 39.8018 124.917 39.8472 126.107 39.2557L141.332 31.8026C143.026 30.9755 144.814 30.6218 146.546 30.6778C151.962 30.8531 156.887 35.0021 157.108 40.9057Z" fill="white"/>
</mask>
<g mask="url(#mask3_892_6427)">
<mask id="mask4_892_6427" style="mask-type:luminance" maskUnits="userSpaceOnUse" x="85" y="11" width="79" height="58">
<mask id="mask5_892_6427" style="mask-type:luminance" maskUnits="userSpaceOnUse" x="85" y="11" width="79" height="58">
<path d="M95.8761 11.9691L163.068 30.1802L152.762 68.0543L85.5701 49.8432L95.8761 11.9691Z" fill="white"/>
</mask>
<g mask="url(#mask5_892_6427)">
<path d="M91.4386 -5.39657L175.683 17.436L157.185 85.415L72.9407 62.5824L91.4386 -5.39657Z" fill="url(#paint2_linear_892_6427)"/>
</g>
</mask>
<g mask="url(#mask4_892_6427)">
<path d="M95.8761 11.9691L163.068 30.1802L152.762 68.0543L85.5701 49.8432L95.8761 11.9691Z" fill="url(#paint3_linear_892_6427)"/>
</g>
</g>
<g opacity="0.84">
<mask id="mask6_892_6427" style="mask-type:luminance" maskUnits="userSpaceOnUse" x="91" y="28" width="67" height="26">
<path d="M91.8257 28.9071L157.453 31.0308L156.727 53.4588L91.1 51.3352L91.8257 28.9071Z" fill="white"/>
</mask>
<g mask="url(#mask6_892_6427)">
<mask id="mask7_892_6427" style="mask-type:luminance" maskUnits="userSpaceOnUse" x="91" y="29" width="67" height="25">
<path d="M152.852 42.1037C152.986 37.9671 149.748 34.5109 145.61 34.3771C141.473 34.2432 138.017 37.4827 137.884 41.6193C137.75 45.7559 140.997 49.2123 145.126 49.3459C149.255 49.4795 152.719 46.2402 152.852 42.1037ZM109.973 40.7161C110.106 36.5796 106.868 33.1234 102.73 32.9895C98.5929 32.8556 95.1376 36.0952 95.0038 40.2317C94.8699 44.3683 98.1169 47.8247 102.246 47.9583C106.375 48.092 109.839 44.8527 109.973 40.7161ZM157.117 40.9062C157.125 41.1752 157.125 41.4524 157.116 41.7293C156.906 48.2068 151.489 53.2811 145.014 53.0716L102.823 51.7064C96.3481 51.4968 91.2706 46.0745 91.4799 39.6054C91.4886 39.3369 91.5057 39.0686 91.5312 38.8007C92.3133 31.023 101.136 26.8484 107.904 30.7631L122.373 39.1351C123.522 39.8023 124.926 39.8477 126.116 39.2562L141.333 31.8028C143.026 30.9757 144.814 30.622 146.546 30.678C151.962 30.8533 156.887 35.0024 157.109 40.9059" fill="white"/>
</mask>
<g mask="url(#mask7_892_6427)">
<mask id="mask8_892_6427" style="mask-type:luminance" maskUnits="userSpaceOnUse" x="90" y="24" width="69" height="32">
<mask id="mask9_892_6427" style="mask-type:luminance" maskUnits="userSpaceOnUse" x="90" y="24" width="69" height="32">
<path d="M92.049 24.3297L158.373 28.7222L156.584 55.6696L90.2603 51.2771L92.049 24.3297Z" fill="white"/>
</mask>
<g mask="url(#mask9_892_6427)">
<path d="M91.2833 22.0327L159.438 26.5464L157.351 57.9753L89.197 53.4616L91.2833 22.0327Z" fill="url(#paint4_linear_892_6427)"/>
</g>
</mask>
<g mask="url(#mask8_892_6427)">
<path d="M92.049 24.338L158.373 28.7305L156.585 55.6695L90.2608 51.277L92.049 24.338Z" fill="url(#paint5_linear_892_6427)"/>
</g>
</g>
</g>
</g>
<path d="M49.45 139.432L97.7202 140.994C99.6376 141.056 101.235 139.562 101.297 137.649L103.624 65.7162C103.686 63.8031 102.189 62.2092 100.272 62.1472L52.0014 60.5852C50.0924 60.5234 48.4867 62.0169 48.4248 63.93L46.0974 135.854C46.0355 137.767 47.5413 139.361 49.4503 139.423" fill="white"/>
<path d="M49.45 139.432L97.7202 140.994C99.6376 141.056 101.235 139.562 101.297 137.649L103.624 65.7162C103.686 63.8031 102.189 62.2092 100.272 62.1472L52.0014 60.5852C50.0924 60.5234 48.4867 62.0169 48.4248 63.93L46.0974 135.854C46.0355 137.767 47.5413 139.361 49.4503 139.423" fill="white"/>
<mask id="mask10_892_6427" style="mask-type:luminance" maskUnits="userSpaceOnUse" x="46" y="60" width="58" height="81">
<path d="M100.272 62.1472L52.0014 60.5852C50.0924 60.5234 48.4864 62.0253 48.4248 63.93L46.0974 135.854C46.0358 137.759 47.5413 139.361 49.4503 139.423L97.7205 140.985C99.6295 141.047 101.235 139.545 101.297 137.64L103.624 65.7162C103.686 63.8115 102.181 62.2089 100.272 62.1472Z" fill="white"/>
</mask>
<g mask="url(#mask10_892_6427)">
<mask id="mask11_892_6427" style="mask-type:luminance" maskUnits="userSpaceOnUse" x="45" y="60" width="59" height="82">
<path d="M48.5367 60.4731L103.736 62.2593L101.185 141.097L45.9856 139.311L48.5367 60.4731Z" fill="url(#paint6_linear_892_6427)"/>
</mask>
<g mask="url(#mask11_892_6427)">
<path d="M48.5367 60.4731L103.736 62.2593L101.185 141.097L45.9856 139.311L48.5367 60.4731Z" fill="url(#paint7_linear_892_6427)"/>
</g>
</g>
<path d="M121.073 171.659C127.003 168.945 134.961 167.296 143.777 167.228L144.676 139.464L154.305 139.775L153.185 174.387C153.151 175.427 152.274 176.247 151.231 176.213L121.824 175.262C119.839 175.197 119.27 172.483 121.073 171.659Z" fill="#1E1446"/>
<g opacity="0.42">
<mask id="mask12_892_6427" style="mask-type:luminance" maskUnits="userSpaceOnUse" x="119" y="138" width="36" height="39">
<path d="M121.104 138.701L154.296 139.775L153.115 176.274L119.923 175.2L121.104 138.701Z" fill="white"/>
</mask>
<g mask="url(#mask12_892_6427)">
<mask id="mask13_892_6427" style="mask-type:luminance" maskUnits="userSpaceOnUse" x="119" y="139" width="36" height="38">
<path d="M154.296 139.775L153.176 174.387C153.142 175.427 152.265 176.247 151.223 176.213L121.815 175.262C119.83 175.197 119.261 172.483 121.064 171.659C126.994 168.945 134.953 167.296 143.769 167.228L144.667 139.464L154.296 139.775Z" fill="white"/>
</mask>
<g mask="url(#mask13_892_6427)">
<mask id="mask14_892_6427" style="mask-type:luminance" maskUnits="userSpaceOnUse" x="102" y="123" width="69" height="69">
<mask id="mask15_892_6427" style="mask-type:luminance" maskUnits="userSpaceOnUse" x="102" y="123" width="69" height="69">
<path d="M131.56 123.296L170.916 151.821L141.918 191.655L102.562 163.131L131.56 123.296Z" fill="white"/>
</mask>
<g mask="url(#mask15_892_6427)">
<path d="M126.296 91.6132L202.748 147.024L147.194 223.338L70.7421 167.927L126.296 91.6132Z" fill="url(#paint8_linear_892_6427)"/>
</g>
</mask>
<g mask="url(#mask14_892_6427)">
<path d="M131.56 123.296L170.916 151.821L141.918 191.655L102.562 163.131L131.56 123.296Z" fill="url(#paint9_linear_892_6427)"/>
</g>
</g>
</g>
</g>
<path d="M71.0458 170.041C76.9759 167.326 84.934 165.677 93.7501 165.61L94.6485 137.845L104.277 138.157L103.157 172.768C103.124 173.808 102.247 174.628 101.204 174.595L71.7963 173.643C69.8117 173.579 69.2429 170.864 71.0458 170.041Z" fill="#1E1446"/>
<g opacity="0.42">
<mask id="mask16_892_6427" style="mask-type:luminance" maskUnits="userSpaceOnUse" x="69" y="137" width="36" height="38">
<path d="M71.0852 137.083L104.277 138.157L103.096 174.656L69.9042 173.582L71.0852 137.083Z" fill="white"/>
</mask>
<g mask="url(#mask16_892_6427)">
<mask id="mask17_892_6427" style="mask-type:luminance" maskUnits="userSpaceOnUse" x="69" y="137" width="36" height="38">
<path d="M104.277 138.157L103.157 172.768C103.124 173.808 102.247 174.628 101.204 174.595L71.7963 173.643C70.6274 173.605 69.9511 172.651 69.9566 171.702L69.9593 171.618C69.9965 170.989 70.3364 170.37 71.0455 170.049C76.9756 167.335 84.9337 165.686 93.7498 165.618L94.6482 137.854L104.277 138.165L104.277 138.157Z" fill="white"/>
</mask>
<g mask="url(#mask17_892_6427)">
<mask id="mask18_892_6427" style="mask-type:luminance" maskUnits="userSpaceOnUse" x="69" y="137" width="36" height="38">
<path d="M70.3452 137.059L104.277 138.157L103.096 174.656L69.1641 173.558L70.3452 137.059Z" fill="url(#paint10_linear_892_6427)"/>
</mask>
<g mask="url(#mask18_892_6427)">
<path d="M71.0852 137.083L104.277 138.157L103.096 174.656L69.9042 173.582L71.0852 137.083Z" fill="url(#paint11_linear_892_6427)"/>
</g>
</g>
</g>
</g>
<path d="M32.2913 70.2693C35.8317 70.3839 39.1909 71.1561 42.2722 72.4485L58.8408 78.1251C68.041 81.2786 74.1037 90.0757 73.789 99.8004C73.4743 109.525 66.8558 117.904 57.4708 120.464L40.5696 125.066C37.4114 126.148 34.0093 126.702 30.4689 126.587C14.9283 126.084 2.7303 113.074 3.23368 97.5173C3.73706 81.9612 16.7422 69.7661 32.2913 70.2693Z" fill="#292647"/>
<path d="M10.0206 97.738C9.64509 109.342 18.7425 119.052 30.3391 119.428C41.9358 119.803 51.6419 110.701 52.0174 99.097C52.3929 87.4928 43.2955 77.7827 31.6989 77.4074C20.1022 77.0322 10.3961 86.1338 10.0206 97.738Z" fill="#8232F0"/>
<g opacity="0.22">
<mask id="mask19_892_6427" style="mask-type:luminance" maskUnits="userSpaceOnUse" x="14" y="82" width="34" height="33">
<path d="M15.7213 82.0896L47.3408 83.1128L46.317 114.754L14.6974 113.731L15.7213 82.0896Z" fill="white"/>
</mask>
<g mask="url(#mask19_892_6427)">
<mask id="mask20_892_6427" style="mask-type:luminance" maskUnits="userSpaceOnUse" x="15" y="82" width="32" height="33">
<path d="M46.829 98.9291C46.5464 107.664 39.2365 114.516 30.5075 114.234C21.7784 113.951 14.9268 106.641 15.2095 97.9059C15.4921 89.1713 22.802 82.3187 31.5311 82.6012C40.2601 82.8837 47.1117 90.1945 46.829 98.9291Z" fill="white"/>
</mask>
<g mask="url(#mask20_892_6427)">
<mask id="mask21_892_6427" style="mask-type:luminance" maskUnits="userSpaceOnUse" x="14" y="82" width="34" height="33">
<path d="M15.7129 82.0893L47.3408 83.1128L46.317 114.754L14.689 113.73L15.7129 82.0893Z" fill="url(#paint12_linear_892_6427)"/>
</mask>
<g mask="url(#mask21_892_6427)">
<path d="M15.7129 82.0893L47.3408 83.1128L46.317 114.754L14.689 113.73L15.7129 82.0893Z" fill="url(#paint13_linear_892_6427)"/>
</g>
</g>
</g>
</g>
<path d="M82.145 140.49L172.791 143.423C174.708 143.485 176.305 141.991 176.367 140.078L178.695 68.1454C178.757 66.2323 177.259 64.6384 175.342 64.5764L84.6964 61.6432C82.7875 61.5814 81.1818 63.0749 81.1199 64.988L78.7925 136.912C78.7306 138.825 80.2364 140.419 82.1453 140.481" fill="#1E1446"/>
<g opacity="0.42">
<mask id="mask22_892_6427" style="mask-type:luminance" maskUnits="userSpaceOnUse" x="79" y="75" width="100" height="55">
<path d="M80.786 75.0738L178.353 78.231L176.704 129.17L79.1377 126.013L80.786 75.0738Z" fill="white"/>
</mask>
<g mask="url(#mask22_892_6427)">
<mask id="mask23_892_6427" style="mask-type:luminance" maskUnits="userSpaceOnUse" x="80" y="75" width="98" height="55">
<path d="M131.393 87.1518L131.505 97.7303L177.367 108.672L176.687 129.17L126.084 117.495L126.428 106.864L80.1097 95.9748L80.786 75.0738L131.393 87.1518Z" fill="white"/>
</mask>
<g mask="url(#mask23_892_6427)">
<mask id="mask24_892_6427" style="mask-type:luminance" maskUnits="userSpaceOnUse" x="57" y="34" width="143" height="136">
<mask id="mask25_892_6427" style="mask-type:luminance" maskUnits="userSpaceOnUse" x="57" y="34" width="143" height="136">
<path d="M105.46 34.304L199.73 91.1235L152.014 169.949L57.7437 113.129L105.46 34.304Z" fill="white"/>
</mask>
<g mask="url(#mask25_892_6427)">
<path d="M96.0489 -26.1311L257.726 71.3159L161.436 230.382L-0.240413 132.935L96.0489 -26.1311Z" fill="url(#paint14_linear_892_6427)"/>
</g>
</mask>
<g mask="url(#mask24_892_6427)">
<path d="M105.46 34.304L199.73 91.1235L152.014 169.949L57.7437 113.129L105.46 34.304Z" fill="url(#paint15_linear_892_6427)"/>
</g>
</g>
</g>
</g>
<path d="M111.433 102.506C111.048 114.395 120.373 124.348 132.256 124.732C144.138 125.117 154.088 115.788 154.472 103.898C154.857 92.009 145.532 82.0563 133.649 81.6718C121.767 81.2873 111.817 90.6162 111.433 102.506Z" fill="white"/>
<path d="M122.029 102.849C121.833 108.89 126.569 113.94 132.599 114.135C138.629 114.33 143.681 109.597 143.877 103.556C144.072 97.5143 139.336 92.4642 133.307 92.2691C127.277 92.074 122.224 96.8073 122.029 102.849Z" fill="#292647"/>
<path d="M118.171 95.1223C118.07 98.2269 120.503 100.825 123.615 100.926C126.726 101.027 129.322 98.591 129.423 95.4864C129.523 92.3819 127.09 89.7834 123.979 89.6827C120.867 89.582 118.271 92.0178 118.171 95.1223Z" fill="white"/>
<path d="M14.5155 91.7679C14.415 94.8724 16.848 97.4709 19.9595 97.5716C23.071 97.6723 25.6668 95.2365 25.7673 92.132C25.8678 89.0274 23.4348 86.4289 20.3233 86.3282C17.2118 86.2275 14.6159 88.6633 14.5155 91.7679Z" fill="white"/>
</g>
<defs>
<linearGradient id="paint0_linear_892_6427" x1="122.117" y1="72.703" x2="122.681" y2="55.2674" gradientUnits="userSpaceOnUse">
<stop stop-color="white"/>
<stop offset="1"/>
</linearGradient>
<linearGradient id="paint1_linear_892_6427" x1="122.117" y1="72.703" x2="122.681" y2="55.2674" gradientUnits="userSpaceOnUse">
<stop stop-color="#8E83FF"/>
<stop offset="1" stop-color="#8E83FF"/>
</linearGradient>
<linearGradient id="paint2_linear_892_6427" x1="131.612" y1="26.9566" x2="127.639" y2="41.616" gradientUnits="userSpaceOnUse">
<stop stop-color="white"/>
<stop offset="0.01" stop-color="white"/>
<stop offset="0.91"/>
<stop offset="1"/>
</linearGradient>
<linearGradient id="paint3_linear_892_6427" x1="131.599" y1="26.9709" x2="127.626" y2="41.6303" gradientUnits="userSpaceOnUse">
<stop stop-color="white"/>
<stop offset="0.01" stop-color="white"/>
<stop offset="0.91" stop-color="white"/>
<stop offset="1" stop-color="white"/>
</linearGradient>
<linearGradient id="paint4_linear_892_6427" x1="95.4313" y1="34.6709" x2="103.575" y2="35.2115" gradientUnits="userSpaceOnUse">
<stop stop-color="white"/>
<stop offset="0.07" stop-color="white"/>
<stop offset="0.96"/>
<stop offset="1"/>
</linearGradient>
<linearGradient id="paint5_linear_892_6427" x1="95.4315" y1="34.6623" x2="103.575" y2="35.2028" gradientUnits="userSpaceOnUse">
<stop stop-color="white"/>
<stop offset="0.07" stop-color="white"/>
<stop offset="0.96" stop-color="white"/>
<stop offset="1" stop-color="white"/>
</linearGradient>
<linearGradient id="paint6_linear_892_6427" x1="94.8022" y1="96.8849" x2="66.8996" y2="95.982" gradientUnits="userSpaceOnUse">
<stop stop-color="white"/>
<stop offset="0.97"/>
<stop offset="1"/>
</linearGradient>
<linearGradient id="paint7_linear_892_6427" x1="94.7933" y1="96.9014" x2="66.8907" y2="95.9985" gradientUnits="userSpaceOnUse">
<stop stop-color="#8232F0"/>
<stop offset="0.97" stop-color="#8232F0"/>
<stop offset="1" stop-color="#8232F0"/>
</linearGradient>
<linearGradient id="paint8_linear_892_6427" x1="115.554" y1="187.989" x2="144.104" y2="148.598" gradientUnits="userSpaceOnUse">
<stop stop-color="white"/>
<stop offset="1"/>
</linearGradient>
<linearGradient id="paint9_linear_892_6427" x1="115.458" y1="187.992" x2="144.008" y2="148.6" gradientUnits="userSpaceOnUse">
<stop stop-color="#8E83FF"/>
<stop offset="1" stop-color="#8E83FF"/>
</linearGradient>
<linearGradient id="paint10_linear_892_6427" x1="82.0336" y1="133.101" x2="81.4295" y2="151.77" gradientUnits="userSpaceOnUse">
<stop stop-color="white"/>
<stop offset="1"/>
</linearGradient>
<linearGradient id="paint11_linear_892_6427" x1="82.4079" y1="133.113" x2="81.8038" y2="151.782" gradientUnits="userSpaceOnUse">
<stop stop-color="#8E83FF"/>
<stop offset="1" stop-color="#8E83FF"/>
</linearGradient>
<linearGradient id="paint12_linear_892_6427" x1="38.4131" y1="90.9637" x2="37.5285" y2="118.3" gradientUnits="userSpaceOnUse">
<stop stop-color="white"/>
<stop offset="1"/>
</linearGradient>
<linearGradient id="paint13_linear_892_6427" x1="38.4296" y1="90.9727" x2="37.5451" y2="118.309" gradientUnits="userSpaceOnUse">
<stop stop-color="white"/>
<stop offset="1" stop-color="#FFD8B5"/>
</linearGradient>
<linearGradient id="paint14_linear_892_6427" x1="143.749" y1="88.5589" x2="125.16" y2="119.399" gradientUnits="userSpaceOnUse">
<stop stop-color="white"/>
<stop offset="1"/>
</linearGradient>
<linearGradient id="paint15_linear_892_6427" x1="143.682" y1="88.5871" x2="125.094" y2="119.427" gradientUnits="userSpaceOnUse">
<stop stop-color="#8E83FF"/>
<stop offset="1" stop-color="#8E83FF"/>
</linearGradient>
<clipPath id="clip0_892_6427">
<rect width="174.419" height="197.565" fill="white" transform="matrix(-0.999477 -0.032342 -0.032342 0.999477 180.718 5.64111)"/>
</clipPath>
</defs>
</svg>
