<svg width="1440" height="138" viewBox="0 0 1440 138" fill="none" xmlns="http://www.w3.org/2000/svg">
<g clip-path="url(#clip0_1070_1916)">
<mask id="mask0_1070_1916" style="mask-type:luminance" maskUnits="userSpaceOnUse" x="-3" y="-353" width="1447" height="491">
<path d="M1433.24 -352.741L1250.71 -316.739C1245.41 -315.703 1239.91 -317.963 1239.91 -321.189V-337.601C1239.91 -344.453 1226.66 -348.361 1217.41 -344.641L1047.31 -300.186C1041.93 -298.773 1035.81 -301.057 1035.81 -304.471V-332.185C1035.81 -340.073 1019.22 -343.817 1010.21 -338.26L833.593 -268.446C832.9 -268.14 832.248 -267.786 831.678 -267.41V-340.921C831.678 -345.559 821.324 -347.396 816.8 -343.582L722.232 -263.501C721.499 -262.865 720.887 -262.206 720.439 -261.5C719.909 -262.253 719.257 -262.959 718.36 -263.619L623.997 -335.529C619.268 -339.131 609.363 -337.201 609.363 -332.68V-267.363C608.711 -267.81 607.977 -268.21 607.162 -268.563L430.501 -333.833C421.248 -339.084 405.229 -335.246 405.229 -327.5V-303.647C405.229 -300.257 399.196 -297.973 393.815 -299.338L223.472 -342.428C214.097 -345.983 201.135 -342.027 201.135 -335.246V-321.213C201.135 -317.987 195.632 -315.703 190.333 -316.762L7.80185 -352.741C2.50283 -353.777 -3 -351.517 -3 -348.291V132.922C-3 136.148 2.50283 138.432 7.80185 137.372L190.333 101.37C195.632 100.334 201.135 102.595 201.135 105.82V122.232C201.135 129.084 214.382 132.993 223.635 129.272L393.734 84.8172C399.114 83.4045 405.229 85.6884 405.229 89.1026V116.816C405.229 124.704 421.819 128.425 430.827 122.891L607.488 53.077C608.181 52.7709 608.793 52.4177 609.363 52.0174V125.529C609.363 130.167 619.717 132.004 624.241 128.189L718.808 48.1088C719.542 47.4731 720.113 46.8137 720.561 46.1074C721.091 46.8608 721.784 47.5672 722.64 48.2265L817.003 120.136C821.732 123.739 831.637 121.808 831.637 117.287V51.9704C832.289 52.4177 833.023 52.818 833.838 53.1712L1010.5 118.441C1019.71 123.692 1035.77 119.854 1035.77 112.107V88.255C1035.77 84.8643 1041.8 82.5804 1047.18 83.9461L1217.53 127.035C1226.9 130.591 1239.87 126.635 1239.87 119.854V105.797C1239.87 102.571 1245.37 100.287 1250.67 101.347L1433.2 137.349C1438.5 138.385 1444 136.124 1444 132.898V-348.291C1444 -350.975 1440.21 -353 1435.85 -353C1434.99 -353 1434.09 -352.929 1433.2 -352.741" fill="white"/>
</mask>
<g mask="url(#mask0_1070_1916)">
<mask id="mask1_1070_1916" style="mask-type:luminance" maskUnits="userSpaceOnUse" x="-3" y="-354" width="1447" height="493">
<path d="M1444 -353.776H-3V138.433H1444V-353.776Z" fill="white"/>
</mask>
<g mask="url(#mask1_1070_1916)">
<path d="M-3.77148 -354.059H1444.08V138.715H-3.77148V-354.059Z" fill="#12082D"/>
</g>
</g>
</g>
<defs>
<clipPath id="clip0_1070_1916">
<rect width="1440" height="138" fill="white"/>
</clipPath>
</defs>
</svg>
