<svg preserveAspectRatio="none" width="100%" height="100%" overflow="visible" style="display: block;" viewBox="0 0 24 24" fill="none" xmlns="http://www.w3.org/2000/svg">
<g id="appstore 1">
<path id="Vector" d="M16.7663 12.4763C16.7588 11.1 17.3813 10.0612 18.6413 9.29625C17.9363 8.2875 16.8713 7.7325 15.465 7.62375C14.1338 7.51875 12.6787 8.4 12.1462 8.4C11.5837 8.4 10.2938 7.66125 9.28125 7.66125C7.18875 7.695 4.965 9.33 4.965 12.6563C4.965 13.6388 5.145 14.655 5.505 15.7013C5.985 17.0775 7.7175 20.4525 9.525 20.3963C10.47 20.3738 11.1375 19.725 12.3675 19.725C13.56 19.725 14.1788 20.3963 15.2325 20.3963C17.055 20.37 18.6225 17.3025 19.08 15.9225C16.635 14.7713 16.7663 12.5475 16.7663 12.4763ZM14.6438 6.31875C15.6675 5.10375 15.5738 3.9975 15.5438 3.6C14.64 3.6525 13.5938 4.215 12.9975 4.90875C12.3413 5.65125 11.955 6.57 12.0375 7.605C13.0163 7.68 13.9088 7.1775 14.6438 6.31875Z" fill="var(--fill-0, #77EDED)"/>
</g>
</svg>
