<svg preserveAspectRatio="none" width="100%" height="100%" overflow="visible" style="display: block;" viewBox="0 0 30 30" fill="none" xmlns="http://www.w3.org/2000/svg">
<g id="live_tv_24dp_E3E3E3_FILL1_wght300_GRAD200_opsz24 1">
<path id="Vector" d="M11.75 19.6106L20.8606 13.75L11.75 7.88938V19.6106ZM9.75 26.625V23.875H5.38469C4.5299 23.875 3.80417 23.5767 3.2075 22.98C2.61083 22.3833 2.3125 21.6576 2.3125 20.8028V6.44719C2.3125 5.5924 2.61083 4.86667 3.2075 4.27C3.80417 3.67333 4.5299 3.375 5.38469 3.375H24.6153C25.4701 3.375 26.1958 3.67333 26.7925 4.27C27.3892 4.86667 27.6875 5.5924 27.6875 6.44719V20.8028C27.6875 21.6576 27.3892 22.3833 26.7925 22.98C26.1958 23.5767 25.4701 23.875 24.6153 23.875H20.25V26.625H9.75Z" fill="var(--fill-0, #77EDED)"/>
</g>
</svg>
